G75*
G70*
%OFA0B0*%
%FSLAX24Y24*%
%IPPOS*%
%LPD*%
%AMOC8*
5,1,8,0,0,1.08239X$1,22.5*
%
%ADD10C,0.0080*%
%ADD11C,0.0100*%
%ADD12R,0.0400X0.4000*%
%ADD13C,0.0130*%
D10*
X004698Y001812D02*
X004783Y001812D01*
X004812Y001841D01*
X004812Y001954D01*
X004783Y001982D01*
X004698Y001982D01*
X004698Y001812D01*
X004808Y002072D02*
X005308Y002072D01*
X005558Y002322D01*
X005808Y002072D01*
X006308Y002072D01*
X006558Y002322D01*
X006808Y002072D01*
X007308Y002072D01*
X007558Y002322D01*
X007808Y002072D01*
X008308Y002072D01*
X008558Y002322D01*
X008808Y002072D01*
X009308Y002072D01*
X009558Y002322D01*
X009808Y002072D01*
X010308Y002072D01*
X010558Y002322D01*
X010558Y002822D01*
X010308Y003072D01*
X009808Y003072D01*
X009558Y002822D01*
X009308Y003072D01*
X008808Y003072D01*
X008558Y002822D01*
X008308Y003072D01*
X007808Y003072D01*
X007558Y002822D01*
X007308Y003072D01*
X006808Y003072D01*
X006558Y002822D01*
X006308Y003072D01*
X005808Y003072D01*
X005558Y002822D01*
X005308Y003072D01*
X004808Y003072D01*
X004558Y002822D01*
X004558Y002322D01*
X004808Y002072D01*
X004928Y001982D02*
X005042Y001982D01*
X004985Y001982D02*
X004985Y001812D01*
X005159Y001812D02*
X005159Y001982D01*
X005244Y001982D01*
X005272Y001954D01*
X005272Y001897D01*
X005244Y001869D01*
X005159Y001869D01*
X005215Y001869D02*
X005272Y001812D01*
X005698Y001982D02*
X005812Y001982D01*
X005755Y001982D02*
X005755Y001812D01*
X005928Y001812D02*
X006042Y001982D01*
X005928Y001982D02*
X006042Y001812D01*
X006159Y001841D02*
X006272Y001954D01*
X006272Y001841D01*
X006244Y001812D01*
X006187Y001812D01*
X006159Y001841D01*
X006159Y001954D01*
X006187Y001982D01*
X006244Y001982D01*
X006272Y001954D01*
X006698Y001982D02*
X006698Y001812D01*
X006698Y001869D02*
X006783Y001869D01*
X006812Y001897D01*
X006812Y001954D01*
X006783Y001982D01*
X006698Y001982D01*
X006755Y001869D02*
X006812Y001812D01*
X006928Y001812D02*
X007042Y001982D01*
X006928Y001982D02*
X007042Y001812D01*
X007159Y001841D02*
X007272Y001954D01*
X007272Y001841D01*
X007244Y001812D01*
X007187Y001812D01*
X007159Y001841D01*
X007159Y001954D01*
X007187Y001982D01*
X007244Y001982D01*
X007272Y001954D01*
X007798Y001982D02*
X007798Y001897D01*
X007855Y001926D01*
X007883Y001926D01*
X007912Y001897D01*
X007912Y001841D01*
X007883Y001812D01*
X007827Y001812D01*
X007798Y001841D01*
X007798Y001982D02*
X007912Y001982D01*
X008028Y001982D02*
X008028Y001869D01*
X008085Y001812D01*
X008142Y001869D01*
X008142Y001982D01*
X008698Y001954D02*
X008698Y001841D01*
X008727Y001812D01*
X008783Y001812D01*
X008812Y001841D01*
X008812Y001897D01*
X008755Y001897D01*
X008812Y001954D02*
X008783Y001982D01*
X008727Y001982D01*
X008698Y001954D01*
X008928Y001982D02*
X009042Y001812D01*
X009042Y001982D01*
X008928Y001982D02*
X008928Y001812D01*
X009159Y001812D02*
X009159Y001982D01*
X009244Y001982D01*
X009272Y001954D01*
X009272Y001841D01*
X009244Y001812D01*
X009159Y001812D01*
X009698Y001841D02*
X009698Y001954D01*
X009727Y001982D01*
X009783Y001982D01*
X009812Y001954D01*
X009812Y001897D02*
X009755Y001897D01*
X009812Y001897D02*
X009812Y001841D01*
X009783Y001812D01*
X009727Y001812D01*
X009698Y001841D01*
X009928Y001812D02*
X009928Y001982D01*
X010042Y001812D01*
X010042Y001982D01*
X010159Y001982D02*
X010244Y001982D01*
X010272Y001954D01*
X010272Y001841D01*
X010244Y001812D01*
X010159Y001812D01*
X010159Y001982D01*
X009920Y003086D02*
X009920Y003183D01*
X008502Y003262D02*
X008356Y003262D01*
X008356Y003482D01*
X008226Y003482D02*
X008079Y003482D01*
X008153Y003482D02*
X008153Y003262D01*
X007877Y003262D02*
X007877Y003482D01*
X007950Y003482D02*
X007803Y003482D01*
X007674Y003446D02*
X007674Y003409D01*
X007527Y003262D01*
X007674Y003262D01*
X007674Y003446D02*
X007637Y003482D01*
X007564Y003482D01*
X007527Y003446D01*
X007397Y003446D02*
X007397Y003409D01*
X007361Y003372D01*
X007251Y003372D01*
X007251Y003262D02*
X007361Y003262D01*
X007397Y003299D01*
X007397Y003336D01*
X007361Y003372D01*
X007397Y003446D02*
X007361Y003482D01*
X007251Y003482D01*
X007251Y003262D01*
X007121Y003299D02*
X007085Y003262D01*
X007011Y003262D01*
X006974Y003299D01*
X007011Y003372D02*
X007085Y003372D01*
X007121Y003336D01*
X007121Y003299D01*
X007011Y003372D02*
X006974Y003409D01*
X006974Y003446D01*
X007011Y003482D01*
X007085Y003482D01*
X007121Y003446D01*
X006845Y003482D02*
X006845Y003299D01*
X006808Y003262D01*
X006735Y003262D01*
X006698Y003299D01*
X006698Y003482D01*
X005196Y003183D02*
X005196Y003086D01*
X005196Y004836D02*
X005196Y006371D01*
X009920Y006371D01*
X009920Y004836D01*
X011170Y004826D02*
X011170Y004326D01*
X012098Y004720D02*
X012135Y004684D01*
X012282Y004684D01*
X012318Y004720D01*
X012318Y004794D01*
X012282Y004830D01*
X012318Y004960D02*
X012318Y005107D01*
X012318Y005033D02*
X012098Y005033D01*
X012171Y004960D01*
X012135Y004830D02*
X012098Y004794D01*
X012098Y004720D01*
X010574Y005072D02*
X010576Y005134D01*
X010582Y005197D01*
X010592Y005258D01*
X010606Y005319D01*
X010623Y005379D01*
X010644Y005438D01*
X010670Y005495D01*
X010698Y005550D01*
X010730Y005604D01*
X010766Y005655D01*
X010804Y005705D01*
X010846Y005751D01*
X010890Y005795D01*
X010938Y005836D01*
X010987Y005874D01*
X011039Y005908D01*
X011093Y005939D01*
X011149Y005967D01*
X011207Y005991D01*
X011266Y006012D01*
X011326Y006028D01*
X011387Y006041D01*
X011449Y006050D01*
X011511Y006055D01*
X011574Y006056D01*
X011636Y006053D01*
X011698Y006046D01*
X011760Y006035D01*
X011820Y006020D01*
X011880Y006002D01*
X011938Y005980D01*
X011995Y005954D01*
X012050Y005924D01*
X012103Y005891D01*
X012154Y005855D01*
X012202Y005816D01*
X012248Y005773D01*
X012291Y005728D01*
X012331Y005680D01*
X012368Y005630D01*
X012402Y005577D01*
X012433Y005523D01*
X012459Y005467D01*
X012483Y005409D01*
X012502Y005349D01*
X012518Y005289D01*
X012530Y005227D01*
X012538Y005166D01*
X012542Y005103D01*
X012542Y005041D01*
X012538Y004978D01*
X012530Y004917D01*
X012518Y004855D01*
X012502Y004795D01*
X012483Y004735D01*
X012459Y004677D01*
X012433Y004621D01*
X012402Y004567D01*
X012368Y004514D01*
X012331Y004464D01*
X012291Y004416D01*
X012248Y004371D01*
X012202Y004328D01*
X012154Y004289D01*
X012103Y004253D01*
X012050Y004220D01*
X011995Y004190D01*
X011938Y004164D01*
X011880Y004142D01*
X011820Y004124D01*
X011760Y004109D01*
X011698Y004098D01*
X011636Y004091D01*
X011574Y004088D01*
X011511Y004089D01*
X011449Y004094D01*
X011387Y004103D01*
X011326Y004116D01*
X011266Y004132D01*
X011207Y004153D01*
X011149Y004177D01*
X011093Y004205D01*
X011039Y004236D01*
X010987Y004270D01*
X010938Y004308D01*
X010890Y004349D01*
X010846Y004393D01*
X010804Y004439D01*
X010766Y004489D01*
X010730Y004540D01*
X010698Y004594D01*
X010670Y004649D01*
X010644Y004706D01*
X010623Y004765D01*
X010606Y004825D01*
X010592Y004886D01*
X010582Y004947D01*
X010576Y005010D01*
X010574Y005072D01*
X012098Y005383D02*
X012135Y005309D01*
X012208Y005236D01*
X012208Y005346D01*
X012245Y005383D01*
X012282Y005383D01*
X012318Y005346D01*
X012318Y005273D01*
X012282Y005236D01*
X012208Y005236D01*
X012658Y005472D02*
X033458Y005472D01*
X033458Y007572D01*
X033598Y007529D02*
X033818Y007529D01*
X033818Y007675D01*
X033708Y007602D02*
X033708Y007529D01*
X033598Y007529D02*
X033598Y007675D01*
X033635Y007805D02*
X033782Y007805D01*
X033818Y007842D01*
X033818Y007915D01*
X033782Y007952D01*
X033708Y007952D01*
X033708Y007878D01*
X033635Y007805D02*
X033598Y007842D01*
X033598Y007915D01*
X033635Y007952D01*
X033671Y008081D02*
X033598Y008154D01*
X033671Y008228D01*
X033818Y008228D01*
X033708Y008228D02*
X033708Y008081D01*
X033671Y008081D02*
X033818Y008081D01*
X033458Y008572D02*
X033414Y008570D01*
X033371Y008564D01*
X033329Y008555D01*
X033287Y008542D01*
X033247Y008525D01*
X033208Y008505D01*
X033171Y008482D01*
X033137Y008455D01*
X033104Y008426D01*
X033075Y008393D01*
X033048Y008359D01*
X033025Y008322D01*
X033005Y008283D01*
X032988Y008243D01*
X032975Y008201D01*
X032966Y008159D01*
X032960Y008116D01*
X032958Y008072D01*
X032960Y008028D01*
X032966Y007985D01*
X032975Y007943D01*
X032988Y007901D01*
X033005Y007861D01*
X033025Y007822D01*
X033048Y007785D01*
X033075Y007751D01*
X033104Y007718D01*
X033137Y007689D01*
X033171Y007662D01*
X033208Y007639D01*
X033247Y007619D01*
X033287Y007602D01*
X033329Y007589D01*
X033371Y007580D01*
X033414Y007574D01*
X033458Y007572D01*
X033598Y007399D02*
X033818Y007399D01*
X033818Y007252D02*
X033598Y007252D01*
X033671Y007326D01*
X033598Y007399D01*
X033598Y007123D02*
X033598Y006976D01*
X033598Y007050D02*
X033818Y007050D01*
X033818Y006847D02*
X033671Y006847D01*
X033598Y006773D01*
X033671Y006700D01*
X033818Y006700D01*
X033708Y006700D02*
X033708Y006847D01*
X034665Y006883D02*
X034665Y006079D01*
X035605Y006405D02*
X035641Y006369D01*
X035715Y006369D01*
X035751Y006405D01*
X035751Y006442D01*
X035715Y006479D01*
X035641Y006479D01*
X035605Y006515D01*
X035605Y006552D01*
X035641Y006589D01*
X035715Y006589D01*
X035751Y006552D01*
X035881Y006515D02*
X035954Y006589D01*
X035954Y006369D01*
X035881Y006369D02*
X036028Y006369D01*
X035165Y006479D02*
X035167Y006531D01*
X035173Y006583D01*
X035183Y006635D01*
X035196Y006685D01*
X035213Y006735D01*
X035234Y006783D01*
X035259Y006829D01*
X035287Y006873D01*
X035318Y006915D01*
X035352Y006955D01*
X035389Y006992D01*
X035429Y007026D01*
X035471Y007057D01*
X035515Y007085D01*
X035561Y007110D01*
X035609Y007131D01*
X035659Y007148D01*
X035709Y007161D01*
X035761Y007171D01*
X035813Y007177D01*
X035865Y007179D01*
X035917Y007177D01*
X035969Y007171D01*
X036021Y007161D01*
X036071Y007148D01*
X036121Y007131D01*
X036169Y007110D01*
X036215Y007085D01*
X036259Y007057D01*
X036301Y007026D01*
X036341Y006992D01*
X036378Y006955D01*
X036412Y006915D01*
X036443Y006873D01*
X036471Y006829D01*
X036496Y006783D01*
X036517Y006735D01*
X036534Y006685D01*
X036547Y006635D01*
X036557Y006583D01*
X036563Y006531D01*
X036565Y006479D01*
X036563Y006427D01*
X036557Y006375D01*
X036547Y006323D01*
X036534Y006273D01*
X036517Y006223D01*
X036496Y006175D01*
X036471Y006129D01*
X036443Y006085D01*
X036412Y006043D01*
X036378Y006003D01*
X036341Y005966D01*
X036301Y005932D01*
X036259Y005901D01*
X036215Y005873D01*
X036169Y005848D01*
X036121Y005827D01*
X036071Y005810D01*
X036021Y005797D01*
X035969Y005787D01*
X035917Y005781D01*
X035865Y005779D01*
X035813Y005781D01*
X035761Y005787D01*
X035709Y005797D01*
X035659Y005810D01*
X035609Y005827D01*
X035561Y005848D01*
X035515Y005873D01*
X035471Y005901D01*
X035429Y005932D01*
X035389Y005966D01*
X035352Y006003D01*
X035318Y006043D01*
X035287Y006085D01*
X035259Y006129D01*
X035234Y006175D01*
X035213Y006223D01*
X035196Y006273D01*
X035183Y006323D01*
X035173Y006375D01*
X035167Y006427D01*
X035165Y006479D01*
X035015Y007679D02*
X036715Y007679D01*
X036345Y007862D02*
X036345Y008082D01*
X036272Y008082D02*
X036419Y008082D01*
X036143Y008082D02*
X035996Y008082D01*
X035996Y007862D01*
X036143Y007862D01*
X036069Y007972D02*
X035996Y007972D01*
X035866Y007936D02*
X035866Y007899D01*
X035830Y007862D01*
X035756Y007862D01*
X035720Y007899D01*
X035756Y007972D02*
X035830Y007972D01*
X035866Y007936D01*
X035866Y008046D02*
X035830Y008082D01*
X035756Y008082D01*
X035720Y008046D01*
X035720Y008009D01*
X035756Y007972D01*
X035590Y007862D02*
X035443Y007862D01*
X035443Y008082D01*
X035590Y008082D01*
X035517Y007972D02*
X035443Y007972D01*
X035314Y007972D02*
X035277Y007936D01*
X035167Y007936D01*
X035241Y007936D02*
X035314Y007862D01*
X035314Y007972D02*
X035314Y008046D01*
X035277Y008082D01*
X035167Y008082D01*
X035167Y007862D01*
X033818Y008394D02*
X033818Y008467D01*
X033782Y008504D01*
X033745Y008504D01*
X033708Y008467D01*
X033708Y008357D01*
X033782Y008357D01*
X033818Y008394D01*
X033708Y008357D02*
X033635Y008431D01*
X033598Y008504D01*
X033458Y008572D02*
X033458Y010672D01*
X012658Y010672D01*
X012658Y005472D01*
X012282Y006262D02*
X012209Y006262D01*
X012172Y006299D01*
X012172Y006372D02*
X012245Y006409D01*
X012282Y006409D01*
X012319Y006372D01*
X012319Y006299D01*
X012282Y006262D01*
X012172Y006372D02*
X012172Y006482D01*
X012319Y006482D01*
X012458Y006572D02*
X011458Y006572D01*
X011458Y008572D01*
X012458Y008572D01*
X012458Y006572D01*
X011969Y006482D02*
X011969Y006262D01*
X011896Y006262D02*
X012043Y006262D01*
X011896Y006409D02*
X011969Y006482D01*
X011766Y006446D02*
X011730Y006482D01*
X011656Y006482D01*
X011620Y006446D01*
X011620Y006299D01*
X011656Y006262D01*
X011730Y006262D01*
X011766Y006299D01*
X011708Y007572D02*
X012208Y007572D01*
X011258Y007822D02*
X010958Y007822D01*
X010958Y007722D01*
X010958Y007822D02*
X010658Y007822D01*
X010658Y009822D01*
X010958Y009822D01*
X010958Y009922D01*
X010958Y009822D02*
X011258Y009822D01*
X011258Y007822D01*
X011018Y008462D02*
X010798Y008462D01*
X010798Y008572D01*
X010835Y008609D01*
X010908Y008609D01*
X010945Y008572D01*
X010945Y008462D01*
X010945Y008536D02*
X011018Y008609D01*
X011018Y008739D02*
X011018Y008885D01*
X011018Y008812D02*
X010798Y008812D01*
X010871Y008739D01*
X010871Y009015D02*
X010798Y009088D01*
X011018Y009088D01*
X011018Y009015D02*
X011018Y009161D01*
X011458Y009172D02*
X012458Y009172D01*
X012458Y011172D01*
X011458Y011172D01*
X011458Y009172D01*
X011570Y009046D02*
X011570Y008899D01*
X011606Y008862D01*
X011680Y008862D01*
X011716Y008899D01*
X011846Y008862D02*
X011993Y008862D01*
X011919Y008862D02*
X011919Y009082D01*
X011846Y009009D01*
X011716Y009046D02*
X011680Y009082D01*
X011606Y009082D01*
X011570Y009046D01*
X012122Y009009D02*
X012195Y009082D01*
X012195Y008862D01*
X012122Y008862D02*
X012269Y008862D01*
X021758Y008972D02*
X021790Y008613D01*
X021806Y008252D01*
X021806Y007892D01*
X021790Y007531D01*
X021758Y007172D01*
X021758Y007173D02*
X021748Y007121D01*
X021734Y007070D01*
X021716Y007020D01*
X021695Y006972D01*
X021670Y006925D01*
X021642Y006881D01*
X021610Y006838D01*
X021576Y006798D01*
X021538Y006761D01*
X021498Y006727D01*
X021456Y006695D01*
X021411Y006667D01*
X021364Y006643D01*
X021316Y006622D01*
X021266Y006604D01*
X021215Y006591D01*
X021163Y006581D01*
X021111Y006575D01*
X021058Y006573D01*
X021005Y006575D01*
X020953Y006581D01*
X020901Y006591D01*
X020850Y006604D01*
X020800Y006622D01*
X020752Y006643D01*
X020705Y006667D01*
X020660Y006695D01*
X020618Y006727D01*
X020578Y006761D01*
X020540Y006798D01*
X020506Y006838D01*
X020474Y006881D01*
X020446Y006925D01*
X020421Y006972D01*
X020400Y007020D01*
X020382Y007070D01*
X020368Y007121D01*
X020358Y007173D01*
X019985Y008010D02*
X020058Y008083D01*
X020168Y008083D01*
X020058Y008083D02*
X019985Y008157D01*
X019948Y008157D01*
X019948Y008010D02*
X019985Y008010D01*
X020021Y008286D02*
X019948Y008359D01*
X020168Y008359D01*
X020168Y008286D02*
X020168Y008433D01*
X020358Y008972D02*
X020368Y009024D01*
X020382Y009075D01*
X020400Y009125D01*
X020421Y009173D01*
X020446Y009220D01*
X020474Y009264D01*
X020506Y009307D01*
X020540Y009347D01*
X020577Y009384D01*
X020618Y009418D01*
X020660Y009450D01*
X020705Y009478D01*
X020752Y009502D01*
X020800Y009523D01*
X020850Y009541D01*
X020901Y009554D01*
X020953Y009564D01*
X021005Y009570D01*
X021058Y009572D01*
X021111Y009570D01*
X021163Y009564D01*
X021215Y009554D01*
X021266Y009541D01*
X021316Y009523D01*
X021364Y009502D01*
X021411Y009478D01*
X021456Y009450D01*
X021498Y009418D01*
X021539Y009384D01*
X021576Y009347D01*
X021610Y009307D01*
X021642Y009264D01*
X021670Y009220D01*
X021695Y009173D01*
X021716Y009125D01*
X021734Y009075D01*
X021748Y009024D01*
X021758Y008972D01*
X024058Y009072D02*
X024058Y008072D01*
X026058Y008072D01*
X026058Y007072D01*
X024058Y007072D01*
X024058Y008072D01*
X026058Y008072D01*
X026058Y009072D01*
X024058Y009072D01*
X025058Y008822D02*
X025058Y008322D01*
X025058Y007822D02*
X025058Y007322D01*
X026148Y007320D02*
X026185Y007284D01*
X026332Y007284D01*
X026368Y007320D01*
X026368Y007394D01*
X026332Y007430D01*
X026368Y007560D02*
X026368Y007707D01*
X026368Y007633D02*
X026148Y007633D01*
X026221Y007560D01*
X026185Y007430D02*
X026148Y007394D01*
X026148Y007320D01*
X026258Y007836D02*
X026258Y007983D01*
X026368Y007946D02*
X026148Y007946D01*
X026258Y007836D01*
X026185Y008234D02*
X026332Y008234D01*
X026368Y008270D01*
X026368Y008344D01*
X026332Y008380D01*
X026368Y008510D02*
X026368Y008657D01*
X026368Y008583D02*
X026148Y008583D01*
X026221Y008510D01*
X026185Y008380D02*
X026148Y008344D01*
X026148Y008270D01*
X026185Y008234D01*
X026185Y008786D02*
X026148Y008823D01*
X026148Y008896D01*
X026185Y008933D01*
X026221Y008933D01*
X026258Y008896D01*
X026295Y008933D01*
X026332Y008933D01*
X026368Y008896D01*
X026368Y008823D01*
X026332Y008786D01*
X026258Y008859D02*
X026258Y008896D01*
X028058Y008372D02*
X028058Y008072D01*
X027958Y008072D01*
X028058Y008072D02*
X028058Y007772D01*
X030058Y007772D01*
X030058Y008072D01*
X030158Y008072D01*
X030058Y008072D02*
X030058Y008372D01*
X028058Y008372D01*
X028470Y008182D02*
X028580Y008182D01*
X028616Y008146D01*
X028616Y008072D01*
X028580Y008036D01*
X028470Y008036D01*
X020358Y007172D02*
X020326Y007531D01*
X020310Y007892D01*
X020310Y008252D01*
X020326Y008613D01*
X020358Y008972D01*
X019558Y011572D02*
X019558Y012572D01*
X013558Y012572D01*
X013558Y013572D01*
X013558Y015022D01*
X013558Y017122D01*
X013558Y017572D01*
X013558Y018572D01*
X021558Y018572D01*
X021558Y017572D01*
X021558Y017122D01*
X021558Y015022D01*
X021558Y013635D01*
X021558Y013572D02*
X029558Y013572D01*
X029558Y015022D01*
X029558Y017122D01*
X029558Y017572D01*
X029558Y018572D01*
X037558Y018572D01*
X037558Y017572D01*
X037558Y016972D01*
X038608Y016972D01*
X038608Y014972D01*
X037558Y014972D01*
X037558Y016972D01*
X037558Y014972D01*
X038608Y014972D01*
X038608Y012972D01*
X037908Y012972D01*
X037558Y012972D01*
X037558Y014972D01*
X037558Y013572D01*
X037558Y012972D01*
X037558Y012572D01*
X029558Y012572D01*
X029558Y013572D01*
X037558Y013572D01*
X037308Y013572D02*
X036808Y013572D01*
X036558Y013822D01*
X036308Y013572D01*
X035808Y013572D01*
X035558Y013822D01*
X035558Y014322D01*
X035808Y014572D01*
X036308Y014572D01*
X036558Y014322D01*
X036808Y014572D01*
X037308Y014572D01*
X037558Y014322D01*
X037558Y013822D01*
X037308Y013572D01*
X037958Y013972D02*
X038358Y013972D01*
X038698Y013922D02*
X038698Y013849D01*
X038735Y013812D01*
X038882Y013812D01*
X038918Y013849D01*
X038918Y013922D01*
X038882Y013959D01*
X038808Y013959D01*
X038808Y013886D01*
X038735Y013959D02*
X038698Y013922D01*
X038698Y014089D02*
X038918Y014235D01*
X038698Y014235D01*
X038698Y014365D02*
X038698Y014475D01*
X038735Y014511D01*
X038882Y014511D01*
X038918Y014475D01*
X038918Y014365D01*
X038698Y014365D01*
X038698Y014089D02*
X038918Y014089D01*
X039158Y013672D02*
X039158Y016672D01*
X039158Y016822D01*
X039158Y016823D02*
X039159Y016857D01*
X039163Y016892D01*
X039171Y016925D01*
X039182Y016958D01*
X039197Y016989D01*
X039214Y017019D01*
X039235Y017047D01*
X039258Y017073D01*
X039284Y017096D01*
X039312Y017117D01*
X039342Y017134D01*
X039373Y017149D01*
X039406Y017160D01*
X039439Y017168D01*
X039474Y017172D01*
X039508Y017173D01*
X039508Y017172D02*
X040108Y017172D01*
X040108Y013172D01*
X040058Y013172D01*
X040058Y017172D01*
X040102Y017166D02*
X040102Y018422D01*
X038402Y018422D01*
X037902Y017922D01*
X037902Y016979D01*
X038048Y017149D02*
X038085Y017112D01*
X038232Y017112D01*
X038268Y017149D01*
X038268Y017222D01*
X038232Y017259D01*
X038232Y017389D02*
X038268Y017425D01*
X038268Y017499D01*
X038232Y017535D01*
X038158Y017535D01*
X038121Y017499D01*
X038121Y017462D01*
X038158Y017389D01*
X038048Y017389D01*
X038048Y017535D01*
X038085Y017259D02*
X038048Y017222D01*
X038048Y017149D01*
X037558Y017572D02*
X029558Y017572D01*
X021558Y017572D01*
X013558Y017572D01*
X005558Y017572D01*
X005558Y017122D01*
X005558Y015022D01*
X005558Y013572D01*
X013558Y013572D01*
X021558Y013572D01*
X021558Y012572D01*
X022058Y012572D01*
X024058Y012572D01*
X024558Y012572D01*
X026558Y012572D01*
X029558Y012572D01*
X029369Y011722D02*
X029369Y011686D01*
X029222Y011539D01*
X029222Y011502D01*
X029121Y011502D02*
X029084Y011502D01*
X029084Y011539D01*
X029121Y011539D01*
X029121Y011502D01*
X028954Y011539D02*
X028954Y011686D01*
X028808Y011539D01*
X028844Y011502D01*
X028918Y011502D01*
X028954Y011539D01*
X028808Y011539D02*
X028808Y011686D01*
X028844Y011722D01*
X028918Y011722D01*
X028954Y011686D01*
X029222Y011722D02*
X029369Y011722D01*
X028402Y011649D02*
X028329Y011502D01*
X028255Y011649D01*
X028126Y011612D02*
X028126Y011576D01*
X027979Y011576D01*
X027979Y011612D02*
X028016Y011649D01*
X028089Y011649D01*
X028126Y011612D01*
X028089Y011502D02*
X028016Y011502D01*
X027979Y011539D01*
X027979Y011612D01*
X027850Y011612D02*
X027813Y011576D01*
X027703Y011576D01*
X027776Y011576D02*
X027850Y011502D01*
X027850Y011612D02*
X027850Y011686D01*
X027813Y011722D01*
X027703Y011722D01*
X027703Y011502D01*
X026558Y012572D02*
X024558Y012572D01*
X024308Y013572D02*
X023808Y013572D01*
X023558Y013822D01*
X023308Y013572D01*
X022808Y013572D01*
X022558Y013822D01*
X022558Y014322D01*
X022808Y014572D01*
X023308Y014572D01*
X023558Y014322D01*
X023808Y014572D01*
X024308Y014572D01*
X024558Y014322D01*
X024558Y013822D01*
X024308Y013572D01*
X024748Y013762D02*
X024821Y013836D01*
X024748Y013909D01*
X024968Y013909D01*
X025058Y013822D02*
X025308Y013572D01*
X025808Y013572D01*
X026058Y013822D01*
X026308Y013572D01*
X026808Y013572D01*
X027058Y013822D01*
X027058Y014322D01*
X026808Y014572D01*
X026308Y014572D01*
X026058Y014322D01*
X025808Y014572D01*
X025308Y014572D01*
X025058Y014322D01*
X025058Y013822D01*
X024968Y013762D02*
X024748Y013762D01*
X024785Y014039D02*
X024821Y014039D01*
X024858Y014075D01*
X024858Y014149D01*
X024895Y014185D01*
X024932Y014185D01*
X024968Y014149D01*
X024968Y014075D01*
X024932Y014039D01*
X024785Y014039D02*
X024748Y014075D01*
X024748Y014149D01*
X024785Y014185D01*
X024785Y014315D02*
X024748Y014351D01*
X024748Y014425D01*
X024785Y014461D01*
X024821Y014461D01*
X024968Y014315D01*
X024968Y014461D01*
X026458Y015072D02*
X026558Y015072D01*
X026558Y015372D01*
X028558Y015372D01*
X028558Y015072D01*
X028658Y015072D01*
X028558Y015072D02*
X028558Y014772D01*
X026558Y014772D01*
X026558Y015072D01*
X027348Y015036D02*
X027458Y015036D01*
X027495Y015072D01*
X027495Y015146D01*
X027458Y015182D01*
X027348Y015182D01*
X027348Y014962D01*
X027422Y015036D02*
X027495Y014962D01*
X027624Y015072D02*
X027771Y015072D01*
X027735Y014962D02*
X027735Y015182D01*
X027624Y015072D01*
X027808Y014572D02*
X027558Y014322D01*
X027558Y013822D01*
X027808Y013572D01*
X028308Y013572D01*
X028558Y013822D01*
X028808Y013572D01*
X029308Y013572D01*
X029558Y013822D01*
X029558Y014322D01*
X029308Y014572D01*
X028808Y014572D01*
X028558Y014322D01*
X028308Y014572D01*
X027808Y014572D01*
X027468Y014425D02*
X027468Y014351D01*
X027432Y014315D01*
X027358Y014388D02*
X027358Y014425D01*
X027395Y014461D01*
X027432Y014461D01*
X027468Y014425D01*
X027358Y014425D02*
X027321Y014461D01*
X027285Y014461D01*
X027248Y014425D01*
X027248Y014351D01*
X027285Y014315D01*
X027285Y014185D02*
X027248Y014149D01*
X027248Y014075D01*
X027285Y014039D01*
X027321Y014039D01*
X027358Y014075D01*
X027358Y014149D01*
X027395Y014185D01*
X027432Y014185D01*
X027468Y014149D01*
X027468Y014075D01*
X027432Y014039D01*
X027468Y013909D02*
X027248Y013909D01*
X027321Y013836D01*
X027248Y013762D01*
X027468Y013762D01*
X030248Y013762D02*
X030321Y013836D01*
X030248Y013909D01*
X030468Y013909D01*
X030558Y013822D02*
X030808Y013572D01*
X031308Y013572D01*
X031558Y013822D01*
X031808Y013572D01*
X032308Y013572D01*
X032558Y013822D01*
X032558Y014322D01*
X032308Y014572D01*
X031808Y014572D01*
X031558Y014322D01*
X031308Y014572D01*
X030808Y014572D01*
X030558Y014322D01*
X030558Y013822D01*
X030468Y013762D02*
X030248Y013762D01*
X030285Y014039D02*
X030248Y014075D01*
X030248Y014149D01*
X030285Y014185D01*
X030358Y014149D02*
X030395Y014185D01*
X030432Y014185D01*
X030468Y014149D01*
X030468Y014075D01*
X030432Y014039D01*
X030358Y014075D02*
X030358Y014149D01*
X030358Y014075D02*
X030321Y014039D01*
X030285Y014039D01*
X030321Y014315D02*
X030248Y014388D01*
X030468Y014388D01*
X030468Y014315D02*
X030468Y014461D01*
X031517Y014902D02*
X031517Y015012D01*
X031554Y015049D01*
X031627Y015049D01*
X031664Y015012D01*
X031664Y014902D01*
X031737Y014902D02*
X031517Y014902D01*
X031554Y015179D02*
X031700Y015179D01*
X031737Y015215D01*
X031737Y015289D01*
X031700Y015325D01*
X031554Y015325D01*
X031517Y015289D01*
X031517Y015215D01*
X031554Y015179D01*
X031517Y015455D02*
X031737Y015455D01*
X031737Y015602D01*
X031700Y015731D02*
X031737Y015768D01*
X031737Y015841D01*
X031700Y015878D01*
X031554Y015878D01*
X031517Y015841D01*
X031517Y015768D01*
X031554Y015731D01*
X031700Y015731D01*
X031737Y016007D02*
X031737Y016154D01*
X031700Y016284D02*
X031737Y016320D01*
X031737Y016394D01*
X031700Y016430D01*
X031517Y016430D01*
X031517Y016284D02*
X031700Y016284D01*
X031627Y016560D02*
X031627Y016706D01*
X031627Y016836D02*
X031627Y016909D01*
X031517Y016836D02*
X031737Y016836D01*
X031737Y016983D01*
X031517Y016983D02*
X031517Y016836D01*
X030878Y016332D02*
X030768Y016222D01*
X030915Y016222D01*
X030878Y016112D02*
X030878Y016332D01*
X030639Y016296D02*
X030602Y016332D01*
X030529Y016332D01*
X030492Y016296D01*
X030492Y016149D01*
X030529Y016112D01*
X030602Y016112D01*
X030639Y016149D01*
X030608Y015822D02*
X030608Y015322D01*
X031517Y016007D02*
X031737Y016007D01*
X033908Y015822D02*
X034008Y015822D01*
X034008Y016122D01*
X036008Y016122D01*
X036008Y015822D01*
X036108Y015822D01*
X036008Y015822D02*
X036008Y015522D01*
X034008Y015522D01*
X034008Y015822D01*
X034558Y015372D02*
X034558Y015072D01*
X034458Y015072D01*
X034558Y015072D02*
X034558Y014772D01*
X036558Y014772D01*
X036558Y015072D01*
X036658Y015072D01*
X036558Y015072D02*
X036558Y015372D01*
X034558Y015372D01*
X034796Y015712D02*
X034796Y015932D01*
X034906Y015932D01*
X034943Y015896D01*
X034943Y015822D01*
X034906Y015786D01*
X034796Y015786D01*
X034869Y015786D02*
X034943Y015712D01*
X035072Y015712D02*
X035219Y015712D01*
X035145Y015712D02*
X035145Y015932D01*
X035072Y015859D01*
X035348Y015182D02*
X035458Y015182D01*
X035495Y015146D01*
X035495Y015072D01*
X035458Y015036D01*
X035348Y015036D01*
X035422Y015036D02*
X035495Y014962D01*
X035624Y014999D02*
X035661Y014962D01*
X035735Y014962D01*
X035771Y014999D01*
X035771Y015072D01*
X035735Y015109D01*
X035698Y015109D01*
X035624Y015072D01*
X035624Y015182D01*
X035771Y015182D01*
X035348Y015182D02*
X035348Y014962D01*
X034808Y014572D02*
X035058Y014322D01*
X035058Y013822D01*
X034808Y013572D01*
X034308Y013572D01*
X034058Y013822D01*
X033808Y013572D01*
X033308Y013572D01*
X033058Y013822D01*
X033058Y014322D01*
X033308Y014572D01*
X033808Y014572D01*
X034058Y014322D01*
X034308Y014572D01*
X034808Y014572D01*
X035248Y014425D02*
X035285Y014461D01*
X035321Y014461D01*
X035358Y014425D01*
X035395Y014461D01*
X035432Y014461D01*
X035468Y014425D01*
X035468Y014351D01*
X035432Y014315D01*
X035358Y014388D02*
X035358Y014425D01*
X035248Y014425D02*
X035248Y014351D01*
X035285Y014315D01*
X035285Y014185D02*
X035248Y014149D01*
X035248Y014075D01*
X035285Y014039D01*
X035321Y014039D01*
X035358Y014075D01*
X035358Y014149D01*
X035395Y014185D01*
X035432Y014185D01*
X035468Y014149D01*
X035468Y014075D01*
X035432Y014039D01*
X035468Y013909D02*
X035248Y013909D01*
X035321Y013836D01*
X035248Y013762D01*
X035468Y013762D01*
X032968Y013762D02*
X032748Y013762D01*
X032821Y013836D01*
X032748Y013909D01*
X032968Y013909D01*
X032932Y014039D02*
X032968Y014075D01*
X032968Y014149D01*
X032932Y014185D01*
X032895Y014185D01*
X032858Y014149D01*
X032858Y014075D01*
X032821Y014039D01*
X032785Y014039D01*
X032748Y014075D01*
X032748Y014149D01*
X032785Y014185D01*
X032785Y014315D02*
X032748Y014351D01*
X032748Y014425D01*
X032785Y014461D01*
X032821Y014461D01*
X032968Y014315D01*
X032968Y014461D01*
X033604Y011784D02*
X034104Y011784D01*
X033374Y011372D02*
X033376Y011434D01*
X033382Y011497D01*
X033392Y011558D01*
X033406Y011619D01*
X033423Y011679D01*
X033444Y011738D01*
X033470Y011795D01*
X033498Y011850D01*
X033530Y011904D01*
X033566Y011955D01*
X033604Y012005D01*
X033646Y012051D01*
X033690Y012095D01*
X033738Y012136D01*
X033787Y012174D01*
X033839Y012208D01*
X033893Y012239D01*
X033949Y012267D01*
X034007Y012291D01*
X034066Y012312D01*
X034126Y012328D01*
X034187Y012341D01*
X034249Y012350D01*
X034311Y012355D01*
X034374Y012356D01*
X034436Y012353D01*
X034498Y012346D01*
X034560Y012335D01*
X034620Y012320D01*
X034680Y012302D01*
X034738Y012280D01*
X034795Y012254D01*
X034850Y012224D01*
X034903Y012191D01*
X034954Y012155D01*
X035002Y012116D01*
X035048Y012073D01*
X035091Y012028D01*
X035131Y011980D01*
X035168Y011930D01*
X035202Y011877D01*
X035233Y011823D01*
X035259Y011767D01*
X035283Y011709D01*
X035302Y011649D01*
X035318Y011589D01*
X035330Y011527D01*
X035338Y011466D01*
X035342Y011403D01*
X035342Y011341D01*
X035338Y011278D01*
X035330Y011217D01*
X035318Y011155D01*
X035302Y011095D01*
X035283Y011035D01*
X035259Y010977D01*
X035233Y010921D01*
X035202Y010867D01*
X035168Y010814D01*
X035131Y010764D01*
X035091Y010716D01*
X035048Y010671D01*
X035002Y010628D01*
X034954Y010589D01*
X034903Y010553D01*
X034850Y010520D01*
X034795Y010490D01*
X034738Y010464D01*
X034680Y010442D01*
X034620Y010424D01*
X034560Y010409D01*
X034498Y010398D01*
X034436Y010391D01*
X034374Y010388D01*
X034311Y010389D01*
X034249Y010394D01*
X034187Y010403D01*
X034126Y010416D01*
X034066Y010432D01*
X034007Y010453D01*
X033949Y010477D01*
X033893Y010505D01*
X033839Y010536D01*
X033787Y010570D01*
X033738Y010608D01*
X033690Y010649D01*
X033646Y010693D01*
X033604Y010739D01*
X033566Y010789D01*
X033530Y010840D01*
X033498Y010894D01*
X033470Y010949D01*
X033444Y011006D01*
X033423Y011065D01*
X033406Y011125D01*
X033392Y011186D01*
X033382Y011247D01*
X033376Y011310D01*
X033374Y011372D01*
X033998Y010796D02*
X033998Y010649D01*
X034035Y010612D01*
X034108Y010612D01*
X034145Y010649D01*
X034274Y010649D02*
X034311Y010612D01*
X034385Y010612D01*
X034421Y010649D01*
X034421Y010796D01*
X034385Y010832D01*
X034311Y010832D01*
X034274Y010796D01*
X034274Y010759D01*
X034311Y010722D01*
X034421Y010722D01*
X034145Y010796D02*
X034108Y010832D01*
X034035Y010832D01*
X033998Y010796D01*
X034958Y010172D02*
X034958Y009872D01*
X034858Y009872D01*
X034958Y009872D02*
X034958Y009572D01*
X036958Y009572D01*
X036958Y009872D01*
X037058Y009872D01*
X036958Y009872D02*
X036958Y010172D01*
X034958Y010172D01*
X035598Y009982D02*
X035598Y009762D01*
X035598Y009836D02*
X035708Y009836D01*
X035745Y009872D01*
X035745Y009946D01*
X035708Y009982D01*
X035598Y009982D01*
X035672Y009836D02*
X035745Y009762D01*
X035874Y009799D02*
X035911Y009762D01*
X035985Y009762D01*
X036021Y009799D01*
X036021Y009946D01*
X035985Y009982D01*
X035911Y009982D01*
X035874Y009946D01*
X035874Y009909D01*
X035911Y009872D01*
X036021Y009872D01*
X036135Y010606D02*
X036208Y010606D01*
X036245Y010643D01*
X036135Y010606D02*
X036098Y010643D01*
X036098Y010789D01*
X036135Y010826D01*
X036208Y010826D01*
X036245Y010789D01*
X036374Y010753D02*
X036448Y010826D01*
X036448Y010606D01*
X036521Y010606D02*
X036374Y010606D01*
X036651Y010643D02*
X036797Y010789D01*
X036797Y010643D01*
X036761Y010606D01*
X036687Y010606D01*
X036651Y010643D01*
X036651Y010789D01*
X036687Y010826D01*
X036761Y010826D01*
X036797Y010789D01*
X035474Y011366D02*
X035476Y011428D01*
X035482Y011491D01*
X035492Y011552D01*
X035506Y011613D01*
X035523Y011673D01*
X035544Y011732D01*
X035570Y011789D01*
X035598Y011844D01*
X035630Y011898D01*
X035666Y011949D01*
X035704Y011999D01*
X035746Y012045D01*
X035790Y012089D01*
X035838Y012130D01*
X035887Y012168D01*
X035939Y012202D01*
X035993Y012233D01*
X036049Y012261D01*
X036107Y012285D01*
X036166Y012306D01*
X036226Y012322D01*
X036287Y012335D01*
X036349Y012344D01*
X036411Y012349D01*
X036474Y012350D01*
X036536Y012347D01*
X036598Y012340D01*
X036660Y012329D01*
X036720Y012314D01*
X036780Y012296D01*
X036838Y012274D01*
X036895Y012248D01*
X036950Y012218D01*
X037003Y012185D01*
X037054Y012149D01*
X037102Y012110D01*
X037148Y012067D01*
X037191Y012022D01*
X037231Y011974D01*
X037268Y011924D01*
X037302Y011871D01*
X037333Y011817D01*
X037359Y011761D01*
X037383Y011703D01*
X037402Y011643D01*
X037418Y011583D01*
X037430Y011521D01*
X037438Y011460D01*
X037442Y011397D01*
X037442Y011335D01*
X037438Y011272D01*
X037430Y011211D01*
X037418Y011149D01*
X037402Y011089D01*
X037383Y011029D01*
X037359Y010971D01*
X037333Y010915D01*
X037302Y010861D01*
X037268Y010808D01*
X037231Y010758D01*
X037191Y010710D01*
X037148Y010665D01*
X037102Y010622D01*
X037054Y010583D01*
X037003Y010547D01*
X036950Y010514D01*
X036895Y010484D01*
X036838Y010458D01*
X036780Y010436D01*
X036720Y010418D01*
X036660Y010403D01*
X036598Y010392D01*
X036536Y010385D01*
X036474Y010382D01*
X036411Y010383D01*
X036349Y010388D01*
X036287Y010397D01*
X036226Y010410D01*
X036166Y010426D01*
X036107Y010447D01*
X036049Y010471D01*
X035993Y010499D01*
X035939Y010530D01*
X035887Y010564D01*
X035838Y010602D01*
X035790Y010643D01*
X035746Y010687D01*
X035704Y010733D01*
X035666Y010783D01*
X035630Y010834D01*
X035598Y010888D01*
X035570Y010943D01*
X035544Y011000D01*
X035523Y011059D01*
X035506Y011119D01*
X035492Y011180D01*
X035482Y011241D01*
X035476Y011304D01*
X035474Y011366D01*
X035704Y011778D02*
X036204Y011778D01*
X038048Y012497D02*
X038085Y012460D01*
X038232Y012460D01*
X038268Y012497D01*
X038268Y012570D01*
X038232Y012607D01*
X038232Y012736D02*
X038268Y012773D01*
X038268Y012846D01*
X038232Y012883D01*
X038195Y012883D01*
X038158Y012846D01*
X038158Y012736D01*
X038232Y012736D01*
X038158Y012736D02*
X038085Y012809D01*
X038048Y012883D01*
X037908Y012972D02*
X037902Y010422D01*
X038402Y009922D01*
X040102Y009922D01*
X040108Y013172D01*
X040158Y013172D01*
X040158Y017172D01*
X040108Y017172D01*
X039445Y018012D02*
X039519Y018086D01*
X039519Y018232D01*
X039372Y018232D02*
X039372Y018086D01*
X039445Y018012D01*
X039243Y018012D02*
X039096Y018012D01*
X039243Y018159D01*
X039243Y018196D01*
X039206Y018232D01*
X039132Y018232D01*
X039096Y018196D01*
X038893Y018232D02*
X038893Y018012D01*
X038820Y018012D02*
X038966Y018012D01*
X038820Y018159D02*
X038893Y018232D01*
X038690Y018122D02*
X038543Y018122D01*
X038617Y018049D02*
X038617Y018196D01*
X037194Y018887D02*
X037120Y018961D01*
X037157Y018961D02*
X037047Y018961D01*
X037047Y018887D02*
X037047Y019108D01*
X037157Y019108D01*
X037194Y019071D01*
X037194Y018998D01*
X037157Y018961D01*
X036917Y018887D02*
X036771Y018887D01*
X036771Y019108D01*
X036917Y019108D01*
X036844Y018998D02*
X036771Y018998D01*
X036641Y018887D02*
X036641Y019108D01*
X036494Y019108D02*
X036494Y018887D01*
X036568Y018961D01*
X036641Y018887D01*
X036365Y018924D02*
X036365Y019071D01*
X036328Y019108D01*
X036255Y019108D01*
X036218Y019071D01*
X036218Y018924D01*
X036255Y018887D01*
X036328Y018887D01*
X036365Y018924D01*
X036089Y018998D02*
X036052Y018961D01*
X035942Y018961D01*
X035942Y018887D02*
X035942Y019108D01*
X036052Y019108D01*
X036089Y019071D01*
X036089Y018998D01*
X035558Y019072D02*
X035058Y019072D01*
X035058Y019572D01*
X032058Y019572D01*
X032058Y019072D01*
X031558Y019072D01*
X031558Y021072D01*
X035558Y021072D01*
X035558Y019072D01*
X035253Y018898D02*
X035253Y018861D01*
X035216Y018825D01*
X035106Y018825D01*
X035106Y018715D02*
X035106Y018935D01*
X035216Y018935D01*
X035253Y018898D01*
X035216Y018825D02*
X035253Y018788D01*
X035253Y018751D01*
X035216Y018715D01*
X035106Y018715D01*
X034977Y018715D02*
X034830Y018715D01*
X034904Y018715D02*
X034904Y018935D01*
X034830Y018861D01*
X035058Y019072D02*
X032058Y019072D01*
X032106Y018935D02*
X032216Y018935D01*
X032253Y018898D01*
X032253Y018861D01*
X032216Y018825D01*
X032106Y018825D01*
X032106Y018715D02*
X032106Y018935D01*
X031977Y018898D02*
X031940Y018935D01*
X031867Y018935D01*
X031830Y018898D01*
X031977Y018898D02*
X031977Y018861D01*
X031830Y018715D01*
X031977Y018715D01*
X032106Y018715D02*
X032216Y018715D01*
X032253Y018751D01*
X032253Y018788D01*
X032216Y018825D01*
X032830Y018898D02*
X032867Y018935D01*
X032940Y018935D01*
X032977Y018898D01*
X032977Y018861D01*
X032830Y018715D01*
X032977Y018715D01*
X033106Y018715D02*
X033106Y018861D01*
X033180Y018935D01*
X033253Y018861D01*
X033253Y018715D01*
X033253Y018825D02*
X033106Y018825D01*
X033830Y018861D02*
X033904Y018935D01*
X033904Y018715D01*
X033977Y018715D02*
X033830Y018715D01*
X034106Y018715D02*
X034106Y018861D01*
X034180Y018935D01*
X034253Y018861D01*
X034253Y018715D01*
X034253Y018825D02*
X034106Y018825D01*
X035938Y019562D02*
X035938Y019762D01*
X035938Y020402D02*
X035938Y020582D01*
X031418Y020530D02*
X031418Y020603D01*
X031382Y020640D01*
X031235Y020640D01*
X031198Y020603D01*
X031198Y020530D01*
X031235Y020493D01*
X031382Y020493D01*
X031418Y020530D01*
X031418Y020291D02*
X031198Y020291D01*
X031198Y020364D02*
X031198Y020217D01*
X031235Y020088D02*
X031198Y020051D01*
X031198Y019978D01*
X031235Y019941D01*
X031382Y019941D01*
X031418Y019978D01*
X031418Y020051D01*
X031382Y020088D01*
X031235Y020088D01*
X031198Y019811D02*
X031418Y019811D01*
X031418Y019665D02*
X031198Y019665D01*
X031271Y019738D01*
X031198Y019811D01*
X031308Y019535D02*
X031308Y019389D01*
X031198Y019259D02*
X031198Y019112D01*
X031418Y019112D01*
X031418Y019259D01*
X031308Y019186D02*
X031308Y019112D01*
X030558Y019072D02*
X030058Y019072D01*
X030058Y019572D01*
X029058Y019572D01*
X029058Y019072D01*
X028558Y019072D01*
X028558Y021072D01*
X030558Y021072D01*
X030558Y019072D01*
X030574Y018932D02*
X030574Y018786D01*
X030500Y018712D01*
X030427Y018786D01*
X030427Y018932D01*
X030297Y018896D02*
X030261Y018932D01*
X030187Y018932D01*
X030151Y018896D01*
X030297Y018896D02*
X030297Y018859D01*
X030151Y018712D01*
X030297Y018712D01*
X030021Y018712D02*
X029874Y018712D01*
X029948Y018712D02*
X029948Y018932D01*
X029874Y018859D01*
X029745Y018822D02*
X029598Y018822D01*
X029672Y018749D02*
X029672Y018896D01*
X029297Y018896D02*
X029297Y018749D01*
X029261Y018712D01*
X029151Y018712D01*
X029151Y018932D01*
X029261Y018932D01*
X029297Y018896D01*
X029021Y018932D02*
X029021Y018712D01*
X028874Y018932D01*
X028874Y018712D01*
X028745Y018749D02*
X028745Y018822D01*
X028672Y018822D01*
X028745Y018749D02*
X028708Y018712D01*
X028635Y018712D01*
X028598Y018749D01*
X028598Y018896D01*
X028635Y018932D01*
X028708Y018932D01*
X028745Y018896D01*
X029058Y019072D02*
X030058Y019072D01*
X029558Y018572D02*
X021558Y018572D01*
X021672Y018749D02*
X021672Y018896D01*
X021745Y018822D02*
X021598Y018822D01*
X021874Y018859D02*
X021948Y018932D01*
X021948Y018712D01*
X022021Y018712D02*
X021874Y018712D01*
X022151Y018712D02*
X022297Y018859D01*
X022297Y018896D01*
X022261Y018932D01*
X022187Y018932D01*
X022151Y018896D01*
X022151Y018712D02*
X022297Y018712D01*
X022427Y018786D02*
X022500Y018712D01*
X022574Y018786D01*
X022574Y018932D01*
X022558Y019072D02*
X022058Y019072D01*
X022058Y019572D01*
X021058Y019572D01*
X021058Y019072D01*
X020558Y019072D01*
X020558Y021072D01*
X022558Y021072D01*
X022558Y019072D01*
X022427Y018932D02*
X022427Y018786D01*
X022058Y019072D02*
X021058Y019072D01*
X021021Y018932D02*
X021021Y018712D01*
X020874Y018932D01*
X020874Y018712D01*
X020745Y018749D02*
X020745Y018822D01*
X020672Y018822D01*
X020745Y018749D02*
X020708Y018712D01*
X020635Y018712D01*
X020598Y018749D01*
X020598Y018896D01*
X020635Y018932D01*
X020708Y018932D01*
X020745Y018896D01*
X020418Y019112D02*
X020418Y019259D01*
X020418Y019186D02*
X020198Y019186D01*
X020271Y019112D01*
X020235Y019389D02*
X020198Y019425D01*
X020198Y019499D01*
X020235Y019535D01*
X020271Y019535D01*
X020418Y019389D01*
X020418Y019535D01*
X020345Y019665D02*
X020418Y019738D01*
X020345Y019811D01*
X020198Y019811D01*
X020198Y019665D02*
X020345Y019665D01*
X019558Y019072D02*
X019058Y019072D01*
X019058Y019572D01*
X016058Y019572D01*
X016058Y019072D01*
X015558Y019072D01*
X015558Y021072D01*
X019558Y021072D01*
X019558Y019072D01*
X019271Y018896D02*
X019271Y018859D01*
X019235Y018822D01*
X019124Y018822D01*
X019124Y018712D02*
X019235Y018712D01*
X019271Y018749D01*
X019271Y018786D01*
X019235Y018822D01*
X019271Y018896D02*
X019235Y018932D01*
X019124Y018932D01*
X019124Y018712D01*
X018995Y018712D02*
X018848Y018712D01*
X018922Y018712D02*
X018922Y018932D01*
X018848Y018859D01*
X019058Y019072D02*
X016058Y019072D01*
X016124Y018932D02*
X016235Y018932D01*
X016271Y018896D01*
X016271Y018859D01*
X016235Y018822D01*
X016124Y018822D01*
X016124Y018712D02*
X016235Y018712D01*
X016271Y018749D01*
X016271Y018786D01*
X016235Y018822D01*
X016124Y018712D02*
X016124Y018932D01*
X015995Y018896D02*
X015958Y018932D01*
X015885Y018932D01*
X015848Y018896D01*
X015995Y018896D02*
X015995Y018859D01*
X015848Y018712D01*
X015995Y018712D01*
X015418Y019186D02*
X015308Y019186D01*
X015235Y019259D01*
X015198Y019259D01*
X015308Y019186D02*
X015235Y019112D01*
X015198Y019112D01*
X015308Y019389D02*
X015308Y019535D01*
X015198Y019665D02*
X015271Y019738D01*
X015198Y019811D01*
X015418Y019811D01*
X015382Y019941D02*
X015418Y019978D01*
X015418Y020051D01*
X015382Y020088D01*
X015235Y020088D01*
X015198Y020051D01*
X015198Y019978D01*
X015235Y019941D01*
X015382Y019941D01*
X015198Y020217D02*
X015198Y020364D01*
X015198Y020291D02*
X015418Y020291D01*
X015382Y020493D02*
X015418Y020530D01*
X015418Y020603D01*
X015382Y020640D01*
X015235Y020640D01*
X015198Y020603D01*
X015198Y020530D01*
X015235Y020493D01*
X015382Y020493D01*
X015418Y020770D02*
X015198Y020770D01*
X015198Y020880D01*
X015235Y020916D01*
X015308Y020916D01*
X015345Y020880D01*
X015345Y020770D01*
X015345Y020843D02*
X015418Y020916D01*
X014558Y021072D02*
X012558Y021072D01*
X012558Y019072D01*
X013058Y019072D01*
X013058Y019572D01*
X014058Y019572D01*
X014058Y019072D01*
X013058Y019072D01*
X013021Y018932D02*
X013021Y018712D01*
X012874Y018932D01*
X012874Y018712D01*
X012745Y018749D02*
X012745Y018822D01*
X012672Y018822D01*
X012745Y018749D02*
X012708Y018712D01*
X012635Y018712D01*
X012598Y018749D01*
X012598Y018896D01*
X012635Y018932D01*
X012708Y018932D01*
X012745Y018896D01*
X012418Y019112D02*
X012418Y019259D01*
X012418Y019186D02*
X012198Y019186D01*
X012271Y019112D01*
X012235Y019389D02*
X012198Y019425D01*
X012198Y019499D01*
X012235Y019535D01*
X012271Y019535D01*
X012418Y019389D01*
X012418Y019535D01*
X012345Y019665D02*
X012418Y019738D01*
X012345Y019811D01*
X012198Y019811D01*
X012198Y019665D02*
X012345Y019665D01*
X011558Y019072D02*
X011058Y019072D01*
X011058Y019572D01*
X008058Y019572D01*
X008058Y019072D01*
X007558Y019072D01*
X007558Y021072D01*
X011558Y021072D01*
X011558Y019072D01*
X011303Y018898D02*
X011303Y018861D01*
X011266Y018825D01*
X011156Y018825D01*
X011156Y018715D02*
X011156Y018935D01*
X011266Y018935D01*
X011303Y018898D01*
X011266Y018825D02*
X011303Y018788D01*
X011303Y018751D01*
X011266Y018715D01*
X011156Y018715D01*
X011027Y018715D02*
X010880Y018715D01*
X010954Y018715D02*
X010954Y018935D01*
X010880Y018861D01*
X011058Y019072D02*
X008058Y019072D01*
X007990Y018935D02*
X007917Y018935D01*
X007880Y018898D01*
X007990Y018935D02*
X008027Y018898D01*
X008027Y018861D01*
X007880Y018715D01*
X008027Y018715D01*
X008156Y018715D02*
X008266Y018715D01*
X008303Y018751D01*
X008303Y018788D01*
X008266Y018825D01*
X008156Y018825D01*
X008156Y018715D02*
X008156Y018935D01*
X008266Y018935D01*
X008303Y018898D01*
X008303Y018861D01*
X008266Y018825D01*
X008880Y018898D02*
X008917Y018935D01*
X008990Y018935D01*
X009027Y018898D01*
X009027Y018861D01*
X008880Y018715D01*
X009027Y018715D01*
X009156Y018715D02*
X009156Y018861D01*
X009230Y018935D01*
X009303Y018861D01*
X009303Y018715D01*
X009303Y018825D02*
X009156Y018825D01*
X009880Y018861D02*
X009954Y018935D01*
X009954Y018715D01*
X010027Y018715D02*
X009880Y018715D01*
X010156Y018715D02*
X010156Y018861D01*
X010230Y018935D01*
X010303Y018861D01*
X010303Y018715D01*
X010303Y018825D02*
X010156Y018825D01*
X007418Y019112D02*
X007198Y019259D01*
X007198Y019112D02*
X007418Y019259D01*
X007308Y019389D02*
X007308Y019535D01*
X007198Y019665D02*
X007271Y019738D01*
X007198Y019811D01*
X007418Y019811D01*
X007382Y019941D02*
X007235Y019941D01*
X007198Y019978D01*
X007198Y020051D01*
X007235Y020088D01*
X007382Y020088D01*
X007418Y020051D01*
X007418Y019978D01*
X007382Y019941D01*
X007198Y020217D02*
X007198Y020364D01*
X007198Y020291D02*
X007418Y020291D01*
X007382Y020493D02*
X007235Y020493D01*
X007198Y020530D01*
X007198Y020603D01*
X007235Y020640D01*
X007382Y020640D01*
X007418Y020603D01*
X007418Y020530D01*
X007382Y020493D01*
X007418Y020770D02*
X007198Y020770D01*
X007198Y020880D01*
X007235Y020916D01*
X007308Y020916D01*
X007345Y020880D01*
X007345Y020770D01*
X007345Y020843D02*
X007418Y020916D01*
X007418Y019665D02*
X007198Y019665D01*
X005558Y018572D02*
X005558Y017572D01*
X005058Y017672D02*
X005058Y017722D01*
X005058Y017672D02*
X005058Y014522D01*
X005059Y014522D02*
X005062Y014485D01*
X005063Y014448D01*
X005059Y014410D01*
X005052Y014373D01*
X005042Y014337D01*
X005028Y014302D01*
X005011Y014269D01*
X004991Y014237D01*
X004968Y014208D01*
X004942Y014180D01*
X004914Y014156D01*
X004884Y014134D01*
X004851Y014115D01*
X004817Y014099D01*
X004782Y014087D01*
X004745Y014077D01*
X004708Y014072D01*
X003758Y014072D01*
X003358Y014072D01*
X003358Y018072D01*
X003758Y018072D01*
X003758Y014072D01*
X003935Y014212D02*
X003898Y014249D01*
X003898Y014396D01*
X003935Y014432D01*
X004008Y014432D01*
X004045Y014396D01*
X004045Y014249D01*
X004008Y014212D01*
X003935Y014212D01*
X003972Y014286D02*
X004045Y014212D01*
X004174Y014212D02*
X004321Y014212D01*
X004248Y014212D02*
X004248Y014432D01*
X004174Y014359D01*
X003369Y013846D02*
X003332Y013882D01*
X003222Y013882D01*
X003222Y013662D01*
X003332Y013662D01*
X003369Y013699D01*
X003369Y013846D01*
X003358Y013572D02*
X003758Y013572D01*
X003758Y009572D01*
X003358Y009572D01*
X003358Y013572D01*
X003092Y013662D02*
X002946Y013662D01*
X002946Y013882D01*
X003092Y013882D01*
X003019Y013772D02*
X002946Y013772D01*
X002816Y013736D02*
X002816Y013699D01*
X002780Y013662D01*
X002669Y013662D01*
X002669Y013882D01*
X002780Y013882D01*
X002816Y013846D01*
X002816Y013809D01*
X002780Y013772D01*
X002669Y013772D01*
X002780Y013772D02*
X002816Y013736D01*
X003058Y013572D02*
X003058Y013072D01*
X002558Y013072D01*
X002558Y010072D01*
X003058Y010072D01*
X003058Y009572D01*
X001258Y009572D01*
X001258Y013572D01*
X003058Y013572D01*
X002540Y013882D02*
X002393Y013662D01*
X002264Y013662D02*
X002117Y013662D01*
X002264Y013809D01*
X002264Y013846D01*
X002227Y013882D01*
X002154Y013882D01*
X002117Y013846D01*
X001988Y013846D02*
X001988Y013772D01*
X001951Y013736D01*
X001841Y013736D01*
X001914Y013736D02*
X001988Y013662D01*
X001841Y013662D02*
X001841Y013882D01*
X001951Y013882D01*
X001988Y013846D01*
X001711Y013882D02*
X001711Y013662D01*
X001638Y013736D01*
X001565Y013662D01*
X001565Y013882D01*
X001435Y013846D02*
X001435Y013772D01*
X001398Y013736D01*
X001288Y013736D01*
X001288Y013662D02*
X001288Y013882D01*
X001398Y013882D01*
X001435Y013846D01*
X001258Y014072D02*
X001258Y018072D01*
X003058Y018072D01*
X003058Y017572D01*
X002558Y017572D01*
X002558Y014572D01*
X003058Y014572D01*
X003058Y014072D01*
X001258Y014072D01*
X002808Y014707D02*
X002808Y014854D01*
X002735Y014781D02*
X002882Y014781D01*
X002918Y014984D02*
X002918Y015130D01*
X002918Y015057D02*
X002698Y015057D01*
X002771Y014984D01*
X003058Y014572D02*
X003058Y017572D01*
X002845Y017183D02*
X002698Y017183D01*
X002845Y017183D02*
X002918Y017109D01*
X002845Y017036D01*
X002698Y017036D01*
X002808Y016907D02*
X002808Y016760D01*
X002845Y015683D02*
X002698Y015683D01*
X002845Y015683D02*
X002918Y015609D01*
X002845Y015536D01*
X002698Y015536D01*
X002735Y015407D02*
X002698Y015370D01*
X002698Y015296D01*
X002735Y015260D01*
X002735Y015407D02*
X002771Y015407D01*
X002918Y015260D01*
X002918Y015407D01*
X003758Y013572D02*
X004708Y013572D01*
X004709Y013573D02*
X004743Y013572D01*
X004778Y013568D01*
X004811Y013560D01*
X004844Y013549D01*
X004875Y013534D01*
X004905Y013517D01*
X004933Y013496D01*
X004959Y013473D01*
X004982Y013447D01*
X005003Y013419D01*
X005020Y013389D01*
X005035Y013358D01*
X005046Y013325D01*
X005054Y013292D01*
X005058Y013257D01*
X005059Y013223D01*
X005058Y013222D02*
X005058Y010072D01*
X005058Y009922D01*
X005059Y009922D02*
X005058Y009888D01*
X005054Y009853D01*
X005046Y009820D01*
X005035Y009787D01*
X005020Y009756D01*
X005003Y009726D01*
X004982Y009698D01*
X004959Y009672D01*
X004933Y009649D01*
X004905Y009628D01*
X004875Y009611D01*
X004844Y009596D01*
X004811Y009585D01*
X004778Y009577D01*
X004743Y009573D01*
X004709Y009572D01*
X004708Y009572D02*
X003758Y009572D01*
X003935Y009712D02*
X003898Y009749D01*
X003898Y009896D01*
X003935Y009932D01*
X004008Y009932D01*
X004045Y009896D01*
X004045Y009749D01*
X004008Y009712D01*
X003935Y009712D01*
X003972Y009786D02*
X004045Y009712D01*
X004174Y009712D02*
X004321Y009859D01*
X004321Y009896D01*
X004285Y009932D01*
X004211Y009932D01*
X004174Y009896D01*
X004174Y009712D02*
X004321Y009712D01*
X004830Y009423D02*
X001258Y009422D01*
X001258Y005722D01*
X001759Y005722D01*
X002192Y005722D02*
X004830Y005722D01*
X004830Y009423D01*
X004497Y009132D02*
X004497Y008986D01*
X004424Y008912D01*
X004351Y008986D01*
X004351Y009132D01*
X004221Y009096D02*
X004185Y009132D01*
X004111Y009132D01*
X004074Y009096D01*
X004221Y009096D02*
X004221Y009059D01*
X004074Y008912D01*
X004221Y008912D01*
X003945Y008912D02*
X003798Y008912D01*
X003872Y008912D02*
X003872Y009132D01*
X003798Y009059D01*
X004869Y008399D02*
X005539Y008399D01*
X005539Y006746D01*
X004869Y006746D01*
X002347Y008949D02*
X002347Y009096D01*
X002311Y009132D01*
X002201Y009132D01*
X002201Y008912D01*
X002311Y008912D01*
X002347Y008949D01*
X002071Y008912D02*
X002071Y009132D01*
X001924Y009132D02*
X001924Y008912D01*
X001795Y008949D02*
X001795Y009022D01*
X001722Y009022D01*
X001795Y008949D02*
X001758Y008912D01*
X001685Y008912D01*
X001648Y008949D01*
X001648Y009096D01*
X001685Y009132D01*
X001758Y009132D01*
X001795Y009096D01*
X001924Y009132D02*
X002071Y008912D01*
X002808Y010207D02*
X002808Y010354D01*
X002735Y010281D02*
X002882Y010281D01*
X002918Y010484D02*
X002918Y010630D01*
X002918Y010557D02*
X002698Y010557D01*
X002771Y010484D01*
X003058Y010072D02*
X003058Y013072D01*
X002845Y012683D02*
X002698Y012683D01*
X002845Y012683D02*
X002918Y012609D01*
X002845Y012536D01*
X002698Y012536D01*
X002808Y012407D02*
X002808Y012260D01*
X002845Y011183D02*
X002698Y011183D01*
X002845Y011183D02*
X002918Y011109D01*
X002845Y011036D01*
X002698Y011036D01*
X002735Y010907D02*
X002698Y010870D01*
X002698Y010796D01*
X002735Y010760D01*
X002735Y010907D02*
X002771Y010907D01*
X002918Y010760D01*
X002918Y010907D01*
X005558Y012572D02*
X013558Y012572D01*
X013622Y012182D02*
X013769Y012182D01*
X013769Y012146D01*
X013622Y011999D01*
X013622Y011962D01*
X013493Y011962D02*
X013419Y012036D01*
X013456Y012036D02*
X013346Y012036D01*
X013346Y011962D02*
X013346Y012182D01*
X013456Y012182D01*
X013493Y012146D01*
X013493Y012072D01*
X013456Y012036D01*
X012558Y012072D02*
X012558Y011772D01*
X014558Y011772D01*
X014558Y012072D01*
X014658Y012072D01*
X014558Y012072D02*
X014558Y012372D01*
X012558Y012372D01*
X012558Y012072D01*
X012458Y012072D01*
X011508Y012572D02*
X011508Y011572D01*
X009508Y011572D01*
X009508Y012572D01*
X011508Y012572D01*
X010508Y012322D02*
X010508Y011822D01*
X010609Y011482D02*
X010682Y011482D01*
X010719Y011446D01*
X010719Y011409D01*
X010682Y011372D01*
X010609Y011372D01*
X010572Y011409D01*
X010572Y011446D01*
X010609Y011482D01*
X010609Y011372D02*
X010572Y011336D01*
X010572Y011299D01*
X010609Y011262D01*
X010682Y011262D01*
X010719Y011299D01*
X010719Y011336D01*
X010682Y011372D01*
X010443Y011299D02*
X010406Y011262D01*
X010333Y011262D01*
X010296Y011299D01*
X010296Y011446D01*
X010333Y011482D01*
X010406Y011482D01*
X010443Y011446D01*
X008658Y012072D02*
X008558Y012072D01*
X008558Y011772D01*
X006558Y011772D01*
X006558Y012072D01*
X006458Y012072D01*
X006558Y012072D02*
X006558Y012372D01*
X008558Y012372D01*
X008558Y012072D01*
X007771Y012036D02*
X007735Y012072D01*
X007624Y012072D01*
X007624Y011999D01*
X007661Y011962D01*
X007735Y011962D01*
X007771Y011999D01*
X007771Y012036D01*
X007698Y012146D02*
X007624Y012072D01*
X007698Y012146D02*
X007771Y012182D01*
X007495Y012146D02*
X007495Y012072D01*
X007458Y012036D01*
X007348Y012036D01*
X007422Y012036D02*
X007495Y011962D01*
X007348Y011962D02*
X007348Y012182D01*
X007458Y012182D01*
X007495Y012146D01*
X005558Y012572D02*
X005558Y013572D01*
X006248Y013762D02*
X006321Y013836D01*
X006248Y013909D01*
X006468Y013909D01*
X006558Y013822D02*
X006808Y013572D01*
X007308Y013572D01*
X007558Y013822D01*
X007808Y013572D01*
X008308Y013572D01*
X008558Y013822D01*
X008558Y014322D01*
X008308Y014572D01*
X007808Y014572D01*
X007558Y014322D01*
X007308Y014572D01*
X006808Y014572D01*
X006558Y014322D01*
X006558Y013822D01*
X006468Y013762D02*
X006248Y013762D01*
X006285Y014039D02*
X006321Y014039D01*
X006358Y014075D01*
X006358Y014149D01*
X006395Y014185D01*
X006432Y014185D01*
X006468Y014149D01*
X006468Y014075D01*
X006432Y014039D01*
X006285Y014039D02*
X006248Y014075D01*
X006248Y014149D01*
X006285Y014185D01*
X006321Y014315D02*
X006248Y014388D01*
X006468Y014388D01*
X006468Y014315D02*
X006468Y014461D01*
X007498Y014902D02*
X007498Y015012D01*
X007535Y015049D01*
X007608Y015049D01*
X007645Y015012D01*
X007645Y014902D01*
X007718Y014902D02*
X007498Y014902D01*
X007535Y015179D02*
X007682Y015179D01*
X007718Y015215D01*
X007718Y015289D01*
X007682Y015325D01*
X007535Y015325D01*
X007498Y015289D01*
X007498Y015215D01*
X007535Y015179D01*
X007498Y015455D02*
X007718Y015455D01*
X007718Y015602D01*
X007682Y015731D02*
X007718Y015768D01*
X007718Y015841D01*
X007682Y015878D01*
X007535Y015878D01*
X007498Y015841D01*
X007498Y015768D01*
X007535Y015731D01*
X007682Y015731D01*
X007718Y016007D02*
X007718Y016154D01*
X007682Y016284D02*
X007718Y016320D01*
X007718Y016394D01*
X007682Y016430D01*
X007498Y016430D01*
X007498Y016284D02*
X007682Y016284D01*
X007608Y016560D02*
X007608Y016706D01*
X007498Y016836D02*
X007718Y016983D01*
X007718Y016836D02*
X007498Y016983D01*
X006842Y016332D02*
X006842Y016112D01*
X006915Y016112D02*
X006768Y016112D01*
X006639Y016149D02*
X006602Y016112D01*
X006529Y016112D01*
X006492Y016149D01*
X006492Y016296D01*
X006529Y016332D01*
X006602Y016332D01*
X006639Y016296D01*
X006768Y016259D02*
X006842Y016332D01*
X007498Y016007D02*
X007718Y016007D01*
X006565Y015822D02*
X006565Y015322D01*
X008748Y014425D02*
X008748Y014351D01*
X008785Y014315D01*
X008748Y014425D02*
X008785Y014461D01*
X008821Y014461D01*
X008968Y014315D01*
X008968Y014461D01*
X009058Y014322D02*
X009308Y014572D01*
X009808Y014572D01*
X010058Y014322D01*
X010308Y014572D01*
X010808Y014572D01*
X011058Y014322D01*
X011058Y013822D01*
X010808Y013572D01*
X010308Y013572D01*
X010058Y013822D01*
X009808Y013572D01*
X009308Y013572D01*
X009058Y013822D01*
X009058Y014322D01*
X008932Y014185D02*
X008968Y014149D01*
X008968Y014075D01*
X008932Y014039D01*
X008858Y014075D02*
X008858Y014149D01*
X008895Y014185D01*
X008932Y014185D01*
X008858Y014075D02*
X008821Y014039D01*
X008785Y014039D01*
X008748Y014075D01*
X008748Y014149D01*
X008785Y014185D01*
X008748Y013909D02*
X008968Y013909D01*
X008968Y013762D02*
X008748Y013762D01*
X008821Y013836D01*
X008748Y013909D01*
X010558Y014772D02*
X010558Y015072D01*
X010458Y015072D01*
X010558Y015072D02*
X010558Y015372D01*
X012558Y015372D01*
X012558Y015072D01*
X012658Y015072D01*
X012558Y015072D02*
X012558Y014772D01*
X010558Y014772D01*
X011248Y014425D02*
X011285Y014461D01*
X011321Y014461D01*
X011358Y014425D01*
X011395Y014461D01*
X011432Y014461D01*
X011468Y014425D01*
X011468Y014351D01*
X011432Y014315D01*
X011358Y014388D02*
X011358Y014425D01*
X011248Y014425D02*
X011248Y014351D01*
X011285Y014315D01*
X011285Y014185D02*
X011248Y014149D01*
X011248Y014075D01*
X011285Y014039D01*
X011321Y014039D01*
X011358Y014075D01*
X011358Y014149D01*
X011395Y014185D01*
X011432Y014185D01*
X011468Y014149D01*
X011468Y014075D01*
X011432Y014039D01*
X011468Y013909D02*
X011248Y013909D01*
X011321Y013836D01*
X011248Y013762D01*
X011468Y013762D01*
X011558Y013822D02*
X011808Y013572D01*
X012308Y013572D01*
X012558Y013822D01*
X012808Y013572D01*
X013308Y013572D01*
X013558Y013822D01*
X013558Y014322D01*
X013308Y014572D01*
X012808Y014572D01*
X012558Y014322D01*
X012308Y014572D01*
X011808Y014572D01*
X011558Y014322D01*
X011558Y013822D01*
X011495Y014962D02*
X011422Y015036D01*
X011458Y015036D02*
X011348Y015036D01*
X011348Y014962D02*
X011348Y015182D01*
X011458Y015182D01*
X011495Y015146D01*
X011495Y015072D01*
X011458Y015036D01*
X011624Y014962D02*
X011771Y015109D01*
X011771Y015146D01*
X011735Y015182D01*
X011661Y015182D01*
X011624Y015146D01*
X011624Y014962D02*
X011771Y014962D01*
X014248Y014388D02*
X014468Y014388D01*
X014468Y014315D02*
X014468Y014461D01*
X014558Y014322D02*
X014808Y014572D01*
X015308Y014572D01*
X015558Y014322D01*
X015808Y014572D01*
X016308Y014572D01*
X016558Y014322D01*
X016558Y013822D01*
X016308Y013572D01*
X015808Y013572D01*
X015558Y013822D01*
X015308Y013572D01*
X014808Y013572D01*
X014558Y013822D01*
X014558Y014322D01*
X014432Y014185D02*
X014468Y014149D01*
X014468Y014075D01*
X014432Y014039D01*
X014358Y014075D02*
X014358Y014149D01*
X014395Y014185D01*
X014432Y014185D01*
X014358Y014075D02*
X014321Y014039D01*
X014285Y014039D01*
X014248Y014075D01*
X014248Y014149D01*
X014285Y014185D01*
X014321Y014315D02*
X014248Y014388D01*
X014248Y013909D02*
X014468Y013909D01*
X014468Y013762D02*
X014248Y013762D01*
X014321Y013836D01*
X014248Y013909D01*
X015498Y014902D02*
X015498Y015012D01*
X015535Y015049D01*
X015608Y015049D01*
X015645Y015012D01*
X015645Y014902D01*
X015718Y014902D02*
X015498Y014902D01*
X015535Y015179D02*
X015682Y015179D01*
X015718Y015215D01*
X015718Y015289D01*
X015682Y015325D01*
X015535Y015325D01*
X015498Y015289D01*
X015498Y015215D01*
X015535Y015179D01*
X015498Y015455D02*
X015718Y015455D01*
X015718Y015602D01*
X015682Y015731D02*
X015535Y015731D01*
X015498Y015768D01*
X015498Y015841D01*
X015535Y015878D01*
X015682Y015878D01*
X015718Y015841D01*
X015718Y015768D01*
X015682Y015731D01*
X015718Y016007D02*
X015498Y016007D01*
X015718Y016007D02*
X015718Y016154D01*
X015682Y016284D02*
X015498Y016284D01*
X015498Y016430D02*
X015682Y016430D01*
X015718Y016394D01*
X015718Y016320D01*
X015682Y016284D01*
X015608Y016560D02*
X015608Y016706D01*
X015535Y016836D02*
X015608Y016909D01*
X015718Y016909D01*
X015608Y016909D02*
X015535Y016983D01*
X015498Y016983D01*
X015498Y016836D02*
X015535Y016836D01*
X014915Y016296D02*
X014878Y016332D01*
X014805Y016332D01*
X014768Y016296D01*
X014639Y016296D02*
X014602Y016332D01*
X014529Y016332D01*
X014492Y016296D01*
X014492Y016149D01*
X014529Y016112D01*
X014602Y016112D01*
X014639Y016149D01*
X014768Y016112D02*
X014915Y016259D01*
X014915Y016296D01*
X014915Y016112D02*
X014768Y016112D01*
X014558Y015822D02*
X014558Y015322D01*
X016748Y014425D02*
X016748Y014351D01*
X016785Y014315D01*
X016748Y014425D02*
X016785Y014461D01*
X016821Y014461D01*
X016968Y014315D01*
X016968Y014461D01*
X017058Y014322D02*
X017308Y014572D01*
X017808Y014572D01*
X018058Y014322D01*
X018308Y014572D01*
X018808Y014572D01*
X019058Y014322D01*
X019058Y013822D01*
X018808Y013572D01*
X018308Y013572D01*
X018058Y013822D01*
X017808Y013572D01*
X017308Y013572D01*
X017058Y013822D01*
X017058Y014322D01*
X016932Y014185D02*
X016968Y014149D01*
X016968Y014075D01*
X016932Y014039D01*
X016858Y014075D02*
X016858Y014149D01*
X016895Y014185D01*
X016932Y014185D01*
X016858Y014075D02*
X016821Y014039D01*
X016785Y014039D01*
X016748Y014075D01*
X016748Y014149D01*
X016785Y014185D01*
X016748Y013909D02*
X016968Y013909D01*
X016968Y013762D02*
X016748Y013762D01*
X016821Y013836D01*
X016748Y013909D01*
X018558Y014772D02*
X018558Y015072D01*
X018458Y015072D01*
X018558Y015072D02*
X018558Y015372D01*
X020558Y015372D01*
X020558Y015072D01*
X020658Y015072D01*
X020558Y015072D02*
X020558Y014772D01*
X018558Y014772D01*
X019248Y014425D02*
X019285Y014461D01*
X019321Y014461D01*
X019358Y014425D01*
X019395Y014461D01*
X019432Y014461D01*
X019468Y014425D01*
X019468Y014351D01*
X019432Y014315D01*
X019358Y014388D02*
X019358Y014425D01*
X019248Y014425D02*
X019248Y014351D01*
X019285Y014315D01*
X019285Y014185D02*
X019248Y014149D01*
X019248Y014075D01*
X019285Y014039D01*
X019321Y014039D01*
X019358Y014075D01*
X019358Y014149D01*
X019395Y014185D01*
X019432Y014185D01*
X019468Y014149D01*
X019468Y014075D01*
X019432Y014039D01*
X019468Y013909D02*
X019248Y013909D01*
X019321Y013836D01*
X019248Y013762D01*
X019468Y013762D01*
X019558Y013822D02*
X019808Y013572D01*
X020308Y013572D01*
X020558Y013822D01*
X020808Y013572D01*
X021308Y013572D01*
X021558Y013822D01*
X021558Y014322D01*
X021308Y014572D01*
X020808Y014572D01*
X020558Y014322D01*
X020308Y014572D01*
X019808Y014572D01*
X019558Y014322D01*
X019558Y013822D01*
X019495Y014962D02*
X019422Y015036D01*
X019458Y015036D02*
X019348Y015036D01*
X019348Y014962D02*
X019348Y015182D01*
X019458Y015182D01*
X019495Y015146D01*
X019495Y015072D01*
X019458Y015036D01*
X019624Y014999D02*
X019661Y014962D01*
X019735Y014962D01*
X019771Y014999D01*
X019771Y015036D01*
X019735Y015072D01*
X019698Y015072D01*
X019735Y015072D02*
X019771Y015109D01*
X019771Y015146D01*
X019735Y015182D01*
X019661Y015182D01*
X019624Y015146D01*
X022248Y014388D02*
X022321Y014315D01*
X022248Y014388D02*
X022468Y014388D01*
X022468Y014315D02*
X022468Y014461D01*
X022432Y014185D02*
X022468Y014149D01*
X022468Y014075D01*
X022432Y014039D01*
X022358Y014075D02*
X022358Y014149D01*
X022395Y014185D01*
X022432Y014185D01*
X022358Y014075D02*
X022321Y014039D01*
X022285Y014039D01*
X022248Y014075D01*
X022248Y014149D01*
X022285Y014185D01*
X022248Y013909D02*
X022468Y013909D01*
X022468Y013762D02*
X022248Y013762D01*
X022321Y013836D01*
X022248Y013909D01*
X023498Y014902D02*
X023498Y015012D01*
X023535Y015049D01*
X023608Y015049D01*
X023645Y015012D01*
X023645Y014902D01*
X023718Y014902D02*
X023498Y014902D01*
X023535Y015179D02*
X023682Y015179D01*
X023718Y015215D01*
X023718Y015289D01*
X023682Y015325D01*
X023535Y015325D01*
X023498Y015289D01*
X023498Y015215D01*
X023535Y015179D01*
X023498Y015455D02*
X023718Y015455D01*
X023718Y015602D01*
X023682Y015731D02*
X023718Y015768D01*
X023718Y015841D01*
X023682Y015878D01*
X023535Y015878D01*
X023498Y015841D01*
X023498Y015768D01*
X023535Y015731D01*
X023682Y015731D01*
X023718Y016007D02*
X023718Y016154D01*
X023682Y016284D02*
X023718Y016320D01*
X023718Y016394D01*
X023682Y016430D01*
X023498Y016430D01*
X023498Y016284D02*
X023682Y016284D01*
X023608Y016560D02*
X023608Y016706D01*
X023682Y016836D02*
X023718Y016836D01*
X023718Y016983D01*
X023682Y016836D02*
X023535Y016983D01*
X023498Y016983D01*
X023498Y016836D01*
X022915Y016296D02*
X022878Y016332D01*
X022805Y016332D01*
X022768Y016296D01*
X022842Y016222D02*
X022878Y016222D01*
X022915Y016186D01*
X022915Y016149D01*
X022878Y016112D01*
X022805Y016112D01*
X022768Y016149D01*
X022639Y016149D02*
X022602Y016112D01*
X022529Y016112D01*
X022492Y016149D01*
X022492Y016296D01*
X022529Y016332D01*
X022602Y016332D01*
X022639Y016296D01*
X022878Y016222D02*
X022915Y016259D01*
X022915Y016296D01*
X023498Y016007D02*
X023718Y016007D01*
X022558Y015822D02*
X022558Y015322D01*
X021558Y012572D02*
X019558Y012572D01*
X018558Y012372D02*
X018558Y012072D01*
X018658Y012072D01*
X018558Y012072D02*
X018558Y011772D01*
X016558Y011772D01*
X016558Y012072D01*
X016458Y012072D01*
X016558Y012072D02*
X016558Y012372D01*
X018558Y012372D01*
X017771Y012146D02*
X017771Y012109D01*
X017735Y012072D01*
X017661Y012072D01*
X017624Y012109D01*
X017624Y012146D01*
X017661Y012182D01*
X017735Y012182D01*
X017771Y012146D01*
X017735Y012072D02*
X017771Y012036D01*
X017771Y011999D01*
X017735Y011962D01*
X017661Y011962D01*
X017624Y011999D01*
X017624Y012036D01*
X017661Y012072D01*
X017495Y012072D02*
X017458Y012036D01*
X017348Y012036D01*
X017422Y012036D02*
X017495Y011962D01*
X017495Y012072D02*
X017495Y012146D01*
X017458Y012182D01*
X017348Y012182D01*
X017348Y011962D01*
X019558Y011572D02*
X021558Y011572D01*
X021558Y012572D01*
X021648Y012283D02*
X021685Y012283D01*
X021832Y012136D01*
X021868Y012136D01*
X021832Y012007D02*
X021868Y011970D01*
X021868Y011897D01*
X021832Y011860D01*
X021685Y011860D01*
X021648Y011897D01*
X021648Y011970D01*
X021685Y012007D01*
X021648Y012136D02*
X021648Y012283D01*
X020558Y012322D02*
X020558Y011822D01*
X028470Y008182D02*
X028470Y007962D01*
X028543Y008036D02*
X028616Y007962D01*
X028746Y007962D02*
X028893Y007962D01*
X028819Y007962D02*
X028819Y008182D01*
X028746Y008109D01*
X029022Y008146D02*
X029059Y008182D01*
X029132Y008182D01*
X029169Y008146D01*
X029169Y008109D01*
X029022Y007962D01*
X029169Y007962D01*
X033598Y008744D02*
X033708Y008634D01*
X033708Y008780D01*
X033818Y008744D02*
X033598Y008744D01*
X033708Y008910D02*
X033708Y009056D01*
X033598Y009020D02*
X033708Y008910D01*
X033818Y009020D02*
X033598Y009020D01*
X033598Y009186D02*
X033598Y009296D01*
X033635Y009333D01*
X033708Y009333D01*
X033745Y009296D01*
X033745Y009186D01*
X033818Y009186D02*
X033598Y009186D01*
X034858Y008872D02*
X034958Y008872D01*
X034958Y009172D01*
X036958Y009172D01*
X036958Y008872D01*
X037058Y008872D01*
X036958Y008872D02*
X036958Y008572D01*
X034958Y008572D01*
X034958Y008872D01*
X035620Y008836D02*
X035730Y008836D01*
X035766Y008872D01*
X035766Y008946D01*
X035730Y008982D01*
X035620Y008982D01*
X035620Y008762D01*
X035693Y008836D02*
X035766Y008762D01*
X035896Y008762D02*
X036043Y008762D01*
X035969Y008762D02*
X035969Y008982D01*
X035896Y008909D01*
X036172Y008946D02*
X036209Y008982D01*
X036282Y008982D01*
X036319Y008946D01*
X036172Y008799D01*
X036209Y008762D01*
X036282Y008762D01*
X036319Y008799D01*
X036319Y008946D01*
X036172Y008946D02*
X036172Y008799D01*
X038042Y008864D02*
X038042Y008717D01*
X038262Y008717D01*
X038262Y008864D01*
X038262Y008993D02*
X038042Y008993D01*
X038042Y009103D01*
X038079Y009140D01*
X038152Y009140D01*
X038189Y009103D01*
X038189Y008993D01*
X038189Y009067D02*
X038262Y009140D01*
X038262Y009270D02*
X038042Y009270D01*
X038115Y009343D01*
X038042Y009416D01*
X038262Y009416D01*
X038452Y009322D02*
X038702Y009572D01*
X039202Y009572D01*
X039452Y009322D01*
X039452Y008822D01*
X039202Y008572D01*
X039452Y008322D01*
X039452Y007822D01*
X039202Y007572D01*
X038702Y007572D01*
X038452Y007822D01*
X038452Y008322D01*
X038702Y008572D01*
X038452Y008822D01*
X038452Y009322D01*
X038152Y008791D02*
X038152Y008717D01*
X038152Y008588D02*
X038152Y008441D01*
X038262Y008441D02*
X038042Y008441D01*
X038042Y008311D02*
X038042Y008165D01*
X038042Y008238D02*
X038262Y008238D01*
X038152Y008035D02*
X038152Y007889D01*
X038262Y007759D02*
X038262Y007612D01*
X038042Y007612D01*
X038042Y007759D01*
X038152Y007686D02*
X038152Y007612D01*
X037065Y006871D02*
X037065Y006079D01*
X038042Y006103D02*
X038042Y005993D01*
X038262Y005993D01*
X038189Y005993D02*
X038189Y006103D01*
X038152Y006140D01*
X038079Y006140D01*
X038042Y006103D01*
X038189Y006067D02*
X038262Y006140D01*
X038262Y006270D02*
X038042Y006270D01*
X038115Y006343D01*
X038042Y006416D01*
X038262Y006416D01*
X038452Y006322D02*
X038702Y006572D01*
X039202Y006572D01*
X039452Y006322D01*
X039452Y005822D01*
X039202Y005572D01*
X039452Y005322D01*
X039452Y004822D01*
X039202Y004572D01*
X038702Y004572D01*
X038452Y004822D01*
X038452Y005322D01*
X038702Y005572D01*
X038452Y005822D01*
X038452Y006322D01*
X038262Y005864D02*
X038262Y005717D01*
X038042Y005717D01*
X038042Y005864D01*
X038152Y005791D02*
X038152Y005717D01*
X038152Y005588D02*
X038152Y005441D01*
X038262Y005441D02*
X038042Y005441D01*
X038042Y005311D02*
X038042Y005165D01*
X038042Y005238D02*
X038262Y005238D01*
X038152Y005035D02*
X038152Y004889D01*
X038189Y004759D02*
X038225Y004759D01*
X038262Y004722D01*
X038262Y004612D01*
X038042Y004612D01*
X038042Y004722D01*
X038079Y004759D01*
X038115Y004759D01*
X038152Y004722D01*
X038152Y004612D01*
X038152Y004722D02*
X038189Y004759D01*
X037531Y004354D02*
X037503Y004382D01*
X037446Y004382D01*
X037418Y004354D01*
X037418Y004241D01*
X037446Y004212D01*
X037503Y004212D01*
X037531Y004241D01*
X037531Y004354D01*
X037301Y004354D02*
X037273Y004382D01*
X037216Y004382D01*
X037188Y004354D01*
X037188Y004326D01*
X037216Y004297D01*
X037273Y004297D01*
X037301Y004269D01*
X037301Y004241D01*
X037273Y004212D01*
X037216Y004212D01*
X037188Y004241D01*
X037091Y004212D02*
X037034Y004212D01*
X037063Y004212D02*
X037063Y004382D01*
X037091Y004382D02*
X037034Y004382D01*
X036918Y004382D02*
X036918Y004212D01*
X036804Y004212D02*
X036804Y004382D01*
X036861Y004326D01*
X036918Y004382D01*
X036808Y004072D02*
X037558Y004072D01*
X037558Y003822D01*
X037308Y004072D01*
X037558Y003822D02*
X037558Y002322D01*
X037308Y002072D01*
X036808Y002072D01*
X036558Y002322D01*
X036558Y003822D01*
X036308Y004072D01*
X035808Y004072D01*
X035558Y003822D01*
X035558Y002322D01*
X035308Y002072D01*
X034808Y002072D01*
X034558Y002322D01*
X034558Y003822D01*
X034808Y004072D01*
X035308Y004072D01*
X035558Y003822D01*
X035475Y004212D02*
X035475Y004382D01*
X035531Y004382D02*
X035418Y004382D01*
X035301Y004382D02*
X035188Y004382D01*
X035188Y004212D01*
X035301Y004212D01*
X035244Y004297D02*
X035188Y004297D01*
X035071Y004269D02*
X035043Y004297D01*
X034986Y004297D01*
X034958Y004326D01*
X034958Y004354D01*
X034986Y004382D01*
X035043Y004382D01*
X035071Y004354D01*
X035071Y004269D02*
X035071Y004241D01*
X035043Y004212D01*
X034986Y004212D01*
X034958Y004241D01*
X034841Y004212D02*
X034727Y004212D01*
X034727Y004382D01*
X034841Y004382D01*
X034784Y004297D02*
X034727Y004297D01*
X034611Y004297D02*
X034582Y004269D01*
X034497Y004269D01*
X034497Y004212D02*
X034497Y004382D01*
X034582Y004382D01*
X034611Y004354D01*
X034611Y004297D01*
X034554Y004269D02*
X034611Y004212D01*
X034457Y004542D02*
X035608Y004542D01*
X035786Y004382D02*
X035758Y004354D01*
X035758Y004326D01*
X035786Y004297D01*
X035843Y004297D01*
X035871Y004269D01*
X035871Y004241D01*
X035843Y004212D01*
X035786Y004212D01*
X035758Y004241D01*
X035786Y004382D02*
X035843Y004382D01*
X035871Y004354D01*
X035988Y004354D02*
X035988Y004241D01*
X036016Y004212D01*
X036073Y004212D01*
X036101Y004241D01*
X036101Y004354D02*
X036073Y004382D01*
X036016Y004382D01*
X035988Y004354D01*
X036218Y004382D02*
X036218Y004212D01*
X036218Y004269D02*
X036331Y004382D01*
X036246Y004297D02*
X036331Y004212D01*
X036558Y003822D02*
X036808Y004072D01*
X036715Y005279D02*
X035015Y005279D01*
X033381Y004512D02*
X033268Y004512D01*
X033268Y004682D01*
X033151Y004654D02*
X033123Y004682D01*
X033066Y004682D01*
X033038Y004654D01*
X033038Y004541D01*
X033066Y004512D01*
X033123Y004512D01*
X033151Y004541D01*
X033095Y004382D02*
X033095Y004212D01*
X033151Y004212D02*
X033038Y004212D01*
X033038Y004326D02*
X033095Y004382D01*
X032921Y004354D02*
X032893Y004382D01*
X032808Y004382D01*
X032808Y004212D01*
X032893Y004212D01*
X032921Y004241D01*
X032921Y004354D01*
X032893Y004512D02*
X032836Y004512D01*
X032808Y004541D01*
X032836Y004597D02*
X032893Y004597D01*
X032921Y004569D01*
X032921Y004541D01*
X032893Y004512D01*
X032836Y004597D02*
X032808Y004626D01*
X032808Y004654D01*
X032836Y004682D01*
X032893Y004682D01*
X032921Y004654D01*
X033268Y004297D02*
X033353Y004297D01*
X033381Y004269D01*
X033381Y004241D01*
X033353Y004212D01*
X033296Y004212D01*
X033268Y004241D01*
X033268Y004297D01*
X033325Y004354D01*
X033381Y004382D01*
X033308Y004072D02*
X032808Y004072D01*
X032558Y003822D01*
X032558Y002322D01*
X032308Y002072D01*
X031808Y002072D01*
X031558Y002322D01*
X031558Y003822D01*
X031808Y004072D01*
X032308Y004072D01*
X032558Y003822D01*
X032268Y004212D02*
X032268Y004241D01*
X032381Y004354D01*
X032381Y004382D01*
X032268Y004382D01*
X032268Y004512D02*
X032268Y004626D01*
X032325Y004682D01*
X032381Y004626D01*
X032381Y004512D01*
X032381Y004597D02*
X032268Y004597D01*
X032151Y004541D02*
X032151Y004654D01*
X032123Y004682D01*
X032038Y004682D01*
X032038Y004512D01*
X032123Y004512D01*
X032151Y004541D01*
X032095Y004382D02*
X032095Y004212D01*
X032151Y004212D02*
X032038Y004212D01*
X032038Y004326D02*
X032095Y004382D01*
X031921Y004354D02*
X031893Y004382D01*
X031808Y004382D01*
X031808Y004212D01*
X031893Y004212D01*
X031921Y004241D01*
X031921Y004354D01*
X031893Y004512D02*
X031836Y004512D01*
X031808Y004541D01*
X031836Y004597D02*
X031893Y004597D01*
X031921Y004569D01*
X031921Y004541D01*
X031893Y004512D01*
X031836Y004597D02*
X031808Y004626D01*
X031808Y004654D01*
X031836Y004682D01*
X031893Y004682D01*
X031921Y004654D01*
X031381Y004512D02*
X031268Y004512D01*
X031325Y004512D02*
X031325Y004682D01*
X031268Y004626D01*
X031151Y004682D02*
X031038Y004512D01*
X031151Y004512D02*
X031038Y004682D01*
X030921Y004654D02*
X030921Y004597D01*
X030893Y004569D01*
X030808Y004569D01*
X030864Y004569D02*
X030921Y004512D01*
X030808Y004512D02*
X030808Y004682D01*
X030893Y004682D01*
X030921Y004654D01*
X030893Y004382D02*
X030808Y004382D01*
X030808Y004212D01*
X030893Y004212D01*
X030921Y004241D01*
X030921Y004354D01*
X030893Y004382D01*
X031038Y004326D02*
X031095Y004382D01*
X031095Y004212D01*
X031151Y004212D02*
X031038Y004212D01*
X031268Y004241D02*
X031381Y004354D01*
X031381Y004241D01*
X031353Y004212D01*
X031296Y004212D01*
X031268Y004241D01*
X031268Y004354D01*
X031296Y004382D01*
X031353Y004382D01*
X031381Y004354D01*
X031308Y004072D02*
X030808Y004072D01*
X030558Y003822D01*
X030558Y002322D01*
X030308Y002072D01*
X029808Y002072D01*
X029558Y002322D01*
X029558Y003822D01*
X029808Y004072D01*
X030308Y004072D01*
X030558Y003822D01*
X030381Y004212D02*
X030268Y004212D01*
X030325Y004212D02*
X030325Y004382D01*
X030268Y004326D01*
X030151Y004212D02*
X030038Y004212D01*
X030095Y004212D02*
X030095Y004382D01*
X030038Y004326D01*
X029921Y004354D02*
X029893Y004382D01*
X029808Y004382D01*
X029808Y004212D01*
X029893Y004212D01*
X029921Y004241D01*
X029921Y004354D01*
X029864Y004512D02*
X029864Y004682D01*
X029808Y004682D02*
X029921Y004682D01*
X030038Y004682D02*
X030151Y004512D01*
X030038Y004512D02*
X030151Y004682D01*
X030268Y004626D02*
X030325Y004682D01*
X030325Y004512D01*
X030381Y004512D02*
X030268Y004512D01*
X029381Y004512D02*
X029381Y004682D01*
X029325Y004626D01*
X029268Y004682D01*
X029268Y004512D01*
X029151Y004512D02*
X029151Y004682D01*
X029038Y004682D02*
X029038Y004512D01*
X029095Y004569D01*
X029151Y004512D01*
X029095Y004382D02*
X029038Y004326D01*
X029095Y004382D02*
X029095Y004212D01*
X029151Y004212D02*
X029038Y004212D01*
X028921Y004241D02*
X028921Y004354D01*
X028893Y004382D01*
X028808Y004382D01*
X028808Y004212D01*
X028893Y004212D01*
X028921Y004241D01*
X028808Y004072D02*
X029308Y004072D01*
X029558Y003822D01*
X029381Y004212D02*
X029268Y004212D01*
X029381Y004326D01*
X029381Y004354D01*
X029353Y004382D01*
X029296Y004382D01*
X029268Y004354D01*
X028921Y004597D02*
X028893Y004569D01*
X028808Y004569D01*
X028808Y004512D02*
X028808Y004682D01*
X028893Y004682D01*
X028921Y004654D01*
X028921Y004597D01*
X028808Y004072D02*
X028558Y003822D01*
X028558Y002322D01*
X028308Y002072D01*
X027808Y002072D01*
X027558Y002322D01*
X027558Y003822D01*
X027808Y004072D01*
X028308Y004072D01*
X028558Y003822D01*
X028125Y004212D02*
X028181Y004269D01*
X028181Y004382D01*
X028068Y004382D02*
X028068Y004269D01*
X028125Y004212D01*
X027951Y004241D02*
X027923Y004212D01*
X027866Y004212D01*
X027838Y004241D01*
X027838Y004297D02*
X027895Y004326D01*
X027923Y004326D01*
X027951Y004297D01*
X027951Y004241D01*
X027838Y004297D02*
X027838Y004382D01*
X027951Y004382D01*
X027558Y003822D02*
X027308Y004072D01*
X026808Y004072D01*
X026558Y003822D01*
X026558Y002322D01*
X026308Y002072D01*
X025808Y002072D01*
X025558Y002322D01*
X025558Y003822D01*
X025808Y004072D01*
X026308Y004072D01*
X026558Y003822D01*
X026325Y004212D02*
X026381Y004269D01*
X026381Y004382D01*
X026268Y004382D02*
X026268Y004269D01*
X026325Y004212D01*
X026151Y004212D02*
X026038Y004212D01*
X026151Y004326D01*
X026151Y004354D01*
X026123Y004382D01*
X026066Y004382D01*
X026038Y004354D01*
X025864Y004382D02*
X025864Y004212D01*
X025808Y004212D02*
X025921Y004212D01*
X025808Y004326D02*
X025864Y004382D01*
X026838Y004382D02*
X026838Y004297D01*
X026895Y004326D01*
X026923Y004326D01*
X026951Y004297D01*
X026951Y004241D01*
X026923Y004212D01*
X026866Y004212D01*
X026838Y004241D01*
X026838Y004382D02*
X026951Y004382D01*
X027068Y004382D02*
X027068Y004269D01*
X027125Y004212D01*
X027181Y004269D01*
X027181Y004382D01*
X023558Y003572D02*
X023058Y003572D01*
X023058Y003072D01*
X021058Y003072D01*
X021058Y003572D01*
X023058Y003572D01*
X023088Y003712D02*
X023161Y003712D01*
X023125Y003712D02*
X023125Y003932D01*
X023161Y003932D02*
X023088Y003932D01*
X022958Y003896D02*
X022922Y003932D01*
X022848Y003932D01*
X022812Y003896D01*
X022812Y003859D01*
X022848Y003822D01*
X022922Y003822D01*
X022958Y003786D01*
X022958Y003749D01*
X022922Y003712D01*
X022848Y003712D01*
X022812Y003749D01*
X023272Y003749D02*
X023272Y003896D01*
X023309Y003932D01*
X023382Y003932D01*
X023419Y003896D01*
X023419Y003822D02*
X023345Y003822D01*
X023419Y003822D02*
X023419Y003749D01*
X023382Y003712D01*
X023309Y003712D01*
X023272Y003749D01*
X023558Y003572D02*
X023558Y001772D01*
X020558Y001772D01*
X020558Y003572D01*
X021058Y003572D01*
X020996Y003712D02*
X020996Y003932D01*
X021143Y003712D01*
X021143Y003932D01*
X021272Y003932D02*
X021382Y003932D01*
X021419Y003896D01*
X021419Y003749D01*
X021382Y003712D01*
X021272Y003712D01*
X021272Y003932D01*
X020866Y003896D02*
X020830Y003932D01*
X020756Y003932D01*
X020720Y003896D01*
X020720Y003749D01*
X020756Y003712D01*
X020830Y003712D01*
X020866Y003749D01*
X020866Y003822D01*
X020793Y003822D01*
X020395Y003446D02*
X020395Y003336D01*
X020468Y003336D02*
X020248Y003336D01*
X020248Y003446D01*
X020285Y003483D01*
X020358Y003483D01*
X020395Y003446D01*
X020432Y003207D02*
X020285Y003207D01*
X020248Y003170D01*
X020248Y003096D01*
X020285Y003060D01*
X020432Y003060D01*
X020468Y003096D01*
X020468Y003170D01*
X020432Y003207D01*
X020248Y002930D02*
X020248Y002784D01*
X020248Y002857D02*
X020468Y002857D01*
X020432Y002654D02*
X020468Y002617D01*
X020468Y002544D01*
X020432Y002507D01*
X020358Y002544D02*
X020358Y002617D01*
X020395Y002654D01*
X020432Y002654D01*
X020358Y002544D02*
X020321Y002507D01*
X020285Y002507D01*
X020248Y002544D01*
X020248Y002617D01*
X020285Y002654D01*
X020358Y002378D02*
X020358Y002231D01*
X020285Y002102D02*
X020432Y001955D01*
X020468Y001955D01*
X020468Y002102D01*
X020285Y002102D02*
X020248Y002102D01*
X020248Y001955D01*
X019558Y001772D02*
X016558Y001772D01*
X016558Y003572D01*
X017058Y003572D01*
X017058Y003072D01*
X019058Y003072D01*
X019058Y003572D01*
X019558Y003572D01*
X019558Y001772D01*
X016468Y002028D02*
X016358Y002028D01*
X016285Y002102D01*
X016248Y002102D01*
X016358Y002028D02*
X016285Y001955D01*
X016248Y001955D01*
X016358Y002231D02*
X016358Y002378D01*
X016321Y002507D02*
X016358Y002544D01*
X016358Y002617D01*
X016395Y002654D01*
X016432Y002654D01*
X016468Y002617D01*
X016468Y002544D01*
X016432Y002507D01*
X016321Y002507D02*
X016285Y002507D01*
X016248Y002544D01*
X016248Y002617D01*
X016285Y002654D01*
X016248Y002784D02*
X016248Y002930D01*
X016248Y002857D02*
X016468Y002857D01*
X016432Y003060D02*
X016285Y003060D01*
X016248Y003096D01*
X016248Y003170D01*
X016285Y003207D01*
X016432Y003207D01*
X016468Y003170D01*
X016468Y003096D01*
X016432Y003060D01*
X016468Y003336D02*
X016248Y003336D01*
X016248Y003446D01*
X016285Y003483D01*
X016358Y003483D01*
X016395Y003446D01*
X016395Y003336D01*
X017058Y003572D02*
X019058Y003572D01*
X019088Y003712D02*
X019161Y003712D01*
X019125Y003712D02*
X019125Y003932D01*
X019161Y003932D02*
X019088Y003932D01*
X018958Y003896D02*
X018922Y003932D01*
X018848Y003932D01*
X018812Y003896D01*
X018812Y003859D01*
X018848Y003822D01*
X018922Y003822D01*
X018958Y003786D01*
X018958Y003749D01*
X018922Y003712D01*
X018848Y003712D01*
X018812Y003749D01*
X018319Y003786D02*
X018319Y003932D01*
X018319Y003786D02*
X018245Y003712D01*
X018172Y003786D01*
X018172Y003932D01*
X018043Y003822D02*
X017896Y003822D01*
X017969Y003896D02*
X017969Y003749D01*
X017419Y003749D02*
X017419Y003896D01*
X017382Y003932D01*
X017272Y003932D01*
X017272Y003712D01*
X017382Y003712D01*
X017419Y003749D01*
X017143Y003712D02*
X017143Y003932D01*
X016996Y003932D02*
X017143Y003712D01*
X016996Y003712D02*
X016996Y003932D01*
X016866Y003896D02*
X016830Y003932D01*
X016756Y003932D01*
X016720Y003896D01*
X016720Y003749D01*
X016756Y003712D01*
X016830Y003712D01*
X016866Y003749D01*
X016866Y003822D01*
X016793Y003822D01*
X016929Y004289D02*
X016966Y004289D01*
X017003Y004326D01*
X017003Y004509D01*
X016893Y004509D01*
X016856Y004472D01*
X016856Y004399D01*
X016893Y004362D01*
X017003Y004362D01*
X017132Y004362D02*
X017279Y004582D01*
X017408Y004509D02*
X017408Y004399D01*
X017445Y004362D01*
X017482Y004399D01*
X017519Y004362D01*
X017555Y004399D01*
X017555Y004509D01*
X017685Y004509D02*
X017721Y004509D01*
X017721Y004362D01*
X017685Y004362D02*
X017758Y004362D01*
X017869Y004362D02*
X017869Y004582D01*
X017979Y004509D02*
X017869Y004436D01*
X017979Y004362D01*
X018099Y004362D02*
X018172Y004362D01*
X018136Y004362D02*
X018136Y004509D01*
X018099Y004509D01*
X018136Y004582D02*
X018136Y004619D01*
X018283Y004362D02*
X018430Y004582D01*
X018559Y004472D02*
X018596Y004509D01*
X018706Y004509D01*
X018669Y004436D02*
X018596Y004436D01*
X018559Y004472D01*
X018559Y004362D02*
X018669Y004362D01*
X018706Y004399D01*
X018669Y004436D01*
X018836Y004399D02*
X018872Y004436D01*
X018982Y004436D01*
X018982Y004472D02*
X018982Y004362D01*
X018872Y004362D01*
X018836Y004399D01*
X018872Y004509D02*
X018946Y004509D01*
X018982Y004472D01*
X019112Y004509D02*
X019112Y004362D01*
X019259Y004362D02*
X019259Y004472D01*
X019222Y004509D01*
X019112Y004509D01*
X019388Y004472D02*
X019388Y004399D01*
X019425Y004362D01*
X019535Y004362D01*
X019535Y004326D02*
X019535Y004509D01*
X019425Y004509D01*
X019388Y004472D01*
X019461Y004289D02*
X019498Y004289D01*
X019535Y004326D01*
X019664Y004399D02*
X019664Y004509D01*
X019664Y004399D02*
X019701Y004362D01*
X019811Y004362D01*
X019811Y004509D01*
X019940Y004509D02*
X019977Y004509D01*
X019977Y004362D01*
X019940Y004362D02*
X020014Y004362D01*
X020125Y004362D02*
X020125Y004509D01*
X020235Y004509D01*
X020271Y004472D01*
X020271Y004362D01*
X020401Y004399D02*
X020437Y004362D01*
X020511Y004362D01*
X020548Y004399D01*
X020548Y004472D01*
X020511Y004509D01*
X020437Y004509D01*
X020401Y004472D01*
X020401Y004399D01*
X020677Y004362D02*
X020750Y004362D01*
X020714Y004362D02*
X020714Y004582D01*
X020677Y004582D01*
X020861Y004472D02*
X020861Y004399D01*
X020898Y004362D01*
X020971Y004362D01*
X021008Y004399D01*
X021008Y004472D01*
X020971Y004509D01*
X020898Y004509D01*
X020861Y004472D01*
X021137Y004362D02*
X021211Y004362D01*
X021174Y004362D02*
X021174Y004582D01*
X021137Y004582D01*
X021321Y004509D02*
X021321Y004399D01*
X021358Y004362D01*
X021468Y004362D01*
X021468Y004509D01*
X021969Y003896D02*
X021969Y003749D01*
X021896Y003822D02*
X022043Y003822D01*
X022172Y003786D02*
X022172Y003932D01*
X022172Y003786D02*
X022245Y003712D01*
X022319Y003786D01*
X022319Y003932D01*
X019977Y004582D02*
X019977Y004619D01*
X019382Y003932D02*
X019309Y003932D01*
X019272Y003896D01*
X019272Y003749D01*
X019309Y003712D01*
X019382Y003712D01*
X019419Y003749D01*
X019419Y003822D01*
X019345Y003822D01*
X019419Y003896D02*
X019382Y003932D01*
X017721Y004582D02*
X017721Y004619D01*
X016736Y004509D02*
X016699Y004509D01*
X016626Y004436D01*
X016626Y004509D02*
X016626Y004362D01*
X016496Y004399D02*
X016496Y004472D01*
X016460Y004509D01*
X016386Y004509D01*
X016350Y004472D01*
X016350Y004399D01*
X016386Y004362D01*
X016460Y004362D01*
X016496Y004399D01*
X016248Y004399D02*
X016248Y004362D01*
X016212Y004362D01*
X016212Y004399D01*
X016248Y004399D01*
X016082Y004399D02*
X016045Y004362D01*
X015935Y004362D01*
X015935Y004289D02*
X015935Y004509D01*
X016045Y004509D01*
X016082Y004472D01*
X016082Y004399D01*
X015806Y004436D02*
X015696Y004436D01*
X015659Y004399D01*
X015696Y004362D01*
X015806Y004362D01*
X015806Y004472D01*
X015769Y004509D01*
X015696Y004509D01*
X015539Y004509D02*
X015502Y004509D01*
X015429Y004436D01*
X015429Y004509D02*
X015429Y004362D01*
X015299Y004399D02*
X015263Y004362D01*
X015153Y004362D01*
X015153Y004289D02*
X015153Y004509D01*
X015263Y004509D01*
X015299Y004472D01*
X015299Y004399D01*
X015023Y004436D02*
X014876Y004436D01*
X014876Y004472D02*
X014913Y004509D01*
X014987Y004509D01*
X015023Y004472D01*
X015023Y004436D01*
X014987Y004362D02*
X014913Y004362D01*
X014876Y004399D01*
X014876Y004472D01*
X014756Y004509D02*
X014720Y004509D01*
X014646Y004436D01*
X014646Y004509D02*
X014646Y004362D01*
X014848Y003932D02*
X014812Y003896D01*
X014812Y003859D01*
X014848Y003822D01*
X014922Y003822D01*
X014958Y003786D01*
X014958Y003749D01*
X014922Y003712D01*
X014848Y003712D01*
X014812Y003749D01*
X014848Y003932D02*
X014922Y003932D01*
X014958Y003896D01*
X015088Y003932D02*
X015161Y003932D01*
X015125Y003932D02*
X015125Y003712D01*
X015161Y003712D02*
X015088Y003712D01*
X015058Y003572D02*
X015058Y003072D01*
X013058Y003072D01*
X013058Y003572D01*
X015058Y003572D01*
X015558Y003572D01*
X015558Y001772D01*
X012558Y001772D01*
X012558Y003572D01*
X013058Y003572D01*
X012996Y003712D02*
X012996Y003932D01*
X013143Y003712D01*
X013143Y003932D01*
X013272Y003932D02*
X013382Y003932D01*
X013419Y003896D01*
X013419Y003749D01*
X013382Y003712D01*
X013272Y003712D01*
X013272Y003932D01*
X012866Y003896D02*
X012830Y003932D01*
X012756Y003932D01*
X012720Y003896D01*
X012720Y003749D01*
X012756Y003712D01*
X012830Y003712D01*
X012866Y003749D01*
X012866Y003822D01*
X012793Y003822D01*
X012395Y003446D02*
X012395Y003336D01*
X012468Y003336D02*
X012248Y003336D01*
X012248Y003446D01*
X012285Y003483D01*
X012358Y003483D01*
X012395Y003446D01*
X012432Y003207D02*
X012285Y003207D01*
X012248Y003170D01*
X012248Y003096D01*
X012285Y003060D01*
X012432Y003060D01*
X012468Y003096D01*
X012468Y003170D01*
X012432Y003207D01*
X012248Y002930D02*
X012248Y002784D01*
X012248Y002857D02*
X012468Y002857D01*
X012432Y002654D02*
X012468Y002617D01*
X012468Y002544D01*
X012432Y002507D01*
X012358Y002544D02*
X012358Y002617D01*
X012395Y002654D01*
X012432Y002654D01*
X012358Y002544D02*
X012321Y002507D01*
X012285Y002507D01*
X012248Y002544D01*
X012248Y002617D01*
X012285Y002654D01*
X012358Y002378D02*
X012358Y002231D01*
X012248Y002102D02*
X012468Y001955D01*
X012468Y002102D02*
X012248Y001955D01*
X013969Y003749D02*
X013969Y003896D01*
X013896Y003822D02*
X014043Y003822D01*
X014172Y003786D02*
X014245Y003712D01*
X014319Y003786D01*
X014319Y003932D01*
X014172Y003932D02*
X014172Y003786D01*
X015272Y003749D02*
X015309Y003712D01*
X015382Y003712D01*
X015419Y003749D01*
X015419Y003822D01*
X015345Y003822D01*
X015272Y003896D02*
X015272Y003749D01*
X015272Y003896D02*
X015309Y003932D01*
X015382Y003932D01*
X015419Y003896D01*
X009258Y008722D02*
X008758Y008722D01*
X008369Y009112D02*
X008222Y009112D01*
X008369Y009259D01*
X008369Y009296D01*
X008332Y009332D01*
X008259Y009332D01*
X008222Y009296D01*
X008019Y009332D02*
X008019Y009112D01*
X007946Y009112D02*
X008093Y009112D01*
X005858Y009222D02*
X005861Y009327D01*
X005868Y009433D01*
X005881Y009537D01*
X005899Y009641D01*
X005922Y009744D01*
X005951Y009846D01*
X005984Y009946D01*
X006022Y010045D01*
X006064Y010141D01*
X006112Y010236D01*
X006164Y010327D01*
X006220Y010416D01*
X006281Y010503D01*
X006346Y010586D01*
X006415Y010666D01*
X006488Y010742D01*
X006564Y010815D01*
X006644Y010884D01*
X006727Y010949D01*
X006814Y011010D01*
X006903Y011066D01*
X006994Y011118D01*
X007089Y011166D01*
X007185Y011208D01*
X007284Y011246D01*
X007384Y011279D01*
X007486Y011308D01*
X007589Y011331D01*
X007693Y011349D01*
X007797Y011362D01*
X007903Y011369D01*
X008008Y011372D01*
X008113Y011369D01*
X008219Y011362D01*
X008323Y011349D01*
X008427Y011331D01*
X008530Y011308D01*
X008632Y011279D01*
X008732Y011246D01*
X008831Y011208D01*
X008927Y011166D01*
X009022Y011118D01*
X009113Y011066D01*
X009202Y011010D01*
X009289Y010949D01*
X009372Y010884D01*
X009452Y010815D01*
X009528Y010742D01*
X009601Y010666D01*
X009670Y010586D01*
X009735Y010503D01*
X009796Y010416D01*
X009852Y010327D01*
X009904Y010236D01*
X009952Y010141D01*
X009994Y010045D01*
X010032Y009946D01*
X010065Y009846D01*
X010094Y009744D01*
X010117Y009641D01*
X010135Y009537D01*
X010148Y009433D01*
X010155Y009327D01*
X010158Y009222D01*
X010155Y009117D01*
X010148Y009011D01*
X010135Y008907D01*
X010117Y008803D01*
X010094Y008700D01*
X010065Y008598D01*
X010032Y008498D01*
X009994Y008399D01*
X009952Y008303D01*
X009904Y008208D01*
X009852Y008117D01*
X009796Y008028D01*
X009735Y007941D01*
X009670Y007858D01*
X009601Y007778D01*
X009528Y007702D01*
X009452Y007629D01*
X009372Y007560D01*
X009289Y007495D01*
X009202Y007434D01*
X009113Y007378D01*
X009022Y007326D01*
X008927Y007278D01*
X008831Y007236D01*
X008732Y007198D01*
X008632Y007165D01*
X008530Y007136D01*
X008427Y007113D01*
X008323Y007095D01*
X008219Y007082D01*
X008113Y007075D01*
X008008Y007072D01*
X007903Y007075D01*
X007797Y007082D01*
X007693Y007095D01*
X007589Y007113D01*
X007486Y007136D01*
X007384Y007165D01*
X007284Y007198D01*
X007185Y007236D01*
X007089Y007278D01*
X006994Y007326D01*
X006903Y007378D01*
X006814Y007434D01*
X006727Y007495D01*
X006644Y007560D01*
X006564Y007629D01*
X006488Y007702D01*
X006415Y007778D01*
X006346Y007858D01*
X006281Y007941D01*
X006220Y008028D01*
X006164Y008117D01*
X006112Y008208D01*
X006064Y008303D01*
X006022Y008399D01*
X005984Y008498D01*
X005951Y008598D01*
X005922Y008700D01*
X005899Y008803D01*
X005881Y008907D01*
X005868Y009011D01*
X005861Y009117D01*
X005858Y009222D01*
X007670Y009149D02*
X007706Y009112D01*
X007780Y009112D01*
X007816Y009149D01*
X007670Y009149D02*
X007670Y009296D01*
X007706Y009332D01*
X007780Y009332D01*
X007816Y009296D01*
X007946Y009259D02*
X008019Y009332D01*
X011708Y010172D02*
X012208Y010172D01*
X005059Y017723D02*
X005058Y017757D01*
X005054Y017792D01*
X005046Y017825D01*
X005035Y017858D01*
X005020Y017889D01*
X005003Y017919D01*
X004982Y017947D01*
X004959Y017973D01*
X004933Y017996D01*
X004905Y018017D01*
X004875Y018034D01*
X004844Y018049D01*
X004811Y018060D01*
X004778Y018068D01*
X004743Y018072D01*
X004709Y018073D01*
X004708Y018072D02*
X003758Y018072D01*
X003269Y018272D02*
X003232Y018236D01*
X003122Y018236D01*
X003122Y018162D02*
X003122Y018382D01*
X003232Y018382D01*
X003269Y018346D01*
X003269Y018272D01*
X003011Y018162D02*
X002938Y018162D01*
X002974Y018162D02*
X002974Y018382D01*
X002938Y018382D02*
X003011Y018382D01*
X002808Y018382D02*
X002662Y018382D01*
X002735Y018382D02*
X002735Y018162D01*
X002532Y018382D02*
X002385Y018162D01*
X002256Y018162D02*
X002109Y018162D01*
X002183Y018162D02*
X002183Y018382D01*
X002109Y018309D01*
X001980Y018272D02*
X001943Y018236D01*
X001833Y018236D01*
X001906Y018236D02*
X001980Y018162D01*
X001980Y018272D02*
X001980Y018346D01*
X001943Y018382D01*
X001833Y018382D01*
X001833Y018162D01*
X001703Y018162D02*
X001703Y018382D01*
X001557Y018382D02*
X001557Y018162D01*
X001630Y018236D01*
X001703Y018162D01*
X001427Y018272D02*
X001391Y018236D01*
X001280Y018236D01*
X001280Y018162D02*
X001280Y018382D01*
X001391Y018382D01*
X001427Y018346D01*
X001427Y018272D01*
X005558Y018572D02*
X013558Y018572D01*
X013672Y018749D02*
X013672Y018896D01*
X013745Y018822D02*
X013598Y018822D01*
X013874Y018859D02*
X013948Y018932D01*
X013948Y018712D01*
X014021Y018712D02*
X013874Y018712D01*
X014151Y018712D02*
X014297Y018859D01*
X014297Y018896D01*
X014261Y018932D01*
X014187Y018932D01*
X014151Y018896D01*
X014151Y018712D02*
X014297Y018712D01*
X014427Y018786D02*
X014427Y018932D01*
X014427Y018786D02*
X014500Y018712D01*
X014574Y018786D01*
X014574Y018932D01*
X014558Y019072D02*
X014058Y019072D01*
X014558Y019072D02*
X014558Y021072D01*
X012418Y020916D02*
X012345Y020843D01*
X012345Y020880D02*
X012345Y020770D01*
X012418Y020770D02*
X012198Y020770D01*
X012198Y020880D01*
X012235Y020916D01*
X012308Y020916D01*
X012345Y020880D01*
X012418Y020640D02*
X012198Y020640D01*
X012198Y020493D02*
X012418Y020493D01*
X012345Y020567D01*
X012418Y020640D01*
X012308Y020364D02*
X012235Y020364D01*
X012198Y020327D01*
X012198Y020217D01*
X012418Y020217D01*
X012345Y020217D02*
X012345Y020327D01*
X012308Y020364D01*
X013151Y018932D02*
X013261Y018932D01*
X013297Y018896D01*
X013297Y018749D01*
X013261Y018712D01*
X013151Y018712D01*
X013151Y018932D01*
X015198Y019665D02*
X015418Y019665D01*
X016848Y018896D02*
X016885Y018932D01*
X016958Y018932D01*
X016995Y018896D01*
X016995Y018859D01*
X016848Y018712D01*
X016995Y018712D01*
X017124Y018712D02*
X017124Y018859D01*
X017198Y018932D01*
X017271Y018859D01*
X017271Y018712D01*
X017271Y018822D02*
X017124Y018822D01*
X017848Y018859D02*
X017922Y018932D01*
X017922Y018712D01*
X017995Y018712D02*
X017848Y018712D01*
X018124Y018712D02*
X018124Y018859D01*
X018198Y018932D01*
X018271Y018859D01*
X018271Y018712D01*
X018271Y018822D02*
X018124Y018822D01*
X020198Y020217D02*
X020198Y020327D01*
X020235Y020364D01*
X020308Y020364D01*
X020345Y020327D01*
X020345Y020217D01*
X020418Y020217D02*
X020198Y020217D01*
X020198Y020493D02*
X020418Y020493D01*
X020345Y020567D01*
X020418Y020640D01*
X020198Y020640D01*
X020198Y020770D02*
X020198Y020880D01*
X020235Y020916D01*
X020308Y020916D01*
X020345Y020880D01*
X020345Y020770D01*
X020345Y020843D02*
X020418Y020916D01*
X020418Y020770D02*
X020198Y020770D01*
X023198Y020770D02*
X023198Y020880D01*
X023235Y020916D01*
X023308Y020916D01*
X023345Y020880D01*
X023345Y020770D01*
X023345Y020843D02*
X023418Y020916D01*
X023418Y020770D02*
X023198Y020770D01*
X023235Y020640D02*
X023198Y020603D01*
X023198Y020530D01*
X023235Y020493D01*
X023382Y020493D01*
X023418Y020530D01*
X023418Y020603D01*
X023382Y020640D01*
X023235Y020640D01*
X023198Y020364D02*
X023198Y020217D01*
X023198Y020291D02*
X023418Y020291D01*
X023382Y020088D02*
X023235Y020088D01*
X023198Y020051D01*
X023198Y019978D01*
X023235Y019941D01*
X023382Y019941D01*
X023418Y019978D01*
X023418Y020051D01*
X023382Y020088D01*
X023418Y019811D02*
X023198Y019811D01*
X023271Y019738D01*
X023198Y019665D01*
X023418Y019665D01*
X023308Y019535D02*
X023308Y019389D01*
X023235Y019259D02*
X023382Y019112D01*
X023418Y019112D01*
X023418Y019259D01*
X023235Y019259D02*
X023198Y019259D01*
X023198Y019112D01*
X023558Y019072D02*
X024058Y019072D01*
X024058Y019572D01*
X027058Y019572D01*
X027058Y019072D01*
X024058Y019072D01*
X024106Y018935D02*
X024216Y018935D01*
X024253Y018898D01*
X024253Y018861D01*
X024216Y018825D01*
X024106Y018825D01*
X024106Y018715D02*
X024106Y018935D01*
X023977Y018898D02*
X023940Y018935D01*
X023867Y018935D01*
X023830Y018898D01*
X023977Y018898D02*
X023977Y018861D01*
X023830Y018715D01*
X023977Y018715D01*
X024106Y018715D02*
X024216Y018715D01*
X024253Y018751D01*
X024253Y018788D01*
X024216Y018825D01*
X024830Y018898D02*
X024867Y018935D01*
X024940Y018935D01*
X024977Y018898D01*
X024977Y018861D01*
X024830Y018715D01*
X024977Y018715D01*
X025106Y018715D02*
X025106Y018861D01*
X025180Y018935D01*
X025253Y018861D01*
X025253Y018715D01*
X025253Y018825D02*
X025106Y018825D01*
X025830Y018861D02*
X025904Y018935D01*
X025904Y018715D01*
X025977Y018715D02*
X025830Y018715D01*
X026106Y018715D02*
X026106Y018861D01*
X026180Y018935D01*
X026253Y018861D01*
X026253Y018715D01*
X026253Y018825D02*
X026106Y018825D01*
X026830Y018861D02*
X026904Y018935D01*
X026904Y018715D01*
X026977Y018715D02*
X026830Y018715D01*
X027106Y018715D02*
X027106Y018935D01*
X027216Y018935D01*
X027253Y018898D01*
X027253Y018861D01*
X027216Y018825D01*
X027106Y018825D01*
X027106Y018715D02*
X027216Y018715D01*
X027253Y018751D01*
X027253Y018788D01*
X027216Y018825D01*
X027058Y019072D02*
X027558Y019072D01*
X027558Y021072D01*
X023558Y021072D01*
X023558Y019072D01*
X021297Y018896D02*
X021297Y018749D01*
X021261Y018712D01*
X021151Y018712D01*
X021151Y018932D01*
X021261Y018932D01*
X021297Y018896D01*
X028198Y019186D02*
X028418Y019186D01*
X028418Y019259D02*
X028418Y019112D01*
X028271Y019112D02*
X028198Y019186D01*
X028235Y019389D02*
X028198Y019425D01*
X028198Y019499D01*
X028235Y019535D01*
X028271Y019535D01*
X028418Y019389D01*
X028418Y019535D01*
X028345Y019665D02*
X028418Y019738D01*
X028345Y019811D01*
X028198Y019811D01*
X028198Y019665D02*
X028345Y019665D01*
X028345Y020217D02*
X028345Y020327D01*
X028308Y020364D01*
X028235Y020364D01*
X028198Y020327D01*
X028198Y020217D01*
X028418Y020217D01*
X028418Y020493D02*
X028198Y020493D01*
X028198Y020640D02*
X028418Y020640D01*
X028345Y020567D01*
X028418Y020493D01*
X028418Y020770D02*
X028198Y020770D01*
X028198Y020880D01*
X028235Y020916D01*
X028308Y020916D01*
X028345Y020880D01*
X028345Y020770D01*
X028345Y020843D02*
X028418Y020916D01*
X031198Y020880D02*
X031198Y020770D01*
X031418Y020770D01*
X031345Y020770D02*
X031345Y020880D01*
X031308Y020916D01*
X031235Y020916D01*
X031198Y020880D01*
X031345Y020843D02*
X031418Y020916D01*
X037958Y015972D02*
X038358Y015972D01*
X039158Y013672D02*
X039158Y013522D01*
X039159Y013488D01*
X039163Y013453D01*
X039171Y013420D01*
X039182Y013387D01*
X039197Y013356D01*
X039214Y013326D01*
X039235Y013298D01*
X039258Y013272D01*
X039284Y013249D01*
X039312Y013228D01*
X039342Y013211D01*
X039373Y013196D01*
X039406Y013185D01*
X039439Y013177D01*
X039474Y013173D01*
X039508Y013172D01*
X040058Y013172D01*
X038085Y012607D02*
X038048Y012570D01*
X038048Y012497D01*
X038893Y010296D02*
X038893Y010149D01*
X038820Y010222D02*
X038966Y010222D01*
X039096Y010222D02*
X039169Y010259D01*
X039206Y010259D01*
X039243Y010222D01*
X039243Y010149D01*
X039206Y010112D01*
X039132Y010112D01*
X039096Y010149D01*
X039096Y010222D02*
X039096Y010332D01*
X039243Y010332D01*
X039372Y010332D02*
X039372Y010186D01*
X039445Y010112D01*
X039519Y010186D01*
X039519Y010332D01*
X038262Y008588D02*
X038042Y008588D01*
X038042Y005588D02*
X038262Y005588D01*
X033558Y003822D02*
X033558Y002322D01*
X033308Y002072D01*
X032808Y002072D01*
X032558Y002322D01*
X032895Y001932D02*
X032951Y001876D01*
X032951Y001762D01*
X032951Y001847D02*
X032838Y001847D01*
X032838Y001876D02*
X032895Y001932D01*
X032838Y001876D02*
X032838Y001762D01*
X033068Y001791D02*
X033181Y001904D01*
X033181Y001791D01*
X033153Y001762D01*
X033096Y001762D01*
X033068Y001791D01*
X033068Y001904D01*
X033096Y001932D01*
X033153Y001932D01*
X033181Y001904D01*
X032181Y001762D02*
X032068Y001762D01*
X032125Y001762D02*
X032125Y001932D01*
X032068Y001876D01*
X031951Y001876D02*
X031951Y001762D01*
X031951Y001847D02*
X031838Y001847D01*
X031838Y001876D02*
X031895Y001932D01*
X031951Y001876D01*
X031838Y001876D02*
X031838Y001762D01*
X031308Y002072D02*
X030808Y002072D01*
X030558Y002322D01*
X030895Y001932D02*
X030951Y001876D01*
X030951Y001762D01*
X030951Y001847D02*
X030838Y001847D01*
X030838Y001876D02*
X030895Y001932D01*
X030838Y001876D02*
X030838Y001762D01*
X031068Y001762D02*
X031181Y001876D01*
X031181Y001904D01*
X031153Y001932D01*
X031096Y001932D01*
X031068Y001904D01*
X031068Y001762D02*
X031181Y001762D01*
X031308Y002072D02*
X031558Y002322D01*
X030181Y001904D02*
X030181Y001876D01*
X030153Y001847D01*
X030181Y001819D01*
X030181Y001791D01*
X030153Y001762D01*
X030096Y001762D01*
X030068Y001791D01*
X030125Y001847D02*
X030153Y001847D01*
X030181Y001904D02*
X030153Y001932D01*
X030096Y001932D01*
X030068Y001904D01*
X029951Y001876D02*
X029951Y001762D01*
X029951Y001847D02*
X029838Y001847D01*
X029838Y001876D02*
X029895Y001932D01*
X029951Y001876D01*
X029838Y001876D02*
X029838Y001762D01*
X029308Y002072D02*
X028808Y002072D01*
X028558Y002322D01*
X028895Y001932D02*
X028951Y001876D01*
X028951Y001762D01*
X028951Y001847D02*
X028838Y001847D01*
X028838Y001876D02*
X028895Y001932D01*
X028838Y001876D02*
X028838Y001762D01*
X029068Y001847D02*
X029153Y001932D01*
X029153Y001762D01*
X029181Y001847D02*
X029068Y001847D01*
X029308Y002072D02*
X029558Y002322D01*
X028181Y001932D02*
X028068Y001932D01*
X028068Y001847D01*
X028125Y001876D01*
X028153Y001876D01*
X028181Y001847D01*
X028181Y001791D01*
X028153Y001762D01*
X028096Y001762D01*
X028068Y001791D01*
X027951Y001762D02*
X027951Y001876D01*
X027895Y001932D01*
X027838Y001876D01*
X027838Y001762D01*
X027838Y001847D02*
X027951Y001847D01*
X027381Y001791D02*
X027381Y001904D01*
X027353Y001932D01*
X027268Y001932D01*
X027268Y001762D01*
X027353Y001762D01*
X027381Y001791D01*
X027151Y001762D02*
X027151Y001932D01*
X027038Y001932D02*
X027151Y001762D01*
X027038Y001762D02*
X027038Y001932D01*
X026921Y001904D02*
X026893Y001932D01*
X026836Y001932D01*
X026808Y001904D01*
X026808Y001791D01*
X026836Y001762D01*
X026893Y001762D01*
X026921Y001791D01*
X026921Y001847D01*
X026864Y001847D01*
X026808Y002072D02*
X026558Y002322D01*
X026808Y002072D02*
X027308Y002072D01*
X027558Y002322D01*
X026381Y001904D02*
X026353Y001932D01*
X026268Y001932D01*
X026268Y001762D01*
X026353Y001762D01*
X026381Y001791D01*
X026381Y001904D01*
X026151Y001932D02*
X026151Y001762D01*
X026038Y001932D01*
X026038Y001762D01*
X025921Y001791D02*
X025921Y001847D01*
X025864Y001847D01*
X025808Y001791D02*
X025836Y001762D01*
X025893Y001762D01*
X025921Y001791D01*
X025921Y001904D02*
X025893Y001932D01*
X025836Y001932D01*
X025808Y001904D01*
X025808Y001791D01*
X031308Y004072D02*
X031558Y003822D01*
X033308Y004072D02*
X033558Y003822D01*
X035558Y002322D02*
X035808Y002072D01*
X036308Y002072D01*
X036558Y002322D01*
X036451Y001982D02*
X036395Y001982D01*
X036423Y001982D02*
X036423Y001812D01*
X036395Y001812D02*
X036451Y001812D01*
X036278Y001841D02*
X036250Y001812D01*
X036193Y001812D01*
X036165Y001841D01*
X036193Y001897D02*
X036250Y001897D01*
X036278Y001869D01*
X036278Y001841D01*
X036193Y001897D02*
X036165Y001926D01*
X036165Y001954D01*
X036193Y001982D01*
X036250Y001982D01*
X036278Y001954D01*
X036048Y001954D02*
X036019Y001982D01*
X035963Y001982D01*
X035934Y001954D01*
X035934Y001841D01*
X035963Y001812D01*
X036019Y001812D01*
X036048Y001841D01*
X036048Y001954D01*
X035818Y001982D02*
X035818Y001812D01*
X035704Y001812D02*
X035704Y001982D01*
X035761Y001926D01*
X035818Y001982D01*
X035331Y001954D02*
X035331Y001841D01*
X035303Y001812D01*
X035218Y001812D01*
X035218Y001982D01*
X035303Y001982D01*
X035331Y001954D01*
X035101Y001982D02*
X035101Y001812D01*
X034988Y001982D01*
X034988Y001812D01*
X034871Y001841D02*
X034871Y001897D01*
X034814Y001897D01*
X034758Y001841D02*
X034786Y001812D01*
X034843Y001812D01*
X034871Y001841D01*
X034871Y001954D02*
X034843Y001982D01*
X034786Y001982D01*
X034758Y001954D01*
X034758Y001841D01*
X036888Y001841D02*
X036916Y001812D01*
X036973Y001812D01*
X037001Y001841D01*
X037001Y001897D01*
X036973Y001926D01*
X036945Y001926D01*
X036888Y001897D01*
X036888Y001982D01*
X037001Y001982D01*
X037118Y001982D02*
X037118Y001869D01*
X037175Y001812D01*
X037231Y001869D01*
X037231Y001982D01*
D11*
X029558Y015022D02*
X029619Y014995D01*
X029682Y014971D01*
X029746Y014952D01*
X029811Y014936D01*
X029877Y014923D01*
X029943Y014915D01*
X030010Y014910D01*
X030077Y014909D01*
X030144Y014912D01*
X030210Y014919D01*
X030276Y014930D01*
X030342Y014944D01*
X030406Y014962D01*
X030470Y014984D01*
X030531Y015010D01*
X030592Y015039D01*
X030650Y015071D01*
X030707Y015107D01*
X030761Y015146D01*
X030814Y015188D01*
X030863Y015233D01*
X030910Y015281D01*
X030954Y015331D01*
X030995Y015384D01*
X031033Y015439D01*
X031068Y015496D01*
X031100Y015555D01*
X031128Y015616D01*
X031152Y015678D01*
X031173Y015742D01*
X031190Y015807D01*
X031204Y015872D01*
X031213Y015938D01*
X031219Y016005D01*
X031221Y016072D01*
X031219Y016139D01*
X031213Y016206D01*
X031204Y016272D01*
X031190Y016337D01*
X031173Y016402D01*
X031152Y016466D01*
X031128Y016528D01*
X031100Y016589D01*
X031068Y016648D01*
X031033Y016705D01*
X030995Y016760D01*
X030954Y016813D01*
X030910Y016863D01*
X030863Y016911D01*
X030814Y016956D01*
X030761Y016998D01*
X030707Y017037D01*
X030650Y017073D01*
X030592Y017105D01*
X030531Y017134D01*
X030470Y017160D01*
X030406Y017182D01*
X030342Y017200D01*
X030276Y017214D01*
X030210Y017225D01*
X030144Y017232D01*
X030077Y017235D01*
X030010Y017234D01*
X029943Y017229D01*
X029877Y017221D01*
X029811Y017208D01*
X029746Y017192D01*
X029682Y017173D01*
X029619Y017149D01*
X029558Y017122D01*
X036558Y019272D02*
X036612Y019274D01*
X036666Y019279D01*
X036719Y019288D01*
X036772Y019301D01*
X036823Y019317D01*
X036873Y019337D01*
X036922Y019360D01*
X036970Y019386D01*
X037015Y019415D01*
X037058Y019448D01*
X037099Y019483D01*
X037138Y019521D01*
X037174Y019561D01*
X037207Y019604D01*
X037237Y019649D01*
X037264Y019696D01*
X037253Y020469D02*
X037223Y020517D01*
X037190Y020562D01*
X037154Y020605D01*
X037116Y020646D01*
X037074Y020683D01*
X037030Y020718D01*
X036984Y020749D01*
X036935Y020778D01*
X036885Y020802D01*
X036833Y020823D01*
X036779Y020841D01*
X036725Y020854D01*
X036670Y020864D01*
X036614Y020870D01*
X036558Y020872D01*
X036505Y020870D01*
X036451Y020865D01*
X036399Y020856D01*
X036347Y020844D01*
X036296Y020828D01*
X036246Y020809D01*
X036197Y020786D01*
X036150Y020760D01*
X036105Y020732D01*
X036062Y020700D01*
X036022Y020666D01*
X035983Y020628D01*
X035947Y020589D01*
X035943Y019560D02*
X035979Y019520D01*
X036018Y019482D01*
X036059Y019447D01*
X036102Y019415D01*
X036147Y019385D01*
X036194Y019359D01*
X036243Y019337D01*
X036294Y019317D01*
X036345Y019301D01*
X036397Y019288D01*
X036451Y019279D01*
X036504Y019274D01*
X036558Y019272D01*
X021558Y017122D02*
X021619Y017149D01*
X021682Y017173D01*
X021746Y017192D01*
X021811Y017208D01*
X021877Y017221D01*
X021943Y017229D01*
X022010Y017234D01*
X022077Y017235D01*
X022144Y017232D01*
X022210Y017225D01*
X022276Y017214D01*
X022342Y017200D01*
X022406Y017182D01*
X022470Y017160D01*
X022531Y017134D01*
X022592Y017105D01*
X022650Y017073D01*
X022707Y017037D01*
X022761Y016998D01*
X022814Y016956D01*
X022863Y016911D01*
X022910Y016863D01*
X022954Y016813D01*
X022995Y016760D01*
X023033Y016705D01*
X023068Y016648D01*
X023100Y016589D01*
X023128Y016528D01*
X023152Y016466D01*
X023173Y016402D01*
X023190Y016337D01*
X023204Y016272D01*
X023213Y016206D01*
X023219Y016139D01*
X023221Y016072D01*
X023219Y016005D01*
X023213Y015938D01*
X023204Y015872D01*
X023190Y015807D01*
X023173Y015742D01*
X023152Y015678D01*
X023128Y015616D01*
X023100Y015555D01*
X023068Y015496D01*
X023033Y015439D01*
X022995Y015384D01*
X022954Y015331D01*
X022910Y015281D01*
X022863Y015233D01*
X022814Y015188D01*
X022761Y015146D01*
X022707Y015107D01*
X022650Y015071D01*
X022592Y015039D01*
X022531Y015010D01*
X022470Y014984D01*
X022406Y014962D01*
X022342Y014944D01*
X022276Y014930D01*
X022210Y014919D01*
X022144Y014912D01*
X022077Y014909D01*
X022010Y014910D01*
X021943Y014915D01*
X021877Y014923D01*
X021811Y014936D01*
X021746Y014952D01*
X021682Y014971D01*
X021619Y014995D01*
X021558Y015022D01*
X013558Y015022D02*
X013619Y014995D01*
X013682Y014971D01*
X013746Y014952D01*
X013811Y014936D01*
X013877Y014923D01*
X013943Y014915D01*
X014010Y014910D01*
X014077Y014909D01*
X014144Y014912D01*
X014210Y014919D01*
X014276Y014930D01*
X014342Y014944D01*
X014406Y014962D01*
X014470Y014984D01*
X014531Y015010D01*
X014592Y015039D01*
X014650Y015071D01*
X014707Y015107D01*
X014761Y015146D01*
X014814Y015188D01*
X014863Y015233D01*
X014910Y015281D01*
X014954Y015331D01*
X014995Y015384D01*
X015033Y015439D01*
X015068Y015496D01*
X015100Y015555D01*
X015128Y015616D01*
X015152Y015678D01*
X015173Y015742D01*
X015190Y015807D01*
X015204Y015872D01*
X015213Y015938D01*
X015219Y016005D01*
X015221Y016072D01*
X015219Y016139D01*
X015213Y016206D01*
X015204Y016272D01*
X015190Y016337D01*
X015173Y016402D01*
X015152Y016466D01*
X015128Y016528D01*
X015100Y016589D01*
X015068Y016648D01*
X015033Y016705D01*
X014995Y016760D01*
X014954Y016813D01*
X014910Y016863D01*
X014863Y016911D01*
X014814Y016956D01*
X014761Y016998D01*
X014707Y017037D01*
X014650Y017073D01*
X014592Y017105D01*
X014531Y017134D01*
X014470Y017160D01*
X014406Y017182D01*
X014342Y017200D01*
X014276Y017214D01*
X014210Y017225D01*
X014144Y017232D01*
X014077Y017235D01*
X014010Y017234D01*
X013943Y017229D01*
X013877Y017221D01*
X013811Y017208D01*
X013746Y017192D01*
X013682Y017173D01*
X013619Y017149D01*
X013558Y017122D01*
X005558Y017122D02*
X005619Y017149D01*
X005682Y017173D01*
X005746Y017192D01*
X005811Y017208D01*
X005877Y017221D01*
X005943Y017229D01*
X006010Y017234D01*
X006077Y017235D01*
X006144Y017232D01*
X006210Y017225D01*
X006276Y017214D01*
X006342Y017200D01*
X006406Y017182D01*
X006470Y017160D01*
X006531Y017134D01*
X006592Y017105D01*
X006650Y017073D01*
X006707Y017037D01*
X006761Y016998D01*
X006814Y016956D01*
X006863Y016911D01*
X006910Y016863D01*
X006954Y016813D01*
X006995Y016760D01*
X007033Y016705D01*
X007068Y016648D01*
X007100Y016589D01*
X007128Y016528D01*
X007152Y016466D01*
X007173Y016402D01*
X007190Y016337D01*
X007204Y016272D01*
X007213Y016206D01*
X007219Y016139D01*
X007221Y016072D01*
X007219Y016005D01*
X007213Y015938D01*
X007204Y015872D01*
X007190Y015807D01*
X007173Y015742D01*
X007152Y015678D01*
X007128Y015616D01*
X007100Y015555D01*
X007068Y015496D01*
X007033Y015439D01*
X006995Y015384D01*
X006954Y015331D01*
X006910Y015281D01*
X006863Y015233D01*
X006814Y015188D01*
X006761Y015146D01*
X006707Y015107D01*
X006650Y015071D01*
X006592Y015039D01*
X006531Y015010D01*
X006470Y014984D01*
X006406Y014962D01*
X006342Y014944D01*
X006276Y014930D01*
X006210Y014919D01*
X006144Y014912D01*
X006077Y014909D01*
X006010Y014910D01*
X005943Y014915D01*
X005877Y014923D01*
X005811Y014936D01*
X005746Y014952D01*
X005682Y014971D01*
X005619Y014995D01*
X005558Y015022D01*
X004658Y009272D02*
X003558Y009272D01*
X003558Y006072D01*
X004658Y006072D01*
X004658Y009272D01*
X002558Y009272D02*
X001458Y009272D01*
X001458Y006072D01*
X002558Y006072D01*
X002558Y009272D01*
X002193Y005722D02*
X002191Y005694D01*
X002186Y005666D01*
X002176Y005639D01*
X002164Y005613D01*
X002148Y005590D01*
X002129Y005569D01*
X002108Y005550D01*
X002084Y005534D01*
X002059Y005522D01*
X002032Y005512D01*
X002004Y005507D01*
X001976Y005505D01*
X001948Y005507D01*
X001920Y005512D01*
X001893Y005522D01*
X001867Y005534D01*
X001844Y005550D01*
X001823Y005569D01*
X001804Y005590D01*
X001788Y005614D01*
X001776Y005639D01*
X001766Y005666D01*
X001761Y005694D01*
X001759Y005722D01*
D12*
X003558Y011572D03*
X003558Y016072D03*
D13*
X025473Y012289D02*
X025473Y012211D01*
X025552Y012132D01*
X025708Y012132D01*
X025787Y012054D01*
X025787Y011976D01*
X025708Y011897D01*
X025552Y011897D01*
X025473Y011976D01*
X026026Y011976D02*
X026104Y012054D01*
X026339Y012054D01*
X026339Y012132D02*
X026339Y011897D01*
X026104Y011897D01*
X026026Y011976D01*
X026261Y012211D02*
X026339Y012132D01*
X026261Y012211D02*
X026104Y012211D01*
X025787Y012289D02*
X025708Y012368D01*
X025552Y012368D01*
X025473Y012289D01*
X026578Y012211D02*
X026578Y011897D01*
X026892Y011897D02*
X026892Y012132D01*
X026813Y012211D01*
X026578Y012211D01*
X027131Y012132D02*
X027131Y011976D01*
X027209Y011897D01*
X027444Y011897D01*
X027444Y011819D02*
X027444Y012211D01*
X027209Y012211D01*
X027131Y012132D01*
X027444Y011819D02*
X027366Y011741D01*
X027287Y011741D01*
X027683Y011976D02*
X027761Y011897D01*
X027997Y011897D01*
X027997Y012211D01*
X028235Y012211D02*
X028314Y012211D01*
X028314Y011897D01*
X028392Y011897D02*
X028235Y011897D01*
X028604Y011897D02*
X028604Y012211D01*
X028839Y012211D01*
X028917Y012132D01*
X028917Y011897D01*
X029156Y011976D02*
X029156Y012132D01*
X029235Y012211D01*
X029391Y012211D01*
X029470Y012132D01*
X029470Y011976D01*
X029391Y011897D01*
X029235Y011897D01*
X029156Y011976D01*
X029709Y011897D02*
X029865Y011897D01*
X029787Y011897D02*
X029787Y012368D01*
X029709Y012368D01*
X030077Y012132D02*
X030077Y011976D01*
X030155Y011897D01*
X030312Y011897D01*
X030391Y011976D01*
X030391Y012132D01*
X030312Y012211D01*
X030155Y012211D01*
X030077Y012132D01*
X030629Y011897D02*
X030786Y011897D01*
X030708Y011897D02*
X030708Y012368D01*
X030629Y012368D01*
X030998Y012211D02*
X030998Y011976D01*
X031076Y011897D01*
X031311Y011897D01*
X031311Y012211D01*
X028314Y012368D02*
X028314Y012446D01*
X027683Y012211D02*
X027683Y011976D01*
M02*
