G75*
G70*
%OFA0B0*%
%FSLAX24Y24*%
%IPPOS*%
%LPD*%
%AMOC8*
5,1,8,0,0,1.08239X$1,22.5*
%
%ADD10C,0.0080*%
%ADD11C,0.0100*%
D10*
X004745Y001812D02*
X004801Y001869D01*
X004773Y001869D02*
X004858Y001869D01*
X004858Y001812D02*
X004858Y001982D01*
X004773Y001982D01*
X004745Y001954D01*
X004745Y001897D01*
X004773Y001869D01*
X004808Y002072D02*
X005308Y002072D01*
X005558Y002322D01*
X005808Y002072D01*
X006308Y002072D01*
X006558Y002322D01*
X006808Y002072D01*
X007308Y002072D01*
X007558Y002322D01*
X007808Y002072D01*
X008308Y002072D01*
X008558Y002322D01*
X008808Y002072D01*
X009308Y002072D01*
X009558Y002322D01*
X009808Y002072D01*
X010308Y002072D01*
X010558Y002322D01*
X010558Y002822D01*
X010308Y003072D01*
X009808Y003072D01*
X009558Y002822D01*
X009308Y003072D01*
X008808Y003072D01*
X008558Y002822D01*
X008308Y003072D01*
X007808Y003072D01*
X007558Y002822D01*
X007308Y003072D01*
X006808Y003072D01*
X006558Y002822D01*
X006308Y003072D01*
X005808Y003072D01*
X005558Y002822D01*
X005308Y003072D01*
X004808Y003072D01*
X004558Y002822D01*
X004558Y002322D01*
X004808Y002072D01*
X004975Y001982D02*
X005088Y001982D01*
X005031Y001982D02*
X005031Y001812D01*
X005205Y001841D02*
X005205Y001954D01*
X005233Y001982D01*
X005318Y001982D01*
X005318Y001812D01*
X005233Y001812D01*
X005205Y001841D01*
X005745Y001841D02*
X005773Y001812D01*
X005830Y001812D01*
X005858Y001841D01*
X005745Y001954D01*
X005745Y001841D01*
X005858Y001841D02*
X005858Y001954D01*
X005830Y001982D01*
X005773Y001982D01*
X005745Y001954D01*
X005975Y001982D02*
X006088Y001812D01*
X005975Y001812D02*
X006088Y001982D01*
X006205Y001982D02*
X006318Y001982D01*
X006262Y001982D02*
X006262Y001812D01*
X006745Y001841D02*
X006745Y001954D01*
X006858Y001841D01*
X006830Y001812D01*
X006773Y001812D01*
X006745Y001841D01*
X006858Y001841D02*
X006858Y001954D01*
X006830Y001982D01*
X006773Y001982D01*
X006745Y001954D01*
X006975Y001982D02*
X007088Y001812D01*
X006975Y001812D02*
X007088Y001982D01*
X007205Y001954D02*
X007205Y001897D01*
X007233Y001869D01*
X007318Y001869D01*
X007262Y001869D02*
X007205Y001812D01*
X007318Y001812D02*
X007318Y001982D01*
X007233Y001982D01*
X007205Y001954D01*
X007875Y001982D02*
X007875Y001869D01*
X007931Y001812D01*
X007988Y001869D01*
X007988Y001982D01*
X008105Y001982D02*
X008218Y001982D01*
X008218Y001897D01*
X008162Y001926D01*
X008133Y001926D01*
X008105Y001897D01*
X008105Y001841D01*
X008133Y001812D01*
X008190Y001812D01*
X008218Y001841D01*
X008745Y001841D02*
X008745Y001954D01*
X008773Y001982D01*
X008858Y001982D01*
X008858Y001812D01*
X008773Y001812D01*
X008745Y001841D01*
X008975Y001812D02*
X008975Y001982D01*
X009088Y001982D02*
X008975Y001812D01*
X009088Y001812D02*
X009088Y001982D01*
X009205Y001954D02*
X009233Y001982D01*
X009290Y001982D01*
X009318Y001954D01*
X009318Y001841D01*
X009290Y001812D01*
X009233Y001812D01*
X009205Y001841D01*
X009205Y001897D01*
X009262Y001897D01*
X009745Y001841D02*
X009745Y001954D01*
X009773Y001982D01*
X009858Y001982D01*
X009858Y001812D01*
X009773Y001812D01*
X009745Y001841D01*
X009975Y001812D02*
X009975Y001982D01*
X010088Y001982D02*
X009975Y001812D01*
X010088Y001812D02*
X010088Y001982D01*
X010205Y001954D02*
X010233Y001982D01*
X010290Y001982D01*
X010318Y001954D01*
X010318Y001841D01*
X010290Y001812D01*
X010233Y001812D01*
X010205Y001841D01*
X010205Y001897D01*
X010262Y001897D01*
X012248Y001912D02*
X012468Y002059D01*
X012468Y001912D02*
X012248Y002059D01*
X012358Y002189D02*
X012358Y002335D01*
X012395Y002465D02*
X012358Y002501D01*
X012358Y002575D01*
X012322Y002611D01*
X012285Y002611D01*
X012248Y002575D01*
X012248Y002501D01*
X012285Y002465D01*
X012395Y002465D02*
X012432Y002465D01*
X012468Y002501D01*
X012468Y002575D01*
X012432Y002611D01*
X012468Y002741D02*
X012468Y002888D01*
X012468Y002814D02*
X012248Y002814D01*
X012285Y003017D02*
X012248Y003054D01*
X012248Y003127D01*
X012285Y003164D01*
X012432Y003164D01*
X012468Y003127D01*
X012468Y003054D01*
X012432Y003017D01*
X012285Y003017D01*
X012248Y003293D02*
X012468Y003293D01*
X012468Y003403D01*
X012432Y003440D01*
X012358Y003440D01*
X012322Y003403D01*
X012322Y003293D01*
X012558Y003572D02*
X015558Y003572D01*
X015558Y001772D01*
X015058Y001772D01*
X015058Y002072D01*
X013058Y002072D01*
X013058Y001772D01*
X015058Y001772D01*
X016248Y001986D02*
X016358Y001986D01*
X016432Y002059D01*
X016468Y002059D01*
X016358Y001986D02*
X016432Y001912D01*
X016468Y001912D01*
X016558Y001772D02*
X017058Y001772D01*
X017058Y002072D01*
X019058Y002072D01*
X019058Y001772D01*
X019558Y001772D01*
X019558Y003572D01*
X016558Y003572D01*
X016558Y001772D01*
X017058Y001772D02*
X019058Y001772D01*
X020248Y001912D02*
X020248Y002059D01*
X020248Y001912D02*
X020285Y001912D01*
X020432Y002059D01*
X020468Y002059D01*
X020468Y001912D01*
X020558Y001772D02*
X021058Y001772D01*
X021058Y002072D01*
X023058Y002072D01*
X023058Y001772D01*
X023558Y001772D01*
X023558Y003572D01*
X020558Y003572D01*
X020558Y001772D01*
X021058Y001772D02*
X023058Y001772D01*
X024058Y002072D02*
X024058Y004372D01*
X025158Y004372D01*
X025158Y002072D01*
X024058Y002072D01*
X024258Y002772D02*
X024258Y002872D01*
X024558Y002872D01*
X024558Y002772D01*
X024658Y002772D02*
X024658Y002872D01*
X024958Y002872D01*
X024958Y002772D01*
X024862Y002972D02*
X024918Y003028D01*
X024748Y003028D01*
X024748Y002972D02*
X024748Y003085D01*
X024748Y003202D02*
X024862Y003315D01*
X024890Y003315D01*
X024918Y003287D01*
X024918Y003230D01*
X024890Y003202D01*
X024748Y003202D02*
X024748Y003315D01*
X024805Y003432D02*
X024748Y003489D01*
X024805Y003545D01*
X024918Y003545D01*
X024918Y003432D02*
X024805Y003432D01*
X024518Y003296D02*
X024405Y003296D01*
X024348Y003239D01*
X024405Y003182D01*
X024518Y003182D01*
X024518Y003065D02*
X024518Y002952D01*
X024433Y002952D01*
X024462Y003009D01*
X024462Y003037D01*
X024433Y003065D01*
X024377Y003065D01*
X024348Y003037D01*
X024348Y002980D01*
X024377Y002952D01*
X025558Y002322D02*
X025558Y003822D01*
X025808Y004072D01*
X026308Y004072D01*
X026558Y003822D01*
X026558Y002322D01*
X026308Y002072D01*
X025808Y002072D01*
X025558Y002322D01*
X025763Y001932D02*
X025849Y001932D01*
X025849Y001762D01*
X025763Y001762D01*
X025735Y001791D01*
X025735Y001904D01*
X025763Y001932D01*
X025965Y001932D02*
X025965Y001762D01*
X026079Y001932D01*
X026079Y001762D01*
X026195Y001791D02*
X026195Y001847D01*
X026252Y001847D01*
X026195Y001791D02*
X026224Y001762D01*
X026280Y001762D01*
X026309Y001791D01*
X026309Y001904D01*
X026280Y001932D01*
X026224Y001932D01*
X026195Y001904D01*
X026735Y001904D02*
X026763Y001932D01*
X026849Y001932D01*
X026849Y001762D01*
X026763Y001762D01*
X026735Y001791D01*
X026735Y001904D01*
X026808Y002072D02*
X026558Y002322D01*
X026808Y002072D02*
X027308Y002072D01*
X027558Y002322D01*
X027558Y003822D01*
X027808Y004072D01*
X028308Y004072D01*
X028558Y003822D01*
X028558Y002322D01*
X028308Y002072D01*
X027808Y002072D01*
X027558Y002322D01*
X027280Y001932D02*
X027309Y001904D01*
X027309Y001791D01*
X027280Y001762D01*
X027224Y001762D01*
X027195Y001791D01*
X027195Y001847D01*
X027252Y001847D01*
X027195Y001904D02*
X027224Y001932D01*
X027280Y001932D01*
X027079Y001932D02*
X026965Y001762D01*
X026965Y001932D01*
X027079Y001932D02*
X027079Y001762D01*
X027935Y001791D02*
X027963Y001762D01*
X028020Y001762D01*
X028048Y001791D01*
X028048Y001847D02*
X027992Y001876D01*
X027963Y001876D01*
X027935Y001847D01*
X027935Y001791D01*
X028048Y001847D02*
X028048Y001932D01*
X027935Y001932D01*
X028165Y001876D02*
X028222Y001932D01*
X028279Y001876D01*
X028279Y001762D01*
X028279Y001847D02*
X028165Y001847D01*
X028165Y001876D02*
X028165Y001762D01*
X028558Y002322D02*
X028808Y002072D01*
X029308Y002072D01*
X029558Y002322D01*
X029558Y003822D01*
X029808Y004072D01*
X030308Y004072D01*
X030558Y003822D01*
X030558Y002322D01*
X030308Y002072D01*
X029808Y002072D01*
X029558Y002322D01*
X029222Y001932D02*
X029165Y001876D01*
X029165Y001762D01*
X029165Y001847D02*
X029279Y001847D01*
X029279Y001876D02*
X029222Y001932D01*
X029279Y001876D02*
X029279Y001762D01*
X029048Y001847D02*
X028963Y001932D01*
X028963Y001762D01*
X028935Y001847D02*
X029048Y001847D01*
X029935Y001819D02*
X029935Y001791D01*
X029963Y001762D01*
X030020Y001762D01*
X030048Y001791D01*
X029992Y001847D02*
X029963Y001847D01*
X029935Y001819D01*
X029963Y001847D02*
X029935Y001876D01*
X029935Y001904D01*
X029963Y001932D01*
X030020Y001932D01*
X030048Y001904D01*
X030165Y001876D02*
X030165Y001762D01*
X030165Y001847D02*
X030279Y001847D01*
X030279Y001876D02*
X030222Y001932D01*
X030165Y001876D01*
X030279Y001876D02*
X030279Y001762D01*
X030808Y002072D02*
X030558Y002322D01*
X030808Y002072D02*
X031308Y002072D01*
X031558Y002322D01*
X031558Y003822D01*
X031808Y004072D01*
X032308Y004072D01*
X032558Y003822D01*
X032558Y002322D01*
X032308Y002072D01*
X031808Y002072D01*
X031558Y002322D01*
X031222Y001932D02*
X031165Y001876D01*
X031165Y001762D01*
X031165Y001847D02*
X031279Y001847D01*
X031279Y001876D02*
X031222Y001932D01*
X031279Y001876D02*
X031279Y001762D01*
X031048Y001762D02*
X030935Y001876D01*
X030935Y001904D01*
X030963Y001932D01*
X031020Y001932D01*
X031048Y001904D01*
X031048Y001762D02*
X030935Y001762D01*
X031935Y001762D02*
X032048Y001762D01*
X031992Y001762D02*
X031992Y001932D01*
X032048Y001876D01*
X032165Y001876D02*
X032165Y001762D01*
X032165Y001847D02*
X032279Y001847D01*
X032279Y001876D02*
X032222Y001932D01*
X032165Y001876D01*
X032279Y001876D02*
X032279Y001762D01*
X032808Y002072D02*
X032558Y002322D01*
X032808Y002072D02*
X033308Y002072D01*
X033558Y002322D01*
X033558Y003822D01*
X033308Y004072D01*
X032808Y004072D01*
X032558Y003822D01*
X032763Y004212D02*
X032735Y004241D01*
X032735Y004269D01*
X032763Y004297D01*
X032849Y004297D01*
X032849Y004241D01*
X032820Y004212D01*
X032763Y004212D01*
X032849Y004297D02*
X032792Y004354D01*
X032735Y004382D01*
X032735Y004512D02*
X032849Y004512D01*
X032849Y004682D01*
X032965Y004654D02*
X032994Y004682D01*
X033050Y004682D01*
X033079Y004654D01*
X033079Y004541D01*
X033050Y004512D01*
X032994Y004512D01*
X032965Y004541D01*
X033022Y004382D02*
X033022Y004212D01*
X033079Y004212D02*
X032965Y004212D01*
X033079Y004326D02*
X033022Y004382D01*
X033195Y004354D02*
X033195Y004241D01*
X033224Y004212D01*
X033309Y004212D01*
X033309Y004382D01*
X033224Y004382D01*
X033195Y004354D01*
X033224Y004512D02*
X033280Y004512D01*
X033309Y004541D01*
X033280Y004597D02*
X033224Y004597D01*
X033195Y004569D01*
X033195Y004541D01*
X033224Y004512D01*
X033280Y004597D02*
X033309Y004626D01*
X033309Y004654D01*
X033280Y004682D01*
X033224Y004682D01*
X033195Y004654D01*
X032309Y004654D02*
X032309Y004626D01*
X032280Y004597D01*
X032224Y004597D01*
X032195Y004569D01*
X032195Y004541D01*
X032224Y004512D01*
X032280Y004512D01*
X032309Y004541D01*
X032309Y004654D02*
X032280Y004682D01*
X032224Y004682D01*
X032195Y004654D01*
X032079Y004682D02*
X031994Y004682D01*
X031965Y004654D01*
X031965Y004541D01*
X031994Y004512D01*
X032079Y004512D01*
X032079Y004682D01*
X031849Y004626D02*
X031792Y004682D01*
X031735Y004626D01*
X031735Y004512D01*
X031735Y004597D02*
X031849Y004597D01*
X031849Y004626D02*
X031849Y004512D01*
X031849Y004382D02*
X031735Y004382D01*
X031735Y004354D01*
X031849Y004241D01*
X031849Y004212D01*
X031965Y004212D02*
X032079Y004212D01*
X032022Y004212D02*
X032022Y004382D01*
X032079Y004326D01*
X032195Y004354D02*
X032224Y004382D01*
X032309Y004382D01*
X032309Y004212D01*
X032224Y004212D01*
X032195Y004241D01*
X032195Y004354D01*
X031558Y003822D02*
X031308Y004072D01*
X030808Y004072D01*
X030558Y003822D01*
X030763Y004212D02*
X030820Y004212D01*
X030849Y004241D01*
X030735Y004354D01*
X030735Y004241D01*
X030763Y004212D01*
X030849Y004241D02*
X030849Y004354D01*
X030820Y004382D01*
X030763Y004382D01*
X030735Y004354D01*
X030735Y004512D02*
X030849Y004512D01*
X030792Y004512D02*
X030792Y004682D01*
X030849Y004626D01*
X030965Y004682D02*
X031079Y004512D01*
X030965Y004512D02*
X031079Y004682D01*
X031195Y004654D02*
X031195Y004597D01*
X031224Y004569D01*
X031309Y004569D01*
X031309Y004512D02*
X031309Y004682D01*
X031224Y004682D01*
X031195Y004654D01*
X031252Y004569D02*
X031195Y004512D01*
X031224Y004382D02*
X031309Y004382D01*
X031309Y004212D01*
X031224Y004212D01*
X031195Y004241D01*
X031195Y004354D01*
X031224Y004382D01*
X031079Y004326D02*
X031022Y004382D01*
X031022Y004212D01*
X031079Y004212D02*
X030965Y004212D01*
X030309Y004212D02*
X030309Y004382D01*
X030224Y004382D01*
X030195Y004354D01*
X030195Y004241D01*
X030224Y004212D01*
X030309Y004212D01*
X030079Y004212D02*
X029965Y004212D01*
X030022Y004212D02*
X030022Y004382D01*
X030079Y004326D01*
X030079Y004512D02*
X029965Y004682D01*
X030079Y004682D02*
X029965Y004512D01*
X029849Y004512D02*
X029735Y004512D01*
X029792Y004512D02*
X029792Y004682D01*
X029849Y004626D01*
X029792Y004382D02*
X029792Y004212D01*
X029849Y004212D02*
X029735Y004212D01*
X029849Y004326D02*
X029792Y004382D01*
X030252Y004512D02*
X030252Y004682D01*
X030309Y004682D02*
X030195Y004682D01*
X029309Y004682D02*
X029224Y004682D01*
X029195Y004654D01*
X029195Y004597D01*
X029224Y004569D01*
X029309Y004569D01*
X029309Y004512D02*
X029309Y004682D01*
X029079Y004682D02*
X029079Y004512D01*
X029022Y004569D01*
X028965Y004512D01*
X028965Y004682D01*
X028849Y004682D02*
X028792Y004626D01*
X028735Y004682D01*
X028735Y004512D01*
X028849Y004512D02*
X028849Y004682D01*
X028820Y004382D02*
X028849Y004354D01*
X028820Y004382D02*
X028763Y004382D01*
X028735Y004354D01*
X028735Y004326D01*
X028849Y004212D01*
X028735Y004212D01*
X028808Y004072D02*
X029308Y004072D01*
X029558Y003822D01*
X029309Y004212D02*
X029224Y004212D01*
X029195Y004241D01*
X029195Y004354D01*
X029224Y004382D01*
X029309Y004382D01*
X029309Y004212D01*
X029079Y004212D02*
X028965Y004212D01*
X029022Y004212D02*
X029022Y004382D01*
X029079Y004326D01*
X028808Y004072D02*
X028558Y003822D01*
X028250Y004212D02*
X028194Y004212D01*
X028165Y004241D01*
X028165Y004297D01*
X028194Y004326D01*
X028222Y004326D01*
X028279Y004297D01*
X028279Y004382D01*
X028165Y004382D01*
X028048Y004382D02*
X028048Y004269D01*
X027992Y004212D01*
X027935Y004269D01*
X027935Y004382D01*
X028250Y004212D02*
X028279Y004241D01*
X027558Y003822D02*
X027308Y004072D01*
X026808Y004072D01*
X026558Y003822D01*
X026309Y004212D02*
X026195Y004212D01*
X026252Y004212D02*
X026252Y004382D01*
X026309Y004326D01*
X026079Y004354D02*
X026050Y004382D01*
X025994Y004382D01*
X025965Y004354D01*
X025965Y004326D01*
X026079Y004212D01*
X025965Y004212D01*
X025849Y004269D02*
X025792Y004212D01*
X025735Y004269D01*
X025735Y004382D01*
X025849Y004382D02*
X025849Y004269D01*
X024989Y004204D02*
X024989Y004176D01*
X024961Y004147D01*
X024904Y004147D01*
X024876Y004119D01*
X024876Y004091D01*
X024904Y004062D01*
X024961Y004062D01*
X024989Y004091D01*
X024989Y004204D02*
X024961Y004232D01*
X024904Y004232D01*
X024876Y004204D01*
X024759Y004232D02*
X024645Y004232D01*
X024702Y004232D02*
X024702Y004062D01*
X024674Y003932D02*
X024645Y003904D01*
X024645Y003791D01*
X024674Y003762D01*
X024731Y003762D01*
X024759Y003791D01*
X024759Y003904D01*
X024731Y003932D01*
X024674Y003932D01*
X024529Y003932D02*
X024529Y003762D01*
X024415Y003762D01*
X024242Y003762D02*
X024242Y003932D01*
X024299Y003932D02*
X024185Y003932D01*
X024299Y004062D02*
X024299Y004232D01*
X024214Y004232D01*
X024185Y004204D01*
X024185Y004147D01*
X024214Y004119D01*
X024299Y004119D01*
X024415Y004091D02*
X024415Y004204D01*
X024444Y004232D01*
X024500Y004232D01*
X024529Y004204D01*
X024529Y004091D01*
X024500Y004062D01*
X024444Y004062D01*
X024415Y004091D01*
X024876Y003932D02*
X024876Y003819D01*
X024932Y003762D01*
X024989Y003819D01*
X024989Y003932D01*
X023405Y003896D02*
X023405Y003859D01*
X023368Y003822D01*
X023295Y003822D01*
X023258Y003786D01*
X023258Y003749D01*
X023295Y003712D01*
X023368Y003712D01*
X023405Y003749D01*
X023405Y003896D02*
X023368Y003932D01*
X023295Y003932D01*
X023258Y003896D01*
X023129Y003932D02*
X023055Y003932D01*
X023092Y003932D02*
X023092Y003712D01*
X023129Y003712D02*
X023055Y003712D01*
X022945Y003749D02*
X022908Y003712D01*
X022834Y003712D01*
X022798Y003749D01*
X022798Y003822D01*
X022871Y003822D01*
X022945Y003749D02*
X022945Y003896D01*
X022908Y003932D01*
X022834Y003932D01*
X022798Y003896D01*
X022321Y003822D02*
X022174Y003822D01*
X022247Y003896D02*
X022247Y003749D01*
X022044Y003786D02*
X022044Y003932D01*
X021898Y003932D02*
X021898Y003786D01*
X021971Y003712D01*
X022044Y003786D01*
X021397Y003749D02*
X021397Y003896D01*
X021360Y003932D01*
X021287Y003932D01*
X021250Y003896D01*
X021250Y003822D02*
X021324Y003822D01*
X021250Y003822D02*
X021250Y003749D01*
X021287Y003712D01*
X021360Y003712D01*
X021397Y003749D01*
X021121Y003712D02*
X021121Y003932D01*
X020974Y003712D01*
X020974Y003932D01*
X020845Y003932D02*
X020845Y003712D01*
X020734Y003712D01*
X020698Y003749D01*
X020698Y003896D01*
X020734Y003932D01*
X020845Y003932D01*
X020432Y003440D02*
X020358Y003440D01*
X020322Y003403D01*
X020322Y003293D01*
X020248Y003293D02*
X020468Y003293D01*
X020468Y003403D01*
X020432Y003440D01*
X020432Y003164D02*
X020468Y003127D01*
X020468Y003054D01*
X020432Y003017D01*
X020285Y003017D01*
X020248Y003054D01*
X020248Y003127D01*
X020285Y003164D01*
X020432Y003164D01*
X020468Y002888D02*
X020468Y002741D01*
X020468Y002814D02*
X020248Y002814D01*
X020285Y002611D02*
X020248Y002575D01*
X020248Y002501D01*
X020285Y002465D01*
X020358Y002501D02*
X020358Y002575D01*
X020322Y002611D01*
X020285Y002611D01*
X020358Y002501D02*
X020395Y002465D01*
X020432Y002465D01*
X020468Y002501D01*
X020468Y002575D01*
X020432Y002611D01*
X020358Y002335D02*
X020358Y002189D01*
X019368Y003712D02*
X019405Y003749D01*
X019368Y003712D02*
X019295Y003712D01*
X019258Y003749D01*
X019258Y003786D01*
X019295Y003822D01*
X019368Y003822D01*
X019405Y003859D01*
X019405Y003896D01*
X019368Y003932D01*
X019295Y003932D01*
X019258Y003896D01*
X019129Y003932D02*
X019055Y003932D01*
X019092Y003932D02*
X019092Y003712D01*
X019129Y003712D02*
X019055Y003712D01*
X018945Y003749D02*
X018908Y003712D01*
X018834Y003712D01*
X018798Y003749D01*
X018798Y003822D01*
X018871Y003822D01*
X018945Y003749D02*
X018945Y003896D01*
X018908Y003932D01*
X018834Y003932D01*
X018798Y003896D01*
X018321Y003822D02*
X018174Y003822D01*
X018247Y003896D02*
X018247Y003749D01*
X018044Y003786D02*
X017971Y003712D01*
X017898Y003786D01*
X017898Y003932D01*
X018044Y003932D02*
X018044Y003786D01*
X017397Y003749D02*
X017360Y003712D01*
X017287Y003712D01*
X017250Y003749D01*
X017250Y003822D01*
X017324Y003822D01*
X017397Y003896D02*
X017397Y003749D01*
X017397Y003896D02*
X017360Y003932D01*
X017287Y003932D01*
X017250Y003896D01*
X017121Y003932D02*
X016974Y003712D01*
X016974Y003932D01*
X016845Y003932D02*
X016734Y003932D01*
X016698Y003896D01*
X016698Y003749D01*
X016734Y003712D01*
X016845Y003712D01*
X016845Y003932D01*
X017121Y003932D02*
X017121Y003712D01*
X016468Y003403D02*
X016432Y003440D01*
X016358Y003440D01*
X016322Y003403D01*
X016322Y003293D01*
X016248Y003293D02*
X016468Y003293D01*
X016468Y003403D01*
X016432Y003164D02*
X016285Y003164D01*
X016248Y003127D01*
X016248Y003054D01*
X016285Y003017D01*
X016432Y003017D01*
X016468Y003054D01*
X016468Y003127D01*
X016432Y003164D01*
X016468Y002888D02*
X016468Y002741D01*
X016468Y002814D02*
X016248Y002814D01*
X016285Y002611D02*
X016248Y002575D01*
X016248Y002501D01*
X016285Y002465D01*
X016358Y002501D02*
X016358Y002575D01*
X016322Y002611D01*
X016285Y002611D01*
X016358Y002501D02*
X016395Y002465D01*
X016432Y002465D01*
X016468Y002501D01*
X016468Y002575D01*
X016432Y002611D01*
X016358Y002335D02*
X016358Y002189D01*
X015368Y003712D02*
X015405Y003749D01*
X015368Y003712D02*
X015295Y003712D01*
X015258Y003749D01*
X015258Y003786D01*
X015295Y003822D01*
X015368Y003822D01*
X015405Y003859D01*
X015405Y003896D01*
X015368Y003932D01*
X015295Y003932D01*
X015258Y003896D01*
X015129Y003932D02*
X015055Y003932D01*
X015092Y003932D02*
X015092Y003712D01*
X015129Y003712D02*
X015055Y003712D01*
X014945Y003749D02*
X014908Y003712D01*
X014834Y003712D01*
X014798Y003749D01*
X014798Y003822D01*
X014871Y003822D01*
X014945Y003749D02*
X014945Y003896D01*
X014908Y003932D01*
X014834Y003932D01*
X014798Y003896D01*
X014321Y003822D02*
X014174Y003822D01*
X014247Y003896D02*
X014247Y003749D01*
X014044Y003786D02*
X013971Y003712D01*
X013898Y003786D01*
X013898Y003932D01*
X014044Y003932D02*
X014044Y003786D01*
X013397Y003749D02*
X013360Y003712D01*
X013287Y003712D01*
X013250Y003749D01*
X013250Y003822D01*
X013324Y003822D01*
X013397Y003896D02*
X013397Y003749D01*
X013397Y003896D02*
X013360Y003932D01*
X013287Y003932D01*
X013250Y003896D01*
X013121Y003932D02*
X012974Y003712D01*
X012974Y003932D01*
X012845Y003932D02*
X012734Y003932D01*
X012698Y003896D01*
X012698Y003749D01*
X012734Y003712D01*
X012845Y003712D01*
X012845Y003932D01*
X013121Y003932D02*
X013121Y003712D01*
X012558Y003572D02*
X012558Y001772D01*
X013058Y001772D01*
X008518Y003299D02*
X008482Y003262D01*
X008408Y003262D01*
X008371Y003299D01*
X008371Y003482D01*
X008242Y003446D02*
X008242Y003409D01*
X008205Y003372D01*
X008132Y003372D01*
X008095Y003336D01*
X008095Y003299D01*
X008132Y003262D01*
X008205Y003262D01*
X008242Y003299D01*
X008242Y003446D02*
X008205Y003482D01*
X008132Y003482D01*
X008095Y003446D01*
X007966Y003482D02*
X007856Y003482D01*
X007819Y003446D01*
X007819Y003409D01*
X007856Y003372D01*
X007966Y003372D01*
X007966Y003262D02*
X007856Y003262D01*
X007819Y003299D01*
X007819Y003336D01*
X007856Y003372D01*
X007966Y003262D02*
X007966Y003482D01*
X007690Y003446D02*
X007653Y003482D01*
X007580Y003482D01*
X007543Y003446D01*
X007543Y003409D01*
X007690Y003262D01*
X007543Y003262D01*
X007340Y003262D02*
X007340Y003482D01*
X007413Y003482D02*
X007267Y003482D01*
X007137Y003482D02*
X006990Y003482D01*
X007064Y003482D02*
X007064Y003262D01*
X006861Y003262D02*
X006861Y003482D01*
X006861Y003262D02*
X006714Y003262D01*
X008518Y003299D02*
X008518Y003482D01*
X004830Y005722D02*
X002192Y005722D01*
X001759Y005722D02*
X001258Y005722D01*
X001258Y009422D01*
X004830Y009423D01*
X004830Y005722D01*
X004869Y006746D02*
X005539Y006746D01*
X005539Y008399D01*
X004869Y008399D01*
X004418Y008912D02*
X004271Y008912D01*
X004345Y008912D02*
X004345Y009132D01*
X004418Y009059D01*
X004142Y009096D02*
X004105Y009132D01*
X004032Y009132D01*
X003995Y009096D01*
X003995Y009059D01*
X004142Y008912D01*
X003995Y008912D01*
X003866Y008986D02*
X003792Y008912D01*
X003719Y008986D01*
X003719Y009132D01*
X003866Y009132D02*
X003866Y008986D01*
X003058Y009572D02*
X003058Y013572D01*
X001258Y013572D01*
X001258Y013072D01*
X001558Y013072D01*
X001558Y010072D01*
X001258Y010072D01*
X001258Y013072D01*
X001285Y013662D02*
X001248Y013699D01*
X001248Y013846D01*
X001285Y013882D01*
X001395Y013882D01*
X001395Y013662D01*
X001285Y013662D01*
X001524Y013662D02*
X001671Y013662D01*
X001671Y013882D01*
X001524Y013882D01*
X001597Y013772D02*
X001671Y013772D01*
X001800Y013736D02*
X001800Y013699D01*
X001837Y013662D01*
X001947Y013662D01*
X001947Y013882D01*
X001837Y013882D01*
X001800Y013846D01*
X001800Y013809D01*
X001837Y013772D01*
X001947Y013772D01*
X001837Y013772D02*
X001800Y013736D01*
X002076Y013882D02*
X002223Y013662D01*
X002353Y013662D02*
X002499Y013662D01*
X002353Y013809D01*
X002353Y013846D01*
X002389Y013882D01*
X002463Y013882D01*
X002499Y013846D01*
X002629Y013846D02*
X002629Y013772D01*
X002666Y013736D01*
X002776Y013736D01*
X002702Y013736D02*
X002629Y013662D01*
X002776Y013662D02*
X002776Y013882D01*
X002666Y013882D01*
X002629Y013846D01*
X002905Y013882D02*
X002905Y013662D01*
X002979Y013736D01*
X003052Y013662D01*
X003052Y013882D01*
X003181Y013846D02*
X003181Y013772D01*
X003218Y013736D01*
X003328Y013736D01*
X003328Y013662D02*
X003328Y013882D01*
X003218Y013882D01*
X003181Y013846D01*
X003058Y014072D02*
X003058Y018072D01*
X001258Y018072D01*
X001258Y017572D01*
X001558Y017572D01*
X001558Y014572D01*
X001258Y014572D01*
X001258Y017572D01*
X001395Y018162D02*
X001395Y018382D01*
X001285Y018382D01*
X001248Y018346D01*
X001248Y018272D01*
X001285Y018236D01*
X001395Y018236D01*
X001505Y018162D02*
X001579Y018162D01*
X001542Y018162D02*
X001542Y018382D01*
X001579Y018382D02*
X001505Y018382D01*
X001708Y018382D02*
X001855Y018382D01*
X001782Y018382D02*
X001782Y018162D01*
X001984Y018382D02*
X002131Y018162D01*
X002261Y018162D02*
X002407Y018162D01*
X002334Y018162D02*
X002334Y018382D01*
X002407Y018309D01*
X002537Y018272D02*
X002574Y018236D01*
X002684Y018236D01*
X002684Y018162D02*
X002684Y018382D01*
X002574Y018382D01*
X002537Y018346D01*
X002537Y018272D01*
X002610Y018236D02*
X002537Y018162D01*
X002813Y018162D02*
X002813Y018382D01*
X002960Y018382D02*
X002960Y018162D01*
X002886Y018236D01*
X002813Y018162D01*
X003089Y018272D02*
X003126Y018236D01*
X003236Y018236D01*
X003236Y018162D02*
X003236Y018382D01*
X003126Y018382D01*
X003089Y018346D01*
X003089Y018272D01*
X002918Y017183D02*
X002772Y017183D01*
X002698Y017109D01*
X002772Y017036D01*
X002918Y017036D01*
X002808Y016907D02*
X002808Y016760D01*
X002772Y015683D02*
X002918Y015683D01*
X002772Y015683D02*
X002698Y015609D01*
X002772Y015536D01*
X002918Y015536D01*
X002882Y015407D02*
X002845Y015407D01*
X002698Y015260D01*
X002698Y015407D01*
X002882Y015407D02*
X002918Y015370D01*
X002918Y015296D01*
X002882Y015260D01*
X002918Y015057D02*
X002698Y015057D01*
X002698Y014984D02*
X002698Y015130D01*
X002845Y014984D02*
X002918Y015057D01*
X002808Y014854D02*
X002808Y014707D01*
X002735Y014781D02*
X002882Y014781D01*
X003058Y014072D02*
X001258Y014072D01*
X001258Y014572D01*
X002772Y012683D02*
X002918Y012683D01*
X002772Y012683D02*
X002698Y012609D01*
X002772Y012536D01*
X002918Y012536D01*
X002808Y012407D02*
X002808Y012260D01*
X002772Y011183D02*
X002918Y011183D01*
X002772Y011183D02*
X002698Y011109D01*
X002772Y011036D01*
X002918Y011036D01*
X002882Y010907D02*
X002845Y010907D01*
X002698Y010760D01*
X002698Y010907D01*
X002882Y010907D02*
X002918Y010870D01*
X002918Y010796D01*
X002882Y010760D01*
X002918Y010557D02*
X002698Y010557D01*
X002698Y010484D02*
X002698Y010630D01*
X002845Y010484D02*
X002918Y010557D01*
X002808Y010354D02*
X002808Y010207D01*
X002735Y010281D02*
X002882Y010281D01*
X003058Y009572D02*
X001258Y009572D01*
X001258Y010072D01*
X001706Y009132D02*
X001816Y009132D01*
X001816Y008912D01*
X001706Y008912D01*
X001669Y008949D01*
X001669Y009096D01*
X001706Y009132D01*
X001945Y009132D02*
X001945Y008912D01*
X002092Y009132D01*
X002092Y008912D01*
X002221Y008949D02*
X002221Y009022D01*
X002295Y009022D01*
X002368Y009096D02*
X002368Y008949D01*
X002332Y008912D01*
X002258Y008912D01*
X002221Y008949D01*
X002221Y009096D02*
X002258Y009132D01*
X002332Y009132D01*
X002368Y009096D01*
X014907Y010120D02*
X014907Y006025D01*
X017210Y006025D01*
X017210Y010120D01*
X014907Y010120D01*
X014970Y010056D02*
X017146Y010056D01*
X017146Y006089D01*
X014970Y006089D01*
X014970Y010056D01*
X015898Y008883D02*
X015898Y008736D01*
X016118Y008736D01*
X016082Y008607D02*
X016008Y008607D01*
X015972Y008570D01*
X015972Y008460D01*
X015972Y008533D02*
X015898Y008607D01*
X015898Y008460D02*
X016118Y008460D01*
X016118Y008570D01*
X016082Y008607D01*
X016082Y008330D02*
X016118Y008294D01*
X016118Y008220D01*
X016082Y008184D01*
X016082Y008054D02*
X016045Y008054D01*
X016008Y008017D01*
X015972Y008054D01*
X015935Y008054D01*
X015898Y008017D01*
X015898Y007944D01*
X015935Y007907D01*
X016008Y007981D02*
X016008Y008017D01*
X016082Y008054D02*
X016118Y008017D01*
X016118Y007944D01*
X016082Y007907D01*
X016082Y007778D02*
X016118Y007741D01*
X016118Y007668D01*
X016082Y007631D01*
X016118Y007502D02*
X016118Y007355D01*
X016118Y007428D02*
X015898Y007428D01*
X015898Y007631D02*
X016045Y007778D01*
X016082Y007778D01*
X015898Y007778D02*
X015898Y007631D01*
X016118Y007225D02*
X016118Y007079D01*
X015898Y007079D01*
X016008Y007079D02*
X016008Y007152D01*
X015898Y008184D02*
X016045Y008330D01*
X016082Y008330D01*
X015898Y008330D02*
X015898Y008184D01*
X016645Y009736D02*
X016647Y009762D01*
X016653Y009788D01*
X016662Y009813D01*
X016675Y009836D01*
X016691Y009857D01*
X016710Y009875D01*
X016732Y009891D01*
X016755Y009903D01*
X016780Y009911D01*
X016806Y009916D01*
X016833Y009917D01*
X016859Y009914D01*
X016884Y009907D01*
X016909Y009897D01*
X016931Y009883D01*
X016952Y009866D01*
X016969Y009847D01*
X016984Y009825D01*
X016995Y009801D01*
X017003Y009775D01*
X017007Y009749D01*
X017007Y009723D01*
X017003Y009697D01*
X016995Y009671D01*
X016984Y009647D01*
X016969Y009625D01*
X016952Y009606D01*
X016931Y009589D01*
X016909Y009575D01*
X016884Y009565D01*
X016859Y009558D01*
X016833Y009555D01*
X016806Y009556D01*
X016780Y009561D01*
X016755Y009569D01*
X016732Y009581D01*
X016710Y009597D01*
X016691Y009615D01*
X016675Y009636D01*
X016662Y009659D01*
X016653Y009684D01*
X016647Y009710D01*
X016645Y009736D01*
X026935Y004382D02*
X026935Y004269D01*
X026992Y004212D01*
X027048Y004269D01*
X027048Y004382D01*
X027165Y004382D02*
X027279Y004382D01*
X027279Y004297D01*
X027222Y004326D01*
X027194Y004326D01*
X027165Y004297D01*
X027165Y004241D01*
X027194Y004212D01*
X027250Y004212D01*
X027279Y004241D01*
X032935Y001904D02*
X033048Y001791D01*
X033020Y001762D01*
X032963Y001762D01*
X032935Y001791D01*
X032935Y001904D01*
X032963Y001932D01*
X033020Y001932D01*
X033048Y001904D01*
X033048Y001791D01*
X033165Y001762D02*
X033165Y001876D01*
X033222Y001932D01*
X033279Y001876D01*
X033279Y001762D01*
X033279Y001847D02*
X033165Y001847D01*
X038042Y004629D02*
X038042Y004739D01*
X038079Y004775D01*
X038115Y004775D01*
X038152Y004739D01*
X038152Y004629D01*
X038152Y004739D02*
X038189Y004775D01*
X038225Y004775D01*
X038262Y004739D01*
X038262Y004629D01*
X038042Y004629D01*
X038152Y004905D02*
X038152Y005052D01*
X038262Y005181D02*
X038262Y005328D01*
X038262Y005254D02*
X038042Y005254D01*
X038042Y005457D02*
X038262Y005457D01*
X038152Y005457D02*
X038152Y005604D01*
X038262Y005604D02*
X038042Y005604D01*
X038042Y005734D02*
X038042Y005880D01*
X038042Y006010D02*
X038262Y006010D01*
X038262Y006120D01*
X038225Y006157D01*
X038152Y006157D01*
X038115Y006120D01*
X038115Y006010D01*
X038115Y006083D02*
X038042Y006157D01*
X038042Y006286D02*
X038262Y006286D01*
X038189Y006359D01*
X038262Y006433D01*
X038042Y006433D01*
X038452Y006322D02*
X038702Y006572D01*
X039202Y006572D01*
X039452Y006322D01*
X039452Y005822D01*
X039202Y005572D01*
X039452Y005322D01*
X039452Y004822D01*
X039202Y004572D01*
X038702Y004572D01*
X038452Y004822D01*
X038452Y005322D01*
X038702Y005572D01*
X038452Y005822D01*
X038452Y006322D01*
X038262Y005880D02*
X038262Y005734D01*
X038042Y005734D01*
X038152Y005734D02*
X038152Y005807D01*
X038152Y007629D02*
X038152Y007702D01*
X038262Y007629D02*
X038042Y007629D01*
X038042Y007775D01*
X038152Y007905D02*
X038152Y008052D01*
X038262Y008181D02*
X038262Y008328D01*
X038262Y008254D02*
X038042Y008254D01*
X038042Y008457D02*
X038262Y008457D01*
X038152Y008457D02*
X038152Y008604D01*
X038262Y008604D02*
X038042Y008604D01*
X038042Y008734D02*
X038042Y008880D01*
X038042Y009010D02*
X038262Y009010D01*
X038262Y009120D01*
X038225Y009157D01*
X038152Y009157D01*
X038115Y009120D01*
X038115Y009010D01*
X038115Y009083D02*
X038042Y009157D01*
X038042Y009286D02*
X038262Y009286D01*
X038189Y009359D01*
X038262Y009433D01*
X038042Y009433D01*
X038452Y009322D02*
X038702Y009572D01*
X039202Y009572D01*
X039452Y009322D01*
X039452Y008822D01*
X039202Y008572D01*
X039452Y008322D01*
X039452Y007822D01*
X039202Y007572D01*
X038702Y007572D01*
X038452Y007822D01*
X038452Y008322D01*
X038702Y008572D01*
X038452Y008822D01*
X038452Y009322D01*
X038262Y008880D02*
X038262Y008734D01*
X038042Y008734D01*
X038152Y008734D02*
X038152Y008807D01*
X038262Y007775D02*
X038262Y007629D01*
X037915Y009922D02*
X039615Y009922D01*
X040115Y010672D01*
X040115Y017922D01*
X039615Y018422D01*
X037915Y018422D01*
X037915Y009922D01*
X038798Y010186D02*
X038798Y010332D01*
X038798Y010186D02*
X038871Y010112D01*
X038945Y010186D01*
X038945Y010332D01*
X039074Y010332D02*
X039221Y010332D01*
X039221Y010222D01*
X039147Y010259D01*
X039111Y010259D01*
X039074Y010222D01*
X039074Y010149D01*
X039111Y010112D01*
X039184Y010112D01*
X039221Y010149D01*
X039350Y010222D02*
X039497Y010222D01*
X039424Y010296D02*
X039424Y010149D01*
X038882Y013834D02*
X038735Y013834D01*
X038698Y013870D01*
X038698Y013944D01*
X038735Y013980D01*
X038808Y013980D01*
X038808Y013907D01*
X038882Y013980D02*
X038918Y013944D01*
X038918Y013870D01*
X038882Y013834D01*
X038918Y014110D02*
X038698Y014110D01*
X038698Y014257D02*
X038918Y014257D01*
X038918Y014386D02*
X038698Y014386D01*
X038698Y014496D01*
X038735Y014533D01*
X038882Y014533D01*
X038918Y014496D01*
X038918Y014386D01*
X038698Y014257D02*
X038918Y014110D01*
X038974Y018012D02*
X039121Y018012D01*
X038974Y018159D01*
X038974Y018196D01*
X039011Y018232D01*
X039084Y018232D01*
X039121Y018196D01*
X039324Y018232D02*
X039324Y018012D01*
X039397Y018012D02*
X039250Y018012D01*
X039397Y018159D02*
X039324Y018232D01*
X039526Y018122D02*
X039673Y018122D01*
X039600Y018196D02*
X039600Y018049D01*
X038845Y018086D02*
X038771Y018012D01*
X038698Y018086D01*
X038698Y018232D01*
X038845Y018232D02*
X038845Y018086D01*
X035558Y019072D02*
X031558Y019072D01*
X031558Y021072D01*
X032058Y021072D01*
X032058Y020572D01*
X035058Y020572D01*
X035058Y021072D01*
X032058Y021072D01*
X031418Y020946D02*
X031382Y020983D01*
X031308Y020983D01*
X031272Y020946D01*
X031272Y020836D01*
X031272Y020909D02*
X031198Y020983D01*
X031198Y020836D02*
X031418Y020836D01*
X031418Y020946D01*
X031382Y020707D02*
X031418Y020670D01*
X031418Y020596D01*
X031382Y020560D01*
X031235Y020560D01*
X031198Y020596D01*
X031198Y020670D01*
X031235Y020707D01*
X031382Y020707D01*
X031418Y020430D02*
X031418Y020284D01*
X031418Y020357D02*
X031198Y020357D01*
X031235Y020154D02*
X031382Y020154D01*
X031418Y020117D01*
X031418Y020044D01*
X031382Y020007D01*
X031235Y020007D01*
X031198Y020044D01*
X031198Y020117D01*
X031235Y020154D01*
X031198Y019878D02*
X031418Y019878D01*
X031345Y019804D01*
X031418Y019731D01*
X031198Y019731D01*
X031308Y019602D02*
X031308Y019455D01*
X031198Y019325D02*
X031198Y019179D01*
X031418Y019179D01*
X031418Y019325D01*
X031308Y019252D02*
X031308Y019179D01*
X031830Y018893D02*
X031830Y018857D01*
X031866Y018820D01*
X031976Y018820D01*
X031866Y018820D02*
X031830Y018783D01*
X031830Y018747D01*
X031866Y018710D01*
X031976Y018710D01*
X031976Y018930D01*
X031866Y018930D01*
X031830Y018893D01*
X032106Y018893D02*
X032143Y018930D01*
X032216Y018930D01*
X032253Y018893D01*
X032106Y018893D02*
X032106Y018857D01*
X032253Y018710D01*
X032106Y018710D01*
X032830Y018710D02*
X032830Y018857D01*
X032903Y018930D01*
X032976Y018857D01*
X032976Y018710D01*
X032976Y018820D02*
X032830Y018820D01*
X033106Y018857D02*
X033106Y018893D01*
X033143Y018930D01*
X033216Y018930D01*
X033253Y018893D01*
X033106Y018857D02*
X033253Y018710D01*
X033106Y018710D01*
X033830Y018710D02*
X033830Y018857D01*
X033903Y018930D01*
X033976Y018857D01*
X033976Y018710D01*
X033976Y018820D02*
X033830Y018820D01*
X034106Y018710D02*
X034253Y018710D01*
X034179Y018710D02*
X034179Y018930D01*
X034253Y018857D01*
X034830Y018857D02*
X034866Y018820D01*
X034976Y018820D01*
X034866Y018820D02*
X034830Y018783D01*
X034830Y018747D01*
X034866Y018710D01*
X034976Y018710D01*
X034976Y018930D01*
X034866Y018930D01*
X034830Y018893D01*
X034830Y018857D01*
X035106Y018710D02*
X035253Y018710D01*
X035179Y018710D02*
X035179Y018930D01*
X035253Y018857D01*
X035558Y019072D02*
X035558Y021072D01*
X035058Y021072D01*
X030558Y021072D02*
X030558Y019072D01*
X028558Y019072D01*
X028558Y021072D01*
X029058Y021072D01*
X029058Y020572D01*
X030058Y020572D01*
X030058Y021072D01*
X029058Y021072D01*
X028418Y020946D02*
X028382Y020983D01*
X028308Y020983D01*
X028272Y020946D01*
X028272Y020836D01*
X028272Y020909D02*
X028198Y020983D01*
X028198Y020836D02*
X028418Y020836D01*
X028418Y020946D01*
X028418Y020707D02*
X028198Y020707D01*
X028272Y020633D01*
X028198Y020560D01*
X028418Y020560D01*
X028382Y020430D02*
X028308Y020430D01*
X028272Y020394D01*
X028272Y020284D01*
X028198Y020284D02*
X028418Y020284D01*
X028418Y020394D01*
X028382Y020430D01*
X028418Y019878D02*
X028272Y019878D01*
X028198Y019804D01*
X028272Y019731D01*
X028418Y019731D01*
X028382Y019602D02*
X028418Y019565D01*
X028418Y019492D01*
X028382Y019455D01*
X028382Y019602D02*
X028345Y019602D01*
X028198Y019455D01*
X028198Y019602D01*
X028198Y019325D02*
X028198Y019179D01*
X028198Y019252D02*
X028418Y019252D01*
X028345Y019179D01*
X028598Y018896D02*
X028634Y018932D01*
X028745Y018932D01*
X028745Y018712D01*
X028634Y018712D01*
X028598Y018749D01*
X028598Y018896D01*
X028874Y018932D02*
X028874Y018712D01*
X029021Y018932D01*
X029021Y018712D01*
X029150Y018749D02*
X029150Y018822D01*
X029224Y018822D01*
X029297Y018749D02*
X029260Y018712D01*
X029187Y018712D01*
X029150Y018749D01*
X029150Y018896D02*
X029187Y018932D01*
X029260Y018932D01*
X029297Y018896D01*
X029297Y018749D01*
X029598Y018786D02*
X029598Y018932D01*
X029598Y018786D02*
X029671Y018712D01*
X029745Y018786D01*
X029745Y018932D01*
X029874Y018896D02*
X029911Y018932D01*
X029984Y018932D01*
X030021Y018896D01*
X029874Y018896D02*
X029874Y018859D01*
X030021Y018712D01*
X029874Y018712D01*
X030150Y018712D02*
X030297Y018712D01*
X030224Y018712D02*
X030224Y018932D01*
X030297Y018859D01*
X030426Y018822D02*
X030573Y018822D01*
X030500Y018896D02*
X030500Y018749D01*
X027558Y019072D02*
X023558Y019072D01*
X023558Y021072D01*
X024058Y021072D01*
X024058Y020572D01*
X027058Y020572D01*
X027058Y021072D01*
X024058Y021072D01*
X023418Y020946D02*
X023382Y020983D01*
X023308Y020983D01*
X023272Y020946D01*
X023272Y020836D01*
X023272Y020909D02*
X023198Y020983D01*
X023198Y020836D02*
X023418Y020836D01*
X023418Y020946D01*
X023382Y020707D02*
X023235Y020707D01*
X023198Y020670D01*
X023198Y020596D01*
X023235Y020560D01*
X023382Y020560D01*
X023418Y020596D01*
X023418Y020670D01*
X023382Y020707D01*
X023418Y020430D02*
X023418Y020284D01*
X023418Y020357D02*
X023198Y020357D01*
X023235Y020154D02*
X023382Y020154D01*
X023418Y020117D01*
X023418Y020044D01*
X023382Y020007D01*
X023235Y020007D01*
X023198Y020044D01*
X023198Y020117D01*
X023235Y020154D01*
X023198Y019878D02*
X023418Y019878D01*
X023345Y019804D01*
X023418Y019731D01*
X023198Y019731D01*
X023308Y019602D02*
X023308Y019455D01*
X023382Y019325D02*
X023235Y019179D01*
X023198Y019179D01*
X023198Y019325D01*
X023382Y019325D02*
X023418Y019325D01*
X023418Y019179D01*
X023830Y018893D02*
X023830Y018857D01*
X023866Y018820D01*
X023976Y018820D01*
X023866Y018820D02*
X023830Y018783D01*
X023830Y018747D01*
X023866Y018710D01*
X023976Y018710D01*
X023976Y018930D01*
X023866Y018930D01*
X023830Y018893D01*
X024106Y018893D02*
X024143Y018930D01*
X024216Y018930D01*
X024253Y018893D01*
X024106Y018893D02*
X024106Y018857D01*
X024253Y018710D01*
X024106Y018710D01*
X024830Y018710D02*
X024830Y018857D01*
X024903Y018930D01*
X024976Y018857D01*
X024976Y018710D01*
X024976Y018820D02*
X024830Y018820D01*
X025106Y018857D02*
X025106Y018893D01*
X025143Y018930D01*
X025216Y018930D01*
X025253Y018893D01*
X025106Y018857D02*
X025253Y018710D01*
X025106Y018710D01*
X025830Y018710D02*
X025830Y018857D01*
X025903Y018930D01*
X025976Y018857D01*
X025976Y018710D01*
X025976Y018820D02*
X025830Y018820D01*
X026106Y018710D02*
X026253Y018710D01*
X026179Y018710D02*
X026179Y018930D01*
X026253Y018857D01*
X026830Y018857D02*
X026866Y018820D01*
X026976Y018820D01*
X026866Y018820D02*
X026830Y018783D01*
X026830Y018747D01*
X026866Y018710D01*
X026976Y018710D01*
X026976Y018930D01*
X026866Y018930D01*
X026830Y018893D01*
X026830Y018857D01*
X027106Y018710D02*
X027253Y018710D01*
X027179Y018710D02*
X027179Y018930D01*
X027253Y018857D01*
X027558Y019072D02*
X027558Y021072D01*
X027058Y021072D01*
X030058Y021072D02*
X030558Y021072D01*
X022558Y021072D02*
X022558Y019072D01*
X020558Y019072D01*
X020558Y021072D01*
X021058Y021072D01*
X021058Y020572D01*
X022058Y020572D01*
X022058Y021072D01*
X021058Y021072D01*
X020418Y020946D02*
X020382Y020983D01*
X020308Y020983D01*
X020272Y020946D01*
X020272Y020836D01*
X020272Y020909D02*
X020198Y020983D01*
X020198Y020836D02*
X020418Y020836D01*
X020418Y020946D01*
X020418Y020707D02*
X020198Y020707D01*
X020272Y020633D01*
X020198Y020560D01*
X020418Y020560D01*
X020382Y020430D02*
X020308Y020430D01*
X020272Y020394D01*
X020272Y020284D01*
X020198Y020284D02*
X020418Y020284D01*
X020418Y020394D01*
X020382Y020430D01*
X020418Y019878D02*
X020272Y019878D01*
X020198Y019804D01*
X020272Y019731D01*
X020418Y019731D01*
X020382Y019602D02*
X020418Y019565D01*
X020418Y019492D01*
X020382Y019455D01*
X020382Y019602D02*
X020345Y019602D01*
X020198Y019455D01*
X020198Y019602D01*
X020198Y019325D02*
X020198Y019179D01*
X020198Y019252D02*
X020418Y019252D01*
X020345Y019179D01*
X020598Y018896D02*
X020634Y018932D01*
X020745Y018932D01*
X020745Y018712D01*
X020634Y018712D01*
X020598Y018749D01*
X020598Y018896D01*
X020874Y018932D02*
X020874Y018712D01*
X021021Y018932D01*
X021021Y018712D01*
X021150Y018749D02*
X021150Y018822D01*
X021224Y018822D01*
X021297Y018749D02*
X021260Y018712D01*
X021187Y018712D01*
X021150Y018749D01*
X021150Y018896D02*
X021187Y018932D01*
X021260Y018932D01*
X021297Y018896D01*
X021297Y018749D01*
X021598Y018786D02*
X021598Y018932D01*
X021598Y018786D02*
X021671Y018712D01*
X021745Y018786D01*
X021745Y018932D01*
X021874Y018896D02*
X021911Y018932D01*
X021984Y018932D01*
X022021Y018896D01*
X021874Y018896D02*
X021874Y018859D01*
X022021Y018712D01*
X021874Y018712D01*
X022150Y018712D02*
X022297Y018712D01*
X022224Y018712D02*
X022224Y018932D01*
X022297Y018859D01*
X022426Y018822D02*
X022573Y018822D01*
X022500Y018896D02*
X022500Y018749D01*
X019558Y019072D02*
X015558Y019072D01*
X015558Y021072D01*
X016058Y021072D01*
X016058Y020572D01*
X019058Y020572D01*
X019058Y021072D01*
X016058Y021072D01*
X015418Y020946D02*
X015382Y020983D01*
X015308Y020983D01*
X015272Y020946D01*
X015272Y020836D01*
X015272Y020909D02*
X015198Y020983D01*
X015198Y020836D02*
X015418Y020836D01*
X015418Y020946D01*
X015382Y020707D02*
X015418Y020670D01*
X015418Y020596D01*
X015382Y020560D01*
X015235Y020560D01*
X015198Y020596D01*
X015198Y020670D01*
X015235Y020707D01*
X015382Y020707D01*
X015418Y020430D02*
X015418Y020284D01*
X015418Y020357D02*
X015198Y020357D01*
X015235Y020154D02*
X015382Y020154D01*
X015418Y020117D01*
X015418Y020044D01*
X015382Y020007D01*
X015235Y020007D01*
X015198Y020044D01*
X015198Y020117D01*
X015235Y020154D01*
X015198Y019878D02*
X015418Y019878D01*
X015345Y019804D01*
X015418Y019731D01*
X015198Y019731D01*
X015308Y019602D02*
X015308Y019455D01*
X015382Y019325D02*
X015418Y019325D01*
X015382Y019325D02*
X015308Y019252D01*
X015198Y019252D01*
X015308Y019252D02*
X015382Y019179D01*
X015418Y019179D01*
X015848Y018896D02*
X015848Y018859D01*
X015884Y018822D01*
X015994Y018822D01*
X015884Y018822D02*
X015848Y018786D01*
X015848Y018749D01*
X015884Y018712D01*
X015994Y018712D01*
X015994Y018932D01*
X015884Y018932D01*
X015848Y018896D01*
X016124Y018896D02*
X016161Y018932D01*
X016234Y018932D01*
X016271Y018896D01*
X016124Y018896D02*
X016124Y018859D01*
X016271Y018712D01*
X016124Y018712D01*
X016848Y018712D02*
X016848Y018859D01*
X016921Y018932D01*
X016994Y018859D01*
X016994Y018712D01*
X016994Y018822D02*
X016848Y018822D01*
X017124Y018859D02*
X017124Y018896D01*
X017161Y018932D01*
X017234Y018932D01*
X017271Y018896D01*
X017124Y018859D02*
X017271Y018712D01*
X017124Y018712D01*
X017848Y018712D02*
X017848Y018859D01*
X017921Y018932D01*
X017994Y018859D01*
X017994Y018712D01*
X017994Y018822D02*
X017848Y018822D01*
X018124Y018712D02*
X018271Y018712D01*
X018197Y018712D02*
X018197Y018932D01*
X018271Y018859D01*
X018848Y018859D02*
X018884Y018822D01*
X018994Y018822D01*
X018884Y018822D02*
X018848Y018786D01*
X018848Y018749D01*
X018884Y018712D01*
X018994Y018712D01*
X018994Y018932D01*
X018884Y018932D01*
X018848Y018896D01*
X018848Y018859D01*
X019124Y018712D02*
X019271Y018712D01*
X019197Y018712D02*
X019197Y018932D01*
X019271Y018859D01*
X019558Y019072D02*
X019558Y021072D01*
X019058Y021072D01*
X022058Y021072D02*
X022558Y021072D01*
X014558Y021072D02*
X014558Y019072D01*
X012558Y019072D01*
X012558Y021072D01*
X013058Y021072D01*
X013058Y020572D01*
X014058Y020572D01*
X014058Y021072D01*
X013058Y021072D01*
X012418Y020946D02*
X012382Y020983D01*
X012308Y020983D01*
X012272Y020946D01*
X012272Y020836D01*
X012272Y020909D02*
X012198Y020983D01*
X012198Y020836D02*
X012418Y020836D01*
X012418Y020946D01*
X012418Y020707D02*
X012198Y020707D01*
X012272Y020633D01*
X012198Y020560D01*
X012418Y020560D01*
X012382Y020430D02*
X012308Y020430D01*
X012272Y020394D01*
X012272Y020284D01*
X012198Y020284D02*
X012418Y020284D01*
X012418Y020394D01*
X012382Y020430D01*
X012418Y019878D02*
X012272Y019878D01*
X012198Y019804D01*
X012272Y019731D01*
X012418Y019731D01*
X012382Y019602D02*
X012418Y019565D01*
X012418Y019492D01*
X012382Y019455D01*
X012382Y019602D02*
X012345Y019602D01*
X012198Y019455D01*
X012198Y019602D01*
X012198Y019325D02*
X012198Y019179D01*
X012198Y019252D02*
X012418Y019252D01*
X012345Y019179D01*
X012598Y018896D02*
X012634Y018932D01*
X012745Y018932D01*
X012745Y018712D01*
X012634Y018712D01*
X012598Y018749D01*
X012598Y018896D01*
X012874Y018932D02*
X012874Y018712D01*
X013021Y018932D01*
X013021Y018712D01*
X013150Y018749D02*
X013150Y018822D01*
X013224Y018822D01*
X013297Y018749D02*
X013260Y018712D01*
X013187Y018712D01*
X013150Y018749D01*
X013150Y018896D02*
X013187Y018932D01*
X013260Y018932D01*
X013297Y018896D01*
X013297Y018749D01*
X013598Y018786D02*
X013598Y018932D01*
X013598Y018786D02*
X013671Y018712D01*
X013745Y018786D01*
X013745Y018932D01*
X013874Y018896D02*
X013911Y018932D01*
X013984Y018932D01*
X014021Y018896D01*
X013874Y018896D02*
X013874Y018859D01*
X014021Y018712D01*
X013874Y018712D01*
X014150Y018712D02*
X014297Y018712D01*
X014224Y018712D02*
X014224Y018932D01*
X014297Y018859D01*
X014426Y018822D02*
X014573Y018822D01*
X014500Y018896D02*
X014500Y018749D01*
X011558Y019072D02*
X007558Y019072D01*
X007558Y021072D01*
X008058Y021072D01*
X008058Y020572D01*
X011058Y020572D01*
X011058Y021072D01*
X008058Y021072D01*
X007418Y020946D02*
X007382Y020983D01*
X007308Y020983D01*
X007272Y020946D01*
X007272Y020836D01*
X007272Y020909D02*
X007198Y020983D01*
X007198Y020836D02*
X007418Y020836D01*
X007418Y020946D01*
X007382Y020707D02*
X007235Y020707D01*
X007198Y020670D01*
X007198Y020596D01*
X007235Y020560D01*
X007382Y020560D01*
X007418Y020596D01*
X007418Y020670D01*
X007382Y020707D01*
X007418Y020430D02*
X007418Y020284D01*
X007418Y020357D02*
X007198Y020357D01*
X007235Y020154D02*
X007382Y020154D01*
X007418Y020117D01*
X007418Y020044D01*
X007382Y020007D01*
X007235Y020007D01*
X007198Y020044D01*
X007198Y020117D01*
X007235Y020154D01*
X007198Y019878D02*
X007418Y019878D01*
X007345Y019804D01*
X007418Y019731D01*
X007198Y019731D01*
X007308Y019602D02*
X007308Y019455D01*
X007198Y019325D02*
X007418Y019179D01*
X007418Y019325D02*
X007198Y019179D01*
X007880Y018893D02*
X007880Y018857D01*
X007916Y018820D01*
X008026Y018820D01*
X007916Y018820D02*
X007880Y018783D01*
X007880Y018747D01*
X007916Y018710D01*
X008026Y018710D01*
X008026Y018930D01*
X007916Y018930D01*
X007880Y018893D01*
X008156Y018893D02*
X008193Y018930D01*
X008266Y018930D01*
X008303Y018893D01*
X008156Y018893D02*
X008156Y018857D01*
X008303Y018710D01*
X008156Y018710D01*
X008880Y018710D02*
X008880Y018857D01*
X008953Y018930D01*
X009026Y018857D01*
X009026Y018710D01*
X009026Y018820D02*
X008880Y018820D01*
X009156Y018857D02*
X009156Y018893D01*
X009193Y018930D01*
X009266Y018930D01*
X009303Y018893D01*
X009156Y018857D02*
X009303Y018710D01*
X009156Y018710D01*
X009880Y018710D02*
X009880Y018857D01*
X009953Y018930D01*
X010026Y018857D01*
X010026Y018710D01*
X010026Y018820D02*
X009880Y018820D01*
X010156Y018710D02*
X010303Y018710D01*
X010229Y018710D02*
X010229Y018930D01*
X010303Y018857D01*
X010880Y018857D02*
X010916Y018820D01*
X011026Y018820D01*
X010916Y018820D02*
X010880Y018783D01*
X010880Y018747D01*
X010916Y018710D01*
X011026Y018710D01*
X011026Y018930D01*
X010916Y018930D01*
X010880Y018893D01*
X010880Y018857D01*
X011156Y018710D02*
X011303Y018710D01*
X011229Y018710D02*
X011229Y018930D01*
X011303Y018857D01*
X011558Y019072D02*
X011558Y021072D01*
X011058Y021072D01*
X014058Y021072D02*
X014558Y021072D01*
D11*
X004658Y009272D02*
X003558Y009272D01*
X003558Y006072D01*
X004658Y006072D01*
X004658Y009272D01*
X002558Y009272D02*
X001458Y009272D01*
X001458Y006072D01*
X002558Y006072D01*
X002558Y009272D01*
X002193Y005722D02*
X002191Y005694D01*
X002186Y005666D01*
X002176Y005639D01*
X002164Y005613D01*
X002148Y005590D01*
X002129Y005569D01*
X002108Y005550D01*
X002084Y005534D01*
X002059Y005522D01*
X002032Y005512D01*
X002004Y005507D01*
X001976Y005505D01*
X001948Y005507D01*
X001920Y005512D01*
X001893Y005522D01*
X001867Y005534D01*
X001844Y005550D01*
X001823Y005569D01*
X001804Y005590D01*
X001788Y005614D01*
X001776Y005639D01*
X001766Y005666D01*
X001761Y005694D01*
X001759Y005722D01*
M02*
