%
M48
M72
T01C0.0150
T02C0.0276
T03C0.0315
T04C0.0320
T05C0.0354
T06C0.0360
T07C0.0394
T08C0.0400
T09C0.0512
T10C0.0551
T11C0.0700
T12C0.0900
T13C0.1417
%
T01
X13158Y6922
X15358Y8532
X16558Y8472
X18258Y8572
X19598Y7642
X16758Y10072
X13828Y9032
X12958Y8672
X23758Y2922
X30058Y6372
X31278Y6812
X33058Y5672
X35178Y5052
X36178Y6092
X28678Y6692
X27138Y7052
X28352Y8699
X27509Y9009
T02
X25558Y8572
X24558Y8572
X24558Y7572
X25558Y7572
X33858Y11372
X34858Y11372
X35958Y11366
X36958Y11366
X38108Y13472
X38108Y14472
X38108Y15472
X38108Y16472
X30058Y16572
X30058Y15572
X22058Y15572
X22058Y16572
X14058Y16572
X14058Y15572
X11008Y12072
X10008Y12072
X11958Y10672
X11958Y9672
X9008Y9222
X7008Y9222
X11958Y8072
X11958Y7072
X11558Y5572
X11558Y4572
X20058Y12072
X21058Y12072
X6058Y15572
X6058Y16572
T03
X6058Y18072
X7058Y18072
X8058Y18072
X9058Y18072
X10058Y18072
X11058Y18072
X12058Y18072
X13058Y18072
X14058Y18072
X15058Y18072
X16058Y18072
X17058Y18072
X18058Y18072
X19058Y18072
X20058Y18072
X21058Y18072
X22058Y18072
X23058Y18072
X24058Y18072
X25058Y18072
X26058Y18072
X27058Y18072
X28058Y18072
X29058Y18072
X30058Y18072
X31058Y18072
X32058Y18072
X33058Y18072
X34058Y18072
X35058Y18072
X36058Y18072
X37058Y18072
X37058Y13072
X36058Y13072
X35058Y13072
X34058Y13072
X33058Y13072
X32058Y13072
X31058Y13072
X30058Y13072
X29058Y13072
X28058Y13072
X27058Y13072
X26058Y13072
X25058Y13072
X24058Y13072
X23058Y13072
X22058Y13072
X21058Y13072
X20058Y13072
X19058Y13072
X18058Y13072
X17058Y13072
X16058Y13072
X15058Y13072
X14058Y13072
X13058Y13072
X12058Y13072
X11058Y13072
X10058Y13072
X9058Y13072
X8058Y13072
X7058Y13072
X6058Y13072
X21058Y9072
X21058Y8072
X21058Y7072
T04
X20558Y5072
X21558Y5072
X22558Y5072
X23558Y5072
X24558Y5072
X25558Y5072
X26558Y5072
X27558Y5072
X28558Y5072
X29558Y5072
X30558Y5072
X31558Y5072
X32558Y5072
X32558Y11072
X31558Y11072
X30558Y11072
X29558Y11072
X28558Y11072
X27558Y11072
X26558Y11072
X25558Y11072
X24558Y11072
X23558Y11072
X22558Y11072
X21558Y11072
X20558Y11072
X19558Y11072
X18558Y11072
X17558Y11072
X16558Y11072
X15558Y11072
X14558Y11072
X13558Y11072
X13558Y5072
X14558Y5072
X15558Y5072
X16558Y5072
X17558Y5072
X18558Y5072
X19558Y5072
X36058Y20072
X37058Y20072
T05
X36508Y15822
X37058Y15072
X34058Y15072
X33508Y15822
X29058Y15072
X26058Y15072
X21058Y15072
X18058Y15072
X13058Y15072
X10058Y15072
X9058Y12072
X12058Y12072
X15058Y12072
X16058Y12072
X19058Y12072
X10958Y10322
X6058Y12072
X10958Y7322
X27558Y8072
X30558Y8072
X34458Y8872
X34458Y9872
X37458Y9872
X37458Y8872
T06
X8050Y5852
X7066Y5852
X7066Y5072
X8050Y5072
T07
X26058Y3572
X27058Y3572
X28058Y3572
X29058Y3572
X30058Y3572
X31058Y3572
X32058Y3572
X33058Y3572
X33058Y2572
X32058Y2572
X31058Y2572
X30058Y2572
X29058Y2572
X28058Y2572
X27058Y2572
X26058Y2572
X35058Y2572
X36058Y2572
X37058Y2572
X37058Y3572
X36058Y3572
X35058Y3572
T08
X5058Y2572
X6058Y2572
X7058Y2572
X8058Y2572
X9058Y2572
X10058Y2572
X13058Y2572
X14058Y2572
X15058Y2572
X17058Y2572
X18058Y2572
X19058Y2572
X21058Y2572
X22058Y2572
X23058Y2572
X34585Y5589
X37145Y5589
X39058Y6072
X39058Y5072
X37145Y7369
X39058Y8072
X39058Y9072
X34585Y7369
X34558Y14072
X33558Y14072
X32058Y14072
X31058Y14072
X29058Y14072
X28058Y14072
X26558Y14072
X25558Y14072
X24058Y14072
X23058Y14072
X21058Y14072
X20058Y14072
X18558Y14072
X17558Y14072
X16058Y14072
X15058Y14072
X13058Y14072
X12058Y14072
X10558Y14072
X9558Y14072
X8058Y14072
X7058Y14072
X4558Y15072
X4558Y16072
X4558Y17072
X2058Y16572
X2058Y15572
X2058Y14572
X2058Y13072
X2058Y12072
X2058Y11072
X2058Y10072
X4558Y10572
X4558Y11572
X4558Y12572
X2058Y17572
X8058Y20072
X9058Y20072
X10058Y20072
X11058Y20072
X13058Y20072
X14058Y20072
X16058Y20072
X17058Y20072
X18058Y20072
X19058Y20072
X21058Y20072
X22058Y20072
X24058Y20072
X25058Y20072
X26058Y20072
X27058Y20072
X29058Y20072
X30058Y20072
X32058Y20072
X33058Y20072
X34058Y20072
X35058Y20072
X39808Y16172
X39808Y15172
X39808Y14172
X37058Y14072
X36058Y14072
T09
X4027Y7572
X2058Y7572
T10
X1976Y6746
X4141Y6746
X4141Y8399
X1976Y8399
T11
X39152Y11172
X39152Y13172
X39152Y15172
X39152Y17172
T12
X9928Y4002
X5188Y4002
T13
X2558Y3072
X2558Y20072
X39058Y20072
X39058Y3072
M30
