G75*
G70*
%OFA0B0*%
%FSLAX24Y24*%
%IPPOS*%
%LPD*%
%AMOC8*
5,1,8,0,0,1.08239X$1,22.5*
%
%ADD10C,0.0780*%
%ADD11C,0.0690*%
%ADD12C,0.0700*%
%ADD13C,0.1340*%
%ADD14C,0.0600*%
%ADD15C,0.0600*%
%ADD16R,0.0690X0.0690*%
%ADD17R,0.0780X0.0780*%
%ADD18C,0.1240*%
%ADD19C,0.0560*%
%ADD20C,0.0640*%
%ADD21R,0.0840X0.0840*%
%ADD22C,0.0840*%
%ADD23R,0.0867X0.0867*%
%ADD24C,0.0640*%
%ADD25C,0.0634*%
%ADD26R,0.0634X0.0634*%
%ADD27C,0.1857*%
D10*
X005058Y002572D03*
X006058Y002572D03*
X007058Y002572D03*
X008058Y002572D03*
X009058Y002572D03*
X010058Y002572D03*
X013058Y002572D03*
X014058Y002572D03*
X017058Y002572D03*
X018058Y002572D03*
X021058Y002572D03*
X022058Y002572D03*
X021058Y007072D03*
X021058Y008072D03*
X021058Y009072D03*
X019058Y012072D03*
X016058Y012072D03*
X015058Y012072D03*
X012058Y012072D03*
X009058Y012072D03*
X010958Y010322D03*
X006058Y012072D03*
X007058Y014072D03*
X008058Y014072D03*
X009558Y014072D03*
X010558Y014072D03*
X012058Y014072D03*
X013058Y014072D03*
X013058Y015072D03*
X015058Y014072D03*
X016058Y014072D03*
X017558Y014072D03*
X018558Y014072D03*
X020058Y014072D03*
X021058Y014072D03*
X021058Y015072D03*
X023058Y014072D03*
X024058Y014072D03*
X025558Y014072D03*
X026558Y014072D03*
X028058Y014072D03*
X029058Y014072D03*
X031058Y014072D03*
X032058Y014072D03*
X033558Y014072D03*
X034558Y014072D03*
X036058Y014072D03*
X037058Y014072D03*
X037058Y015072D03*
X036508Y015822D03*
X034058Y015072D03*
X033508Y015822D03*
X029058Y015072D03*
X026058Y015072D03*
X018058Y015072D03*
X010058Y015072D03*
X002058Y015572D03*
X002058Y016572D03*
X002058Y017572D03*
X009058Y020072D03*
X010058Y020072D03*
X011058Y020072D03*
X014058Y020072D03*
X017058Y020072D03*
X018058Y020072D03*
X019058Y020072D03*
X022058Y020072D03*
X025058Y020072D03*
X026058Y020072D03*
X027058Y020072D03*
X030058Y020072D03*
X033058Y020072D03*
X034058Y020072D03*
X035058Y020072D03*
X036058Y020072D03*
X037058Y020072D03*
X037458Y009872D03*
X039058Y009072D03*
X037458Y008872D03*
X039058Y008072D03*
X037145Y007369D03*
X039058Y006072D03*
X039058Y005072D03*
X037145Y005589D03*
X034585Y005589D03*
X034585Y007369D03*
X034458Y008872D03*
X034458Y009872D03*
X030558Y008072D03*
X027558Y008072D03*
X010958Y007322D03*
X002058Y011072D03*
X002058Y012072D03*
X002058Y013072D03*
D11*
X006058Y015572D03*
X010008Y012072D03*
X011008Y012072D03*
X011958Y010672D03*
X011958Y009672D03*
X009008Y009222D03*
X011958Y008072D03*
X011958Y007072D03*
X011558Y004572D03*
X024558Y007572D03*
X025558Y007572D03*
X025558Y008572D03*
X024558Y008572D03*
X021058Y012072D03*
X020058Y012072D03*
X022058Y015572D03*
X014058Y015572D03*
X030058Y015572D03*
X033858Y011372D03*
X035958Y011366D03*
X038108Y013472D03*
X038108Y014472D03*
X038108Y015472D03*
X038108Y016472D03*
D12*
X008050Y005852D03*
X007066Y005852D03*
X007066Y005072D03*
X008050Y005072D03*
D13*
X009928Y004002D03*
X005188Y004002D03*
D14*
X006058Y013072D03*
X007058Y013072D03*
X008058Y013072D03*
X009058Y013072D03*
X010058Y013072D03*
X011058Y013072D03*
X012058Y013072D03*
X013058Y013072D03*
X014058Y013072D03*
X015058Y013072D03*
X016058Y013072D03*
X017058Y013072D03*
X018058Y013072D03*
X019058Y013072D03*
X020058Y013072D03*
X021058Y013072D03*
X022058Y013072D03*
X023058Y013072D03*
X024058Y013072D03*
X025058Y013072D03*
X026058Y013072D03*
X027058Y013072D03*
X028058Y013072D03*
X029058Y013072D03*
X030058Y013072D03*
X031058Y013072D03*
X032058Y013072D03*
X033058Y013072D03*
X034058Y013072D03*
X035058Y013072D03*
X036058Y013072D03*
X037058Y013072D03*
D15*
X037058Y017792D02*
X037058Y018352D01*
X036058Y018352D02*
X036058Y017792D01*
X035058Y017792D02*
X035058Y018352D01*
X034058Y018352D02*
X034058Y017792D01*
X033058Y017792D02*
X033058Y018352D01*
X032058Y018352D02*
X032058Y017792D01*
X031058Y017792D02*
X031058Y018352D01*
X030058Y018352D02*
X030058Y017792D01*
X029058Y017792D02*
X029058Y018352D01*
X028058Y018352D02*
X028058Y017792D01*
X027058Y017792D02*
X027058Y018352D01*
X026058Y018352D02*
X026058Y017792D01*
X025058Y017792D02*
X025058Y018352D01*
X024058Y018352D02*
X024058Y017792D01*
X023058Y017792D02*
X023058Y018352D01*
X022058Y018352D02*
X022058Y017792D01*
X021058Y017792D02*
X021058Y018352D01*
X020058Y018352D02*
X020058Y017792D01*
X019058Y017792D02*
X019058Y018352D01*
X018058Y018352D02*
X018058Y017792D01*
X017058Y017792D02*
X017058Y018352D01*
X016058Y018352D02*
X016058Y017792D01*
X015058Y017792D02*
X015058Y018352D01*
X014058Y018352D02*
X014058Y017792D01*
X013058Y017792D02*
X013058Y018352D01*
X012058Y018352D02*
X012058Y017792D01*
X011058Y017792D02*
X011058Y018352D01*
X010058Y018352D02*
X010058Y017792D01*
X009058Y017792D02*
X009058Y018352D01*
X008058Y018352D02*
X008058Y017792D01*
X007058Y017792D02*
X007058Y018352D01*
X006058Y018352D02*
X006058Y017792D01*
D16*
X006058Y016572D03*
X014058Y016572D03*
X022058Y016572D03*
X030058Y016572D03*
X034858Y011372D03*
X036958Y011366D03*
X011558Y005572D03*
X007008Y009222D03*
D17*
X002058Y010072D03*
X002058Y014572D03*
X008058Y020072D03*
X013058Y020072D03*
X016058Y020072D03*
X021058Y020072D03*
X024058Y020072D03*
X029058Y020072D03*
X032058Y020072D03*
X023058Y002572D03*
X019058Y002572D03*
X015058Y002572D03*
D18*
X039152Y011172D03*
X039152Y013172D03*
X039152Y015172D03*
X039152Y017172D03*
D19*
X032558Y011072D02*
X032558Y010552D01*
X031558Y010552D02*
X031558Y011072D01*
X030558Y011072D02*
X030558Y010552D01*
X029558Y010552D02*
X029558Y011072D01*
X028558Y011072D02*
X028558Y010552D01*
X027558Y010552D02*
X027558Y011072D01*
X026558Y011072D02*
X026558Y010552D01*
X025558Y010552D02*
X025558Y011072D01*
X024558Y011072D02*
X024558Y010552D01*
X023558Y010552D02*
X023558Y011072D01*
X022558Y011072D02*
X022558Y010552D01*
X021558Y010552D02*
X021558Y011072D01*
X020558Y011072D02*
X020558Y010552D01*
X019558Y010552D02*
X019558Y011072D01*
X018558Y011072D02*
X018558Y010552D01*
X017558Y010552D02*
X017558Y011072D01*
X016558Y011072D02*
X016558Y010552D01*
X015558Y010552D02*
X015558Y011072D01*
X014558Y011072D02*
X014558Y010552D01*
X013558Y010552D02*
X013558Y011072D01*
X013558Y005592D02*
X013558Y005072D01*
X014558Y005072D02*
X014558Y005592D01*
X015558Y005592D02*
X015558Y005072D01*
X016558Y005072D02*
X016558Y005592D01*
X017558Y005592D02*
X017558Y005072D01*
X018558Y005072D02*
X018558Y005592D01*
X019558Y005592D02*
X019558Y005072D01*
X020558Y005072D02*
X020558Y005592D01*
X021558Y005592D02*
X021558Y005072D01*
X022558Y005072D02*
X022558Y005592D01*
X023558Y005592D02*
X023558Y005072D01*
X024558Y005072D02*
X024558Y005592D01*
X025558Y005592D02*
X025558Y005072D01*
X026558Y005072D02*
X026558Y005592D01*
X027558Y005592D02*
X027558Y005072D01*
X028558Y005072D02*
X028558Y005592D01*
X029558Y005592D02*
X029558Y005072D01*
X030558Y005072D02*
X030558Y005592D01*
X031558Y005592D02*
X031558Y005072D01*
X032558Y005072D02*
X032558Y005592D01*
D20*
X004858Y010572D02*
X004258Y010572D01*
X004258Y011572D02*
X004858Y011572D01*
X004858Y012572D02*
X004258Y012572D01*
X004258Y015072D02*
X004858Y015072D01*
X004858Y016072D02*
X004258Y016072D01*
X004258Y017072D02*
X004858Y017072D01*
D21*
X002058Y007572D03*
D22*
X004027Y007572D03*
D23*
X004141Y006746D03*
X001976Y006746D03*
X001976Y008399D03*
X004141Y008399D03*
D24*
X039808Y014172D03*
X039808Y015172D03*
X039808Y016172D03*
D25*
X036058Y003572D03*
X035058Y003572D03*
X035058Y002572D03*
X036058Y002572D03*
X037058Y002572D03*
X033058Y002572D03*
X032058Y002572D03*
X031058Y002572D03*
X030058Y002572D03*
X029058Y002572D03*
X028058Y002572D03*
X027058Y002572D03*
X026058Y002572D03*
X026058Y003572D03*
X027058Y003572D03*
X028058Y003572D03*
X029058Y003572D03*
X030058Y003572D03*
X031058Y003572D03*
X032058Y003572D03*
D26*
X033058Y003572D03*
X037058Y003572D03*
D27*
X039058Y003072D03*
X039058Y020072D03*
X002558Y020072D03*
X002558Y003072D03*
M02*
